<svg width="163" height="54" viewBox="0 0 163 54" fill="none" xmlns="http://www.w3.org/2000/svg">
<path d="M55.159 34.656C54.967 34.592 54.903 34.592 54.775 34.656C54.391 35.04 54.135 35.488 54.007 36.064C52.727 40.608 47.991 50.08 44.535 49.12C43.895 48.928 43.383 48.352 43.383 47.392C43.383 44.512 43.383 41.696 43.447 38.88C43.447 36.32 43.447 33.76 43.255 31.2C43.255 30.624 42.999 30.176 42.743 29.664C42.295 29.088 41.527 29.152 41.015 29.664C40.055 30.56 40.183 31.52 39.863 33.504C39.607 34.016 39.415 34.528 39.159 34.976C38.455 36.384 37.687 37.856 36.855 39.264C34.615 43.424 33.207 46.944 30.711 48.864C29.879 49.504 28.279 49.312 28.023 47.968C27.063 43.424 27.703 35.68 31.095 30.752C33.015 28 35.063 27.232 37.111 27.616C38.455 27.872 36.087 31.904 37.687 31.904C37.943 31.904 38.135 31.904 38.519 31.52C39.159 30.432 39.287 29.728 39.287 28.512C39.287 27.168 38.519 26.016 37.239 25.888H37.047C35.831 25.632 33.911 25.952 32.311 26.272C26.743 27.36 20.151 31.136 14.135 32.928C11.511 33.696 9.463 34.08 7.223 32.928C4.983 31.776 4.087 28.704 3.511 26.976C3.383 26.464 2.423 25.632 1.527 25.824C0.695 26.016 0.503 27.552 0.631 28.384C0.759 29.6 1.975 32.8 5.431 34.848C7.479 36.064 10.423 35.552 14.583 34.272C18.615 32.992 23.287 30.56 30.327 28.128C29.239 28.96 28.279 29.92 27.575 30.944C23.031 37.152 21.879 45.024 23.735 49.76C24.695 51.552 26.935 52.832 28.983 52.448C33.079 51.68 35.127 45.856 37.047 41.568C37.111 41.44 37.431 40.864 37.943 40.864C38.135 40.864 38.327 41.056 38.327 41.376C38.391 42.464 38.327 43.552 38.327 44.64C38.327 45.408 38.391 46.24 38.455 47.072C38.583 48.736 39.351 51.04 41.015 51.744C43.895 52.96 47.479 52 50.231 47.776C52.343 44.576 54.839 37.6 55.031 37.088C55.223 36.512 55.543 35.872 55.607 35.168C55.607 34.912 55.415 34.656 55.159 34.656ZM60.18 53.536C62.548 52.704 63.252 51.744 64.66 48.928C65.236 47.776 66.58 44.512 67.604 39.904C67.604 39.904 67.86 39.584 68.436 39.52C68.756 39.456 69.14 39.456 69.588 39.328C71.892 38.944 73.94 36.96 75.796 34.656C75.86 34.528 76.052 34.272 75.988 34.08C75.988 33.888 75.988 33.632 75.732 33.568C75.54 33.312 75.156 33.312 74.9 33.568C74.58 33.824 74.324 34.144 73.684 34.912C72.852 35.872 72.02 36.896 70.42 37.408C69.844 37.6 69.332 37.792 68.756 37.856C68.372 37.856 67.476 37.856 67.476 37.856L67.284 36.704C66.964 34.976 66.9 32.736 65.108 31.904C64.276 31.52 62.996 31.456 62.228 32.032C61.14 32.8 60.82 33.76 60.82 35.232C60.82 36.384 61.46 37.664 62.42 38.304C63.06 38.688 63.764 39.072 64.532 39.392C65.3 39.712 65.556 39.776 65.556 39.968C64.916 44.064 64.532 45.856 62.932 48.736C62.228 50.016 60.756 51.552 59.284 51.296C58.516 51.168 57.748 49.888 57.684 49.056C56.98 45.728 57.044 43.552 57.236 40.608C57.364 39.136 57.62 37.728 57.876 36.256C58.324 33.696 60.052 31.968 60.052 31.968C67.028 22.56 74.964 3.808 70.356 1.12C68.756 0.0959969 65.492 1.696 63.636 4.064C59.988 7.712 57.236 15.392 55.892 19.68C52.948 28.896 51.732 39.456 51.668 41.44C51.284 46.56 53.46 50.656 54.036 51.296C55.764 53.28 58.324 54.176 60.18 53.536ZM58.964 29.728C58.004 29.152 59.412 23.84 59.796 21.536C60.244 19.04 62.164 12.448 62.932 10.144C63.828 7.776 65.3 4.512 66.836 3.296C67.604 2.72 69.396 2.016 70.164 3.296C70.996 4.64 67.796 14.176 66.9 16.352C65.044 21.024 63.7 22.88 61.204 27.296C60.564 28.448 59.476 30.048 58.964 29.728ZM66.26 37.92C66.068 38.048 64.788 37.472 63.892 36.384C63.188 35.616 63.252 34.336 63.956 33.824C64.596 33.376 65.236 34.016 65.492 34.656C65.94 35.68 66.516 37.664 66.26 37.92ZM79.683 51.808C82.051 50.72 83.523 47.264 85.379 43.552C85.827 42.656 86.979 39.328 87.683 38.944C89.539 38.56 92.419 37.28 95.171 34.208C95.235 34.08 95.427 33.824 95.363 33.632C95.363 33.44 95.491 33.248 95.235 33.184C95.043 32.928 94.659 32.928 94.403 33.184C94.083 33.44 93.827 33.824 93.187 34.336C91.587 35.68 90.179 36.64 88.259 36.832C88.131 36.704 88.515 35.04 88.515 33.44C88.515 32.288 88.323 31.264 87.747 30.304C87.555 29.984 87.299 29.6 86.979 29.408C86.467 29.152 86.211 28.704 85.891 28.256C85.379 27.424 84.931 27.04 83.971 26.72C83.587 26.592 82.563 26.592 82.051 26.656C80.323 26.848 78.595 27.68 77.379 28.96C73.859 32.544 72.899 36.384 72.131 39.968C71.811 42.08 71.747 46.176 72.451 48.416C73.411 51.424 76.803 53.216 79.683 51.808ZM78.851 50.016C77.571 50.208 76.803 47.072 76.739 46.176C76.611 44.448 76.675 39.712 77.315 36.448C78.403 31.072 80.451 28.448 83.075 28.064C83.971 27.936 84.355 29.344 84.355 29.344C82.243 30.432 81.923 32.736 82.115 34.4C82.243 36 83.395 37.856 85.251 38.56C85.763 38.752 85.571 39.712 85.379 40.16C84.227 43.104 83.139 45.152 81.987 47.136C81.347 48.288 80.067 49.824 78.851 50.016ZM86.531 36.448C86.019 36.512 85.187 35.808 84.931 35.424C84.163 34.272 83.907 33.632 84.227 31.712C84.291 31.392 84.675 30.688 85.443 30.56C86.083 30.432 86.787 31.008 86.915 31.84C87.043 32.416 87.107 32.864 87.107 33.632C87.107 34.016 86.915 36.384 86.531 36.448ZM109.228 51.744C112.108 52.96 115.692 52 118.444 47.776C120.556 44.576 123.052 37.6 123.244 37.088C123.436 36.512 123.756 35.872 123.82 35.168C123.82 34.912 123.628 34.656 123.372 34.656C123.18 34.592 123.116 34.592 122.988 34.656C122.604 35.04 122.348 35.488 122.22 36.064C120.94 40.608 115.884 50.912 112.748 49.12C111.404 48.352 111.596 46.816 112.172 43.04C112.94 38.304 113.132 36.192 113.388 29.088C113.388 28.448 113.004 27.808 112.556 27.424C112.172 27.04 110.764 27.168 110.444 27.744C110.124 28.32 109.612 29.088 109.228 29.664C107.692 31.84 106.348 35.296 105.772 36.32C104.236 39.072 102.188 42.848 101.164 44.768C99.884 47.072 99.18 48.224 97.964 48.864C97.644 49.056 97.452 49.056 97.132 48.736C96.684 47.968 97.068 44.384 97.452 42.336C98.028 39.584 99.116 34.336 99.372 30.56C99.436 29.856 99.244 28.192 98.924 27.36C98.412 26.528 97.836 26.592 96.94 26.784C96.044 26.976 95.724 27.616 95.596 28C94.892 29.792 93.932 34.016 93.612 35.744C92.844 39.648 91.5 44.896 91.564 49.696C91.564 50.976 93.164 52.512 95.916 51.936C96.492 51.808 98.092 51.36 99.18 50.272C100.396 49.184 101.356 47.712 102.444 45.536C103.084 44.192 103.468 43.488 104.236 42.016C105.068 40.608 106.156 38.304 107.244 36.96C107.436 36.704 107.692 36.64 107.82 36.704C108.012 36.768 108.012 37.024 108.012 37.216C108.012 42.592 106.54 45.856 107.052 48.352C107.244 49.44 107.756 51.04 109.228 51.744ZM161.454 34.784C159.726 32.992 157.358 33.056 154.478 33.824C150.702 34.784 145.07 41.632 140.462 44.768C135.982 47.904 129.518 52 127.342 50.08C124.398 48.288 126.958 38.24 127.598 33.888C128.11 30.688 128.558 27.36 128.878 24.672C133.038 24.992 137.646 24.032 138.35 23.456C139.118 22.816 138.798 21.984 137.966 22.24C137.134 22.496 133.294 23.136 129.134 22.56L129.518 19.936C129.646 16.416 131.118 8.736 131.118 6.944C131.118 6.304 130.414 5.92 130.158 5.792C129.454 5.472 128.43 5.728 128.046 6.304C126.766 8.032 125.614 13.6 125.166 17.056L124.526 21.216C122.158 20 120.942 18.336 120.494 17.248C120.11 16.224 120.046 14.944 120.302 14.304C120.622 13.536 119.726 13.472 119.15 13.472C117.806 13.472 116.718 15.2 117.102 17.504C117.55 20 120.238 22.368 124.078 23.648C123.758 25.504 123.502 27.232 123.31 28.064C122.478 31.968 121.838 34.4 121.518 38.304C121.39 39.584 121.134 46.176 121.838 47.968C124.654 57.312 134.126 51.616 136.686 49.952C146.99 43.36 151.854 36.64 154.862 35.616C156.846 34.848 158.126 35.36 158.51 36.448C159.022 37.856 160.046 40.288 161.454 40.032C163.182 40.032 162.926 36.256 161.454 34.784Z" fill="black"/>
</svg>
