<?xml version="1.0" encoding="utf-8"?>
<!-- Generator: Adobe Illustrator 23.1.1, SVG Export Plug-In . SVG Version: 6.00 Build 0)  -->
<svg version="1.1" id="Layer_1" xmlns="http://www.w3.org/2000/svg" xmlns:xlink="http://www.w3.org/1999/xlink" x="0px" y="0px"
	 viewBox="0 0 13.3 9.9" style="enable-background:new 0 0 13.3 9.9;" xml:space="preserve">
<g>
	<path d="M0.5,9.5C0.3,9.3-0.1,8.6,0,7.6c0-0.4,0.2-2.4,0.8-4.1c0.3-0.8,0.8-2.2,1.5-2.9c0.3-0.4,1-0.7,1.3-0.6
		c0.9,0.5-0.6,4-1.9,5.8c0,0-0.3,0.3-0.4,0.8c0,0.3-0.1,0.5-0.1,0.8C1,8,1,8.4,1.1,9c0,0.2,0.2,0.4,0.3,0.4C1.7,9.5,2,9.2,2.1,9
		c0.3-0.5,0.4-0.9,0.5-1.6c0,0,0,0-0.2-0.1C2.3,7.2,2.1,7.1,2,7C1.8,6.9,1.7,6.7,1.7,6.5C1.7,6.2,1.8,6,2,5.9c0.1-0.1,0.4-0.1,0.5,0
		C2.9,6,2.9,6.4,2.9,6.7l0,0.2c0,0,0.2,0,0.2,0c0.1,0,0.2,0,0.3-0.1C3.8,6.8,4,6.6,4.1,6.4c0.1-0.1,0.2-0.2,0.2-0.3c0,0,0.1,0,0.2,0
		c0,0,0,0.1,0,0.1c0,0,0,0.1,0,0.1C4.2,6.8,3.8,7.1,3.4,7.2c-0.1,0-0.2,0-0.2,0C3,7.3,3,7.3,3,7.3C2.8,8.2,2.6,8.8,2.4,9
		C2.2,9.5,2,9.7,1.6,9.9C1.3,10,0.8,9.8,0.5,9.5z M1.8,5c0.5-0.8,0.7-1.2,1.1-2.1C3,2.5,3.6,0.7,3.5,0.5C3.3,0.2,3,0.4,2.9,0.5
		C2.6,0.7,2.3,1.3,2.1,1.7C2,2.2,1.6,3.4,1.5,3.9C1.5,4.3,1.2,5.3,1.4,5.4C1.5,5.5,1.7,5.2,1.8,5z M2.6,6.3c0-0.1-0.2-0.2-0.3-0.2
		c-0.1,0.1-0.1,0.3,0,0.5C2.5,6.9,2.7,7,2.7,7C2.8,6.9,2.7,6.5,2.6,6.3z"/>
	<path d="M3.9,9.2C3.5,8.3,3.8,6.8,4.6,5.6c0.4-0.6,1.2-1,1.8-0.9c0.2,0,0.4,0.2,0.4,0.5c0,0.2,0,0.4-0.1,0.6
		C6.6,5.8,6.6,5.8,6.5,5.8C6.2,5.8,6.7,5.1,6.4,5C6,4.9,5.6,5.1,5.3,5.6C4.6,6.5,4.5,8,4.7,8.8C4.7,9.1,5,9.1,5.2,9
		c0.5-0.4,0.7-1,1.2-1.8c0.2-0.3,0.3-0.5,0.4-0.8c0-0.1,0.1-0.2,0.1-0.3C7,5.8,7,5.6,7.1,5.4c0.1-0.1,0.2-0.1,0.3,0
		c0,0.1,0.1,0.2,0.1,0.3c0,0.5,0,1,0,1.4c0,0.5,0,1.1,0,1.6c0,0.2,0.1,0.3,0.2,0.3c0.6,0.2,1.5-1.6,1.8-2.4c0-0.1,0.1-0.2,0.1-0.3
		c0,0,0,0,0.1,0c0,0,0.1,0,0.1,0.1c0,0.1-0.1,0.3-0.1,0.4c0,0.1-0.5,1.4-0.9,2c-0.5,0.8-1.2,1-1.7,0.7C6.8,9.4,6.7,9,6.7,8.7
		c0-0.2,0-0.3,0-0.5c0-0.2,0-0.4,0-0.6c0-0.1,0-0.1-0.1-0.1c-0.1,0-0.2,0.1-0.2,0.1C6,8.4,5.6,9.5,4.9,9.7C4.5,9.7,4.1,9.5,3.9,9.2z
		"/>
	<path d="M13.3,6.5c0,0.1-0.1,0.3-0.1,0.4c0,0.1-0.6,1.4-0.9,1.8c-0.3,0.5-0.7,0.8-1.3,0.8c-0.3,0-0.9-0.2-1-0.7
		C9.8,8.3,10.1,7.6,10.4,7l0.2-0.5c0.1-0.2,0-0.3-0.2-0.3c-0.2,0-0.3-0.1-0.4-0.2C9.9,6.4,9.7,6.9,9.5,7.4C9.4,7.5,9.3,7.6,9.3,7.6
		c-0.1,0-0.1-0.1,0-0.2c0.3-0.6,0.4-1.1,0.6-1.4C9.7,5.8,9.6,5.6,9.5,5.5C9.2,5,9.4,3.5,10,3.1c0.5-0.3,1.1,0,1,0.8
		c-0.1,0.3-0.2,0.6-0.4,1c-0.1,0.2-0.4,0.5-0.2,0.7c0.2,0.3,0.5,0.3,0.8,0.3c0.1,0,0.3,0.1,0.3,0.2c0.1,0.4-0.3,1.4-0.4,1.7
		c-0.2,0.6-0.3,1,0.1,1.2c0.7,0.2,1.2-0.8,1.9-2.4c0-0.1,0.1-0.2,0.1-0.3C13.2,6.4,13.2,6.4,13.3,6.5C13.3,6.5,13.3,6.5,13.3,6.5z
		 M10.7,4c0.1-0.1,0.1-0.3,0-0.4c0-0.1-0.1-0.2-0.2-0.2C10.1,3.3,10,4,10,4.4c0,0.3,0,0.6,0.2,0.6C10.4,4.8,10.6,4.3,10.7,4z"/>
</g>
</svg>
