<svg width="199" height="49" viewBox="0 0 199 49" fill="none" xmlns="http://www.w3.org/2000/svg">
<path d="M47.6785 31.576C47.1665 31.064 46.6545 31.96 46.2705 32.792C45.9505 34.2 42.0465 40.984 39.1025 43.224C36.2225 45.464 33.6625 45.208 31.9345 43.672C30.3345 42.264 30.0145 39.576 30.4625 35.736C30.9745 31.32 32.8945 25.368 35.7105 23.832C36.8625 23.256 37.7585 23.128 38.4625 23.64C38.9105 23.96 38.6545 24.856 38.4625 25.56C38.3345 26.264 38.3345 26.392 38.7185 26.584C38.9105 26.648 39.1025 26.648 39.4865 26.264C39.8705 25.816 39.9985 25.304 40.0625 24.536C40.1905 22.808 38.5265 21.272 36.8625 21.144C35.6465 20.888 33.6625 21.208 31.9985 21.528C26.4305 22.616 19.8385 26.392 13.8225 28.184C11.1985 28.952 9.1505 29.336 6.9105 28.184C4.6705 27.032 3.7745 23.96 3.1985 22.232C3.0705 21.72 2.1105 20.888 1.2145 21.08C0.3825 21.272 0.1905 22.808 0.3185 23.64C0.4465 24.856 1.6625 28.056 5.1185 30.104C7.1665 31.32 10.1105 30.808 14.2705 29.528C18.3025 28.248 23.0385 25.816 30.0785 23.384C31.0385 23.064 31.8065 22.808 32.5745 22.616C29.0545 25.048 27.3905 28.504 26.0465 31.192C24.5105 34.392 24.3185 38.488 25.2145 41.688C25.7905 43.736 26.9425 45.4 28.2225 46.168C29.8865 47.192 31.8705 47.768 34.1105 47.576C37.6305 47.32 38.6545 46.04 40.2545 44.568C43.3905 42.584 47.0385 35.16 47.6145 33.24C47.7425 32.536 47.9985 31.832 47.6785 31.576ZM52.2455 46.808C54.6135 45.72 56.0855 42.264 57.9415 38.552C58.3895 37.656 59.5415 34.328 60.2455 33.944C62.1015 33.56 64.9815 32.28 67.7335 29.208C67.7975 29.08 67.9895 28.824 67.9255 28.632C67.9255 28.44 68.0535 28.248 67.7975 28.184C67.6055 27.928 67.2215 27.928 66.9655 28.184C66.6455 28.44 66.3895 28.824 65.7495 29.336C64.1495 30.68 62.7415 31.64 60.8215 31.832C60.6935 31.704 61.0775 30.04 61.0775 28.44C61.0775 27.288 60.8855 26.264 60.3095 25.304C60.1175 24.984 59.8615 24.6 59.5415 24.408C59.0295 24.152 58.7735 23.704 58.4535 23.256C57.9415 22.424 57.4935 22.04 56.5335 21.72C56.1495 21.592 55.1255 21.592 54.6135 21.656C52.8855 21.848 51.1575 22.68 49.9415 23.96C46.4215 27.544 45.4615 31.384 44.6935 34.968C44.3735 37.08 44.3095 41.176 45.0135 43.416C45.9735 46.424 49.3655 48.216 52.2455 46.808ZM51.4135 45.016C50.1335 45.208 49.3655 42.072 49.3015 41.176C49.1735 39.448 49.2375 34.712 49.8775 31.448C50.9655 26.072 53.0135 23.448 55.6375 23.064C56.5335 22.936 56.9175 24.344 56.9175 24.344C54.8055 25.432 54.4855 27.736 54.6775 29.4C54.8055 31 55.9575 32.856 57.8135 33.56C58.3255 33.752 58.1335 34.712 57.9415 35.16C56.7895 38.104 55.7015 40.152 54.5495 42.136C53.9095 43.288 52.6295 44.824 51.4135 45.016ZM59.0935 31.448C58.5815 31.512 57.7495 30.808 57.4935 30.424C56.7255 29.272 56.4695 28.632 56.7895 26.712C56.8535 26.392 57.2375 25.688 58.0055 25.56C58.6455 25.432 59.3495 26.008 59.4775 26.84C59.6055 27.416 59.6695 27.864 59.6695 28.632C59.6695 29.016 59.4775 31.384 59.0935 31.448ZM83.8385 47.32C85.4385 47.64 87.8705 45.784 88.8945 44.568C90.0465 43.224 91.6465 39.64 92.2865 38.104C92.8625 36.76 93.7585 33.432 94.3345 31.448C94.3985 31.32 94.2705 31.192 94.2705 31.064C94.2705 30.936 94.2705 30.808 94.1425 30.68C93.8865 30.424 93.5025 30.552 93.3745 30.808C92.6065 32.664 91.1345 37.336 90.2385 38.936C89.4065 40.408 87.0385 45.144 84.9905 44.824C84.0305 44.696 83.7105 43.032 83.9665 39.832C84.2225 37.272 85.0545 33.944 85.3745 31.512C85.5665 29.528 85.8865 25.944 85.3105 24.792C84.6705 23.512 83.2625 22.168 81.8545 22.552C78.9745 23.384 78.1425 24.28 76.0945 26.712C74.8145 27.992 73.8545 29.976 72.4465 31.128C71.7425 31.832 71.3585 31.576 71.3585 30.232C71.3585 27.672 71.4865 25.944 71.4865 23.064C71.4865 22.488 71.1025 21.464 69.2465 21.336C68.6065 21.272 67.5825 21.528 67.3265 22.936C66.6225 26.456 66.3025 29.912 65.4705 36.76C65.2145 39.064 64.5745 41.496 64.2545 44.184C64.1265 45.592 63.8705 46.104 64.7025 47.128C65.3425 47.96 67.1985 48.088 67.7105 47.192C68.2225 46.488 68.4785 45.784 68.6705 44.888C68.7985 44.376 69.5025 41.368 69.6945 40.984C70.1425 39.768 70.7185 37.912 71.3585 36.76C72.5105 34.84 74.6225 30.936 76.0305 29.272C76.9265 28.12 78.4625 26.456 79.9345 25.304C80.7665 24.92 81.7265 25.24 81.7265 26.392C81.8545 26.968 81.0865 30.488 80.7665 31.576C79.1665 37.528 78.9745 40.152 79.6145 43.288C80.1905 46.168 82.1105 47 83.8385 47.32ZM110.632 31.704C110.568 31.576 110.44 31.448 110.312 31.448C110.184 31.384 109.928 31.448 109.928 31.512C109.288 32.472 108.712 33.624 108.008 35.096C106.088 39.128 101.8 45.208 99.8155 45.848C98.4715 46.232 97.5115 45.528 97.1915 44.184C96.3595 40.536 97.8315 33.112 98.5355 28.888C98.5355 29.016 99.3675 23.064 99.7515 19.672C103.976 19.992 108.583 19.032 109.288 18.456C110.056 17.816 109.736 16.984 108.904 17.24C108.072 17.496 104.168 18.136 100.008 17.56L100.264 14.552L100.456 12.76C100.776 10.008 102.056 3.736 102.056 1.944C102.056 1.304 101.352 0.919998 101.095 0.791996C100.392 0.471996 99.3675 0.727997 98.9835 1.304C97.7035 3.032 96.5515 6.872 96.1035 10.328L95.7195 12.44C95.6555 12.888 95.3995 14.296 95.1435 16.024C92.9675 14.872 91.8795 13.272 91.4315 12.248C91.0475 11.224 90.9835 9.944 91.2395 9.304C91.5595 8.536 90.6635 8.472 90.0875 8.472C88.7435 8.472 87.6555 10.2 88.0395 12.504C88.4875 14.936 91.0475 17.24 94.7595 18.584L93.9275 23.832C92.9035 30.104 91.1115 38.424 92.7755 42.968C94.3115 47.32 98.6635 48.856 101.672 46.552C104.36 44.504 108.008 38.552 110.248 33.176C110.503 32.536 110.696 32.216 110.632 31.704ZM113.387 47.448C117.483 46.68 119.531 40.856 121.451 36.568C121.515 36.44 121.835 35.864 122.347 35.864C122.539 35.864 122.731 36.056 122.731 36.376C122.795 37.464 122.731 38.552 122.731 39.64C122.731 40.408 122.795 41.24 122.859 42.072C122.987 43.736 123.755 46.04 125.419 46.744C128.299 47.96 131.883 47 134.635 42.776C136.747 39.576 139.243 32.6 139.435 32.088C139.627 31.512 139.947 30.872 140.011 30.168C140.011 29.912 139.819 29.656 139.562 29.656C139.371 29.592 139.307 29.592 139.179 29.656C138.795 30.04 138.539 30.488 138.411 31.064C137.131 35.608 132.395 45.08 128.939 44.12C128.299 43.928 127.787 43.352 127.787 42.392C127.787 39.512 127.787 36.696 127.851 33.88C127.851 31.32 127.851 28.76 127.659 26.2C127.659 25.624 127.403 25.176 127.147 24.664C126.699 24.088 125.931 24.152 125.419 24.664C124.458 25.56 124.587 26.52 124.267 28.504C124.01 29.016 123.819 29.528 123.562 29.976C122.859 31.384 122.091 32.856 121.259 34.264C119.019 38.424 117.611 41.944 115.115 43.864C114.283 44.504 112.683 44.312 112.427 42.968C111.467 38.424 112.107 30.68 115.499 25.752C117.419 23 119.531 21.976 121.515 22.616C122.859 22.872 120.491 26.904 122.091 26.904C122.347 26.904 122.539 26.904 122.923 26.52C123.562 25.432 123.691 24.728 123.691 23.512C123.691 22.168 122.923 21.016 121.643 20.888C118.187 20.376 114.155 22.936 111.979 25.944C107.434 32.152 106.282 40.024 108.139 44.76C109.099 46.552 111.339 47.832 113.387 47.448ZM146.033 47.576C149.553 47.32 150.577 46.04 152.177 44.568C155.313 42.584 158.641 35.16 159.217 33.24C159.345 32.536 159.601 31.832 159.281 31.576C158.769 31.064 158.257 31.96 157.873 32.792C157.553 34.2 153.969 40.984 151.025 43.224C148.145 45.464 145.585 45.208 143.857 43.672C142.257 42.264 141.937 39.576 142.385 35.736C142.897 31.32 144.817 25.368 147.633 23.832C148.785 23.256 149.681 23.128 150.385 23.64C150.833 23.96 150.577 24.856 150.385 25.56C150.257 26.264 150.257 26.392 150.641 26.584C150.833 26.648 151.025 26.648 151.409 26.264C151.793 25.816 151.921 25.304 151.985 24.536C152.113 22.808 150.449 21.272 148.785 21.144C147.505 21.016 146.737 21.336 145.649 21.912C141.361 24.28 139.313 28.184 137.841 31.192C136.305 34.392 136.241 38.488 137.137 41.688C137.713 43.736 138.865 45.4 140.145 46.168C141.809 47.192 143.793 47.768 146.033 47.576ZM197.767 29.784C196.039 27.992 193.671 28.056 190.791 28.824C187.015 29.784 181.383 36.632 176.775 39.768C172.295 42.904 165.831 47 163.655 45.08C160.711 43.288 163.271 33.24 163.911 28.888C164.423 25.688 164.871 22.36 165.191 19.672C169.351 19.992 173.958 19.032 174.663 18.456C175.431 17.816 175.111 16.984 174.279 17.24C173.447 17.496 169.607 18.136 165.447 17.56L165.831 14.936C165.959 11.416 167.431 3.736 167.431 1.944C167.431 1.304 166.727 0.919998 166.47 0.791996C165.767 0.471996 164.743 0.727997 164.359 1.304C163.079 3.032 161.927 8.6 161.479 12.056L160.839 16.216C158.471 15 157.255 13.336 156.806 12.248C156.422 11.224 156.358 9.944 156.614 9.304C156.934 8.536 156.038 8.472 155.462 8.472C154.118 8.472 153.03 10.2 153.414 12.504C153.862 15 156.55 17.368 160.391 18.648C160.071 20.504 159.815 22.232 159.623 23.064C158.791 26.968 158.151 29.4 157.831 33.304C157.703 34.584 157.447 41.176 158.151 42.968C160.967 52.312 170.439 46.616 172.999 44.952C183.303 38.36 188.167 31.64 191.175 30.616C193.159 29.848 194.439 30.36 194.823 31.448C195.335 32.856 196.359 35.288 197.767 35.032C199.495 35.032 199.239 31.256 197.767 29.784Z" fill="black"/>
</svg>
