<?xml version="1.0" encoding="utf-8"?>
<!-- Generator: Adobe Illustrator 23.1.1, SVG Export Plug-In . SVG Version: 6.00 Build 0)  -->
<svg version="1.1" id="Layer_1" xmlns="http://www.w3.org/2000/svg" xmlns:xlink="http://www.w3.org/1999/xlink" x="0px" y="0px"
	 viewBox="0 0 23.5 9.1" style="enable-background:new 0 0 23.5 9.1;" xml:space="preserve">
<g>
	<path d="M0.5,8.6C0.3,8.5,0.2,8.2,0.1,8c-0.3-0.7-0.1-1.7,0.2-2.4c0.2-0.5,0.6-1.1,1-1.4c0.5-0.3,0.9-0.5,1.3-0.1
		c0.5,0.5-0.1,1.1-0.6,1.6c-0.3,0.3-0.7,0.6-1,0.8C1,6.5,0.9,6.6,0.9,6.8c0,0.2,0,0.4,0,0.8c0,0.3,0.1,0.7,0.4,0.8
		C2,8.5,2.9,7.4,3.4,6.4c0.2-0.3,0.2-0.7,0.3-0.7c0.1-0.1,0.2,0,0.2,0c0,0,0,0.1,0,0.2C3.9,6,3.8,6.2,3.7,6.5C3.6,6.7,3.5,7,3.3,7.3
		C2.8,8.1,2.3,8.6,1.6,8.7C1.4,8.8,0.8,8.8,0.5,8.6z M1.7,5.6C2,5.4,2.2,5.2,2.4,4.9c0.2-0.3,0.1-0.5-0.1-0.6
		C1.9,4.1,1.6,4.4,1.4,4.6C1.2,5,1.1,5.3,1,5.7C0.9,5.7,0.9,6,1,6C1.1,6.1,1.5,5.8,1.7,5.6z"/>
	<path d="M3.5,8.3c-0.1-0.6,0-1.4,0-1.4c0.1-0.5,0.2-1.6,0.3-2C3.9,4.3,3.9,4.1,4,4.1C4.1,4,4.1,3.9,4.2,3.9c0.1,0,0.2,0,0.3,0
		C4.6,4,4.6,4.3,4.6,4.3c0,0.4-0.2,2.9-0.2,3.8c0,0.1,0,0.1,0,0.2c0.1,0.1,0.2,0.1,0.3,0C4.9,8.2,5,8.1,5.1,7.9
		c0.3-0.5,0.7-1.3,0.8-1.4C6,6.3,6.2,6,6.3,5.8C6.1,5.6,5.9,5.3,5.8,5C5.6,4.7,5.6,4.3,5.6,3.9c0-0.5,0.3-1.1,0.8-1.2
		C6.7,2.6,6.9,2.9,7,3.2c0.1,0.5,0,1.4-0.3,2c0,0,0,0.1,0,0.1C6.8,5.6,7.1,5.9,7.4,6c0.5,0.1,1-0.2,1.2-0.6c0.1-0.2,0.2-0.1,0.2,0
		C8.8,5.8,8.1,6.5,7.2,6.3C7,6.3,6.6,6,6.5,5.9c0,0-0.1,0.1-0.2,0.3C6.2,6.5,5.7,7.5,5.5,7.8C5.3,8.1,5,8.6,4.7,8.8
		C4.5,8.9,4.4,8.9,4.1,8.8C3.9,8.8,3.6,8.5,3.5,8.3z M6.7,4.6c0.1-0.3,0.1-0.5,0.1-0.8c0-0.3,0-0.6-0.2-0.8C6.3,2.8,6.2,3.6,6.3,3.9
		c0,0.2,0.1,0.6,0.2,0.8c0,0,0.1,0.1,0.1,0.1C6.6,4.8,6.7,4.7,6.7,4.6z"/>
	<path d="M8.4,8.6C8.2,8.5,8.1,8.2,8,8C7.8,7.3,8,6.3,8.2,5.6c0.2-0.5,0.6-1.1,1-1.4c0.5-0.3,0.9-0.5,1.3-0.1
		C11,4.6,10.4,5.3,10,5.7C9.7,5.9,9.3,6.2,9,6.4C8.9,6.5,8.8,6.6,8.8,6.8c0,0.2,0,0.4,0,0.8c0,0.3,0.1,0.7,0.4,0.8
		c0.7,0.3,1.6-0.9,2.1-1.9c0.2-0.3,0.2-0.7,0.3-0.7c0.1-0.1,0.2,0,0.2,0c0,0,0,0.1,0,0.2c-0.1,0.2-0.2,0.3-0.3,0.7
		c-0.1,0.2-0.2,0.5-0.4,0.8c-0.5,0.8-0.9,1.2-1.7,1.4C9.3,8.8,8.7,8.8,8.4,8.6z M9.6,5.6c0.3-0.2,0.5-0.4,0.7-0.7
		c0.2-0.3,0.1-0.5-0.1-0.6C9.8,4.1,9.5,4.4,9.3,4.6C9.1,5,9,5.3,8.9,5.7c0,0.1-0.1,0.3,0,0.3C9,6.1,9.4,5.8,9.6,5.6z"/>
	<path d="M14.1,8C14,7.4,14,6.9,14.3,5.8c0.1-0.2,0.2-0.9,0.2-1c0-0.2-0.2-0.3-0.3-0.2c-0.3,0.2-0.6,0.5-0.7,0.7
		c-0.3,0.3-0.7,1-0.9,1.4c-0.1,0.2-0.2,0.6-0.3,0.8c0,0.1-0.2,0.6-0.2,0.7c0,0.2-0.1,0.3-0.2,0.4c-0.1,0.2-0.4,0.1-0.6,0
		c-0.2-0.2-0.1-0.3-0.1-0.6c0.1-0.5,0.2-1,0.2-1.4c0.2-1.3,0.2-1.9,0.3-2.6c0-0.3,0.2-0.3,0.4-0.3c0.3,0,0.4,0.2,0.4,0.3
		c0,0.5,0,0.9,0,1.3c0,0.3,0.1,0.3,0.2,0.2c0.3-0.2,0.4-0.6,0.7-0.8c0.4-0.5,0.5-0.6,1.1-0.8C14.8,4,15,4.3,15.2,4.5
		c0.1,0.2,0,0.9,0,1.3c-0.1,0.5-0.2,1.1-0.3,1.6c0,0.6,0,0.9,0.2,0.9c0.4,0.1,0.8-0.8,1-1.1c0.2-0.3,0.4-1.2,0.6-1.5
		c0,0,0.1-0.1,0.1,0c0,0,0,0,0,0.1c0,0,0,0,0,0.1c-0.1,0.4-0.3,1-0.4,1.2c-0.1,0.3-0.4,1-0.6,1.2c-0.2,0.2-0.6,0.6-0.9,0.5
		C14.6,8.7,14.2,8.5,14.1,8z"/>
	<path d="M19.8,6.1c-0.4,1-1.1,2.1-1.6,2.5c-0.6,0.4-1.4,0.1-1.7-0.7c-0.3-0.9,0-2.4,0.2-3.6l0.2-1c-0.7-0.3-1.2-0.7-1.3-1.1
		c-0.1-0.4,0.1-0.8,0.4-0.8c0.1,0,0.3,0,0.2,0.2c0,0.1,0,0.4,0,0.6c0.1,0.2,0.3,0.5,0.7,0.7c0-0.3,0.1-0.6,0.1-0.7l0.1-0.4
		c0.1-0.6,0.3-1.4,0.5-1.7C17.8,0,18,0,18.1,0c0,0,0.2,0.1,0.2,0.2c0,0.3-0.2,1.5-0.3,2l0,0.3l0,0.6c0.8,0.1,1.5,0,1.7-0.1
		c0.2,0,0.2,0.1,0.1,0.2c-0.1,0.1-1,0.3-1.8,0.2c-0.1,0.6-0.2,1.8-0.2,1.7c-0.1,0.8-0.4,2.2-0.3,2.9c0.1,0.3,0.2,0.4,0.5,0.3
		c0.4-0.1,1.2-1.3,1.5-2c0.1-0.3,0.2-0.5,0.4-0.7c0,0,0,0,0.1,0c0,0,0,0,0.1,0C19.9,5.9,19.9,6,19.8,6.1z"/>
	<path d="M23.5,4.7c0,0.1-0.1,0.2-0.2,0.3c-0.4,0.4-1.1,1-1.3,1.2c-0.1,0.1-0.2,0.1-0.3,0.3c0,0,0,0.1,0,0.1c0,0.1,0.1,0.2,0.1,0.3
		c0.1,0.7-0.1,1.2-0.4,1.6c-0.3,0.4-0.5,0.5-0.9,0.6c-0.2,0.1-0.5,0-0.7-0.1c-0.2-0.1-0.4-0.3-0.4-0.5c0-0.2,0.3-0.7,0.6-1
		c0.2-0.2,0.4-0.4,0.6-0.6c0.1,0,0.2-0.1,0.2-0.2c0.1-0.1,0.1-0.1,0.1-0.2s0-0.1-0.1-0.2c-0.1-0.2-0.4-0.5-0.6-1
		C20,5.6,19.9,6,19.8,6.2c0,0.1-0.1,0.2-0.2,0.1c-0.1,0,0-0.1,0-0.2l0.3-0.8c0-0.1,0-0.2,0.1-0.3l-0.1-0.2c-0.1-0.4-0.2-0.6-0.2-1
		c0-0.5,0.3-1,0.8-1.2c0.3-0.2,0.6-0.2,0.8,0c0.3,0.2,0.2,0.5,0.1,0.7C21.2,3.8,21,4,20.7,4.5c0,0.1,0,0.2,0,0.2
		c0.2,0.4,0.6,1.1,0.8,1.4c0,0,0,0,0.1,0c0,0,0.1,0,0.1,0C21.8,6,22,5.9,22.2,5.8c0.2-0.1,0.8-0.7,1.2-1.1
		C23.4,4.6,23.5,4.6,23.5,4.7C23.5,4.7,23.5,4.7,23.5,4.7z M21,7.3C21,7.2,21,7.1,20.9,7c-0.1,0-0.2,0.1-0.3,0.2
		c-0.4,0.3-0.7,0.6-0.9,1c-0.1,0.3-0.1,0.5,0,0.6c0.2,0.1,0.3,0.2,0.6,0.1c0.3-0.1,0.5-0.2,0.6-0.4C21.1,8,21.1,7.7,21,7.3z
		 M21.1,3.3c0.1-0.3,0.1-0.5,0-0.6c-0.4-0.2-0.7,0.5-0.8,0.9c-0.1,0.3,0.1,0.6,0.2,0.6C20.6,4.3,21,3.8,21.1,3.3z"/>
</g>
</svg>
