<svg width="257" height="70" viewBox="0 0 257 70" fill="none" xmlns="http://www.w3.org/2000/svg">
<path d="M41.2641 45.7957C42.6209 45.9777 44.0414 45.5507 45.0872 44.7596C46.1331 43.7795 46.5713 43.2894 47.0589 42.8624C48.9104 41.3362 50.2037 39.439 51.5605 37.5418C51.7442 37.0518 52.0552 36.6247 51.9916 36.1347C51.9916 36.0157 51.8714 35.8897 51.7442 35.8897C51.6241 35.8267 51.3767 35.8267 51.3767 35.8897L49.3415 38.704C48.4793 39.9851 46.8116 41.4552 45.3346 42.9184C43.6032 44.4445 40.7694 44.9976 40.7694 42.4913C40.7694 37.7869 42.1898 26.5997 43.4831 17.3097C43.4831 16.9457 43.7304 16.7567 44.0979 16.7567C47.6172 16.7567 50.9457 16.0216 51.5605 15.5316C52.3025 14.9225 51.9916 14.1244 51.193 14.3694C50.5146 14.5515 47.7373 15.0415 44.4654 14.8595C44.0979 14.8595 43.8506 14.4955 43.9071 14.1244L44.1544 12.1712C44.4654 10.155 44.8964 7.64875 45.0802 6.1226C45.2639 4.84146 45.6385 3.37131 45.4477 2.09018C45.4477 1.66314 45.0166 1.35511 44.7692 1.23609C44.3382 1.05407 43.7799 0.746043 43.3488 1.05407C43.1651 1.18009 42.9177 1.36211 42.7905 1.54413C42.2322 2.2792 41.8012 3.07028 41.6174 3.92437C41.0026 6.06659 40.1334 10.4 39.455 13.3963C39.3914 13.7044 39.144 13.8864 38.8402 13.8864C35.3209 13.8234 32.1125 14.6215 30.572 15.0485C25.2647 16.4557 18.8481 19.69 13.0532 21.4052C10.5233 22.1402 8.55166 22.5043 6.38921 21.4052C4.22675 20.3061 3.3646 17.3728 2.81338 15.7206C2.69325 15.2305 1.76749 14.4395 0.898267 14.6215C0.0997136 14.8035 -0.0910912 16.2736 0.0361121 17.0647C0.156248 18.2268 1.32934 21.2792 4.6649 23.2394C6.63655 24.4015 9.47742 23.9114 13.4843 22.6863C17.3711 21.4612 21.9363 19.1439 28.7204 16.8197C31.003 16.0846 35.6954 15.2935 38.4656 15.9026C38.8331 15.9656 38.9603 16.2666 38.9603 16.5747C38.713 17.9818 38.2819 20.5441 37.9144 22.3223C37.1088 26.0537 36.494 28.3709 36.1901 32.1023C36.07 33.3274 35.8226 39.621 36.501 41.3292C37.1936 43.4784 38.5504 45.4947 41.2641 45.7957Z" fill="black"/>
<path d="M55.7641 45.7695C59.6481 45.0209 61.5867 39.3595 63.4071 35.1883C63.4697 35.0599 63.7684 34.5038 64.2548 34.5038C64.4355 34.5038 64.6161 34.6892 64.6161 35.0029C64.6786 36.0582 64.6161 37.1206 64.6161 38.1758C64.6161 38.9245 64.6786 39.7302 64.7412 40.5431C64.8593 42.1616 65.5889 44.4005 67.1661 45.085C69.8968 46.2686 73.2944 45.3346 75.9 41.2276C77.9011 38.1117 80.2704 31.3308 80.4511 30.8317C80.6317 30.2684 80.9375 29.6481 81 28.9636C81 28.714 80.8193 28.4645 80.5762 28.4645C80.3955 28.4003 80.333 28.4003 80.2148 28.4645C79.8535 28.8353 79.6104 29.2773 79.4853 29.8335C78.2694 34.2542 73.7808 43.4665 70.5082 42.5324C69.9037 42.347 69.4173 41.7837 69.4173 40.8497C69.4173 38.0475 69.4173 35.3095 69.4799 32.5715C69.4799 30.083 69.4799 27.5946 69.2992 25.099C69.2992 24.5357 69.056 24.1008 68.8128 23.6088C68.389 23.0455 67.6594 23.1097 67.1731 23.6088C66.2628 24.4787 66.381 25.4128 66.0822 27.345C65.839 27.8442 65.6583 28.3433 65.4152 28.7782C64.7481 30.1472 64.0186 31.5804 63.2334 32.9494C61.1073 36.9994 59.7732 40.4219 57.4108 42.29C56.6187 42.9103 55.104 42.7249 54.8608 41.4201C53.9506 36.9994 54.5551 29.4699 57.7721 24.6783C59.5926 22.0045 61.5936 21.0063 63.4766 21.6266C64.7481 21.8762 62.5039 25.7978 64.0186 25.7978C64.2618 25.7978 64.4424 25.7978 64.8107 25.427C65.4152 24.3717 65.5402 23.6872 65.5402 22.5036C65.5402 21.1988 64.8107 20.0794 63.6017 19.951C60.3291 19.4519 56.5075 21.9403 54.4439 24.8709C50.136 30.9102 49.0452 38.568 50.8031 43.1741C51.6994 44.8996 53.8255 46.1474 55.7641 45.7695Z" fill="black"/>
<path d="M76.3564 59.6442C76.1146 61.5847 75.5138 67.6564 73.4004 67.6564C70.6241 67.6564 71.4736 60.2493 72.4335 56.5422C73.5178 52.3553 75.0234 49.1977 77.0746 45.7341L77.3163 45.6089C77.4338 45.8523 77.4959 46.0957 77.4959 46.3392C77.5028 49.8654 77.0194 54.3583 76.3564 59.6442ZM90.1622 39.3632C89.4992 41.2481 87.9936 43.3693 86.122 42.2148C84.9134 41.4845 86.122 38.9946 87.6276 37.7218C88.5945 36.9359 90.2175 36.4491 90.4592 36.6925C90.5835 36.8107 90.5213 38.3269 90.1622 39.3632ZM96.7371 36.8107C96.0119 36.3865 95.4111 36.0804 94.8102 35.837C95.8323 30.5512 95.6528 24.542 93.5463 21.8713C92.462 20.4733 91.3156 19.6874 89.2644 19.9308C87.4549 20.056 86.0667 21.5096 85.2863 22.7267L84.865 23.3944C84.865 23.3944 84.5059 22.1773 84.3816 21.9339C84.0224 21.1479 83.1177 20.6611 82.2682 21.1479C81.6052 21.6348 81.2461 22.4207 81.0596 23.2762C81.1839 22.9702 79.0706 33.1732 77.8619 37.548C76.7776 41.1924 74.906 45.442 73.6422 48.7804C71.7705 53.8228 70.5688 57.4047 70.0854 62.1411C69.9058 64.0815 69.6641 69.7916 73.3383 69.7916C75.0856 69.7916 76.8951 69.3048 78.6424 65.7855C81.4187 60.2632 81.6605 51.6389 81.9574 46.7217C82.0196 44.7812 83.6426 28.6872 85.1551 25.9539C85.9977 24.4377 87.8071 22.1286 89.3127 22.1286C91.2396 22.1286 91.6609 23.8256 91.4813 27.7761C91.3639 30.6903 91.3018 31.7196 90.7009 34.453C90.6387 34.759 90.4592 35.1206 90.1553 35.1832C86.4742 35.7327 83.5252 39.0711 84.0639 42.347C84.5473 45.6228 89.0088 45.8106 91.9026 42.653C93.1112 41.0742 94.0712 39.0711 94.4925 37.2489C95.0381 37.4297 95.5215 37.6106 95.7564 37.854C96.371 38.3895 97.5175 37.2976 96.7371 36.8107Z" fill="black"/>
<path d="M126.988 30.6193C126.927 30.4931 126.811 30.3739 126.689 30.3739C126.567 30.3108 126.336 30.3739 126.336 30.437C125.746 31.3555 125.209 32.4564 124.558 33.8657C122.779 37.7222 118.808 43.5349 116.969 44.152C115.726 44.5166 114.837 43.8435 114.538 42.5603C113.765 39.0685 115.129 31.9726 115.781 27.9268C115.781 28.046 116.554 22.3525 116.907 19.1131C120.817 19.4216 125.087 18.503 125.739 17.9491C126.452 17.3391 126.153 16.5397 125.386 16.7852C124.619 17.0306 121.001 17.6406 117.152 17.0937L117.389 14.2189L117.566 12.508C117.865 9.8786 119.046 3.87655 119.046 2.15867C119.046 1.54865 118.394 1.17703 118.156 1.05783C117.505 0.749315 116.554 0.994725 116.201 1.54865C115.014 3.20342 113.948 6.87757 113.534 10.1801L113.181 12.1995C113.12 12.6272 112.882 13.9735 112.645 15.6282C110.628 14.5274 109.624 12.9988 109.21 12.0172C108.857 11.0355 108.796 9.81549 109.033 9.19846C109.332 8.46223 108.497 8.39912 107.967 8.39912C106.725 8.39912 105.714 10.0539 106.074 12.2556C106.488 14.5835 108.857 16.7852 112.298 18.0683L111.531 23.0887C110.581 29.0908 108.925 37.0421 110.466 41.3893C111.891 45.5543 115.916 47.0198 118.7 44.8181C121.191 42.8618 124.564 37.1683 126.642 32.0217C126.872 31.4116 127.049 31.1031 126.988 30.6193Z" fill="black"/>
<path d="M137.712 30.0641C137.232 30.1256 136.456 29.4695 136.216 29.1072C135.495 28.0341 135.254 27.4326 135.557 25.6486C135.618 25.3478 135.975 24.6916 136.696 24.5754C137.293 24.4524 137.952 24.9924 138.076 25.7716C138.193 26.3116 138.255 26.7285 138.255 27.4394C138.248 27.7948 138.069 30.0026 137.712 30.0641ZM130.518 42.7161C129.316 42.8939 128.602 39.9684 128.54 39.1345C128.417 37.5214 128.479 33.1058 129.083 30.0641C130.099 25.0539 132.021 22.6069 134.479 22.2446C135.316 22.1284 135.68 23.4408 135.68 23.4408C133.703 24.4524 133.401 26.6055 133.579 28.1571C133.703 29.6472 134.781 31.3765 136.518 32.0395C136.998 32.2172 136.82 33.1126 136.634 33.5296C135.557 36.2773 134.534 38.1844 133.456 40.0367C132.852 41.103 131.657 42.5316 130.518 42.7161ZM131.293 44.3839C133.511 43.3723 134.891 40.1461 136.627 36.6875C137.046 35.8536 138.124 32.7504 138.783 32.3881C140.52 32.0327 143.218 30.8365 145.792 27.9725C145.854 27.8563 146.033 27.6171 145.971 27.4326C145.971 27.2548 146.088 27.0771 145.854 27.0156C145.676 26.7764 145.312 26.7764 145.072 27.0156C144.769 27.2548 144.529 27.6103 143.932 28.0887C142.435 29.3396 141.117 30.235 139.319 30.4196C139.202 30.2965 139.559 28.7449 139.559 27.2548C139.559 26.1817 139.38 25.2248 138.838 24.3294C138.66 24.0286 138.419 23.6732 138.117 23.4955C137.637 23.2562 137.396 22.8393 137.101 22.4223C136.621 21.65 136.202 21.2877 135.303 20.9869C134.946 20.8639 133.984 20.8639 133.504 20.9254C131.884 21.1031 130.264 21.8824 129.131 23.0717C125.836 26.4141 124.936 29.9958 124.215 33.3382C123.913 35.3067 123.858 39.1276 124.518 41.2124C125.424 44.0285 128.602 45.6963 131.293 44.3839Z" fill="black"/>
<path d="M159.426 44.3813C162.105 45.5217 165.439 44.6218 167.996 40.6648C169.959 37.6628 172.284 31.1297 172.461 30.6488C172.639 30.1061 172.939 29.5084 173 28.8489C173 28.6085 172.823 28.368 172.584 28.368C172.407 28.3062 172.345 28.3062 172.23 28.368C171.875 28.7253 171.636 29.1512 171.514 29.687C170.321 33.9462 165.623 43.5982 162.705 41.922C161.458 41.2007 161.635 39.7649 162.167 36.227C162.883 31.7892 163.06 29.8107 163.298 23.1539C163.298 22.5563 162.944 21.9517 162.521 21.5945C162.167 21.2373 160.851 21.3541 160.558 21.8968C160.258 22.4395 159.781 23.1539 159.426 23.6966C157.994 25.7369 156.747 28.9726 156.215 29.9343C154.783 32.5105 152.881 36.0484 151.927 37.8482C150.733 40.0053 150.079 41.0839 148.954 41.6884C148.654 41.867 148.477 41.867 148.177 41.5716C147.761 40.8503 148.115 37.491 148.477 35.5744C149.015 32.9982 150.024 28.0795 150.263 24.5416C150.324 23.8821 150.147 22.3227 149.847 21.5395C149.37 20.7633 148.838 20.8182 148 20.9968C147.168 21.1754 146.868 21.7731 146.752 22.1372C146.097 23.8134 145.204 27.7772 144.904 29.3916C144.188 33.0532 142.941 37.9719 143.002 42.4647C143.002 43.6669 144.488 45.1027 147.052 44.5668C147.59 44.4432 149.077 44.0241 150.086 43.0074C151.217 41.9907 152.111 40.6099 153.12 38.5696C153.713 37.3124 154.074 36.6529 154.783 35.2721C155.56 33.9531 156.569 31.796 157.578 30.532C157.756 30.2916 157.994 30.2297 158.117 30.2916C158.294 30.3534 158.294 30.5938 158.294 30.7724C158.294 35.8079 156.924 38.8718 157.401 41.2075C157.578 42.2243 158.056 43.7219 159.426 44.3813Z" fill="black"/>
<path d="M174.934 21.7855C174.254 21.8479 174.126 20.4551 174.006 19.0068C173.758 16.5884 174.502 13.0751 176.854 13.4423C177.286 13.5602 177.845 14.1076 177.966 14.4679C178.086 15.2579 178.086 16.0409 177.781 16.7062C177.286 18.3415 176.294 20.9401 174.934 21.7855ZM190.581 29.1101C190.397 29.0477 190.333 29.0477 190.213 29.1101C189.845 29.4704 189.717 29.9 189.469 30.4406C186.005 38.368 183.165 43.3295 179.637 42.297C177.718 41.7496 178.277 39.2688 179.269 36.4901C180.077 34.8547 181.989 29.7753 181.557 27.7172C181.429 27.052 180.693 26.5046 180.013 26.5046C178.525 26.5046 176.981 26.6293 175.989 24.9939C175.246 23.906 176.549 22.3953 177.101 21.4252C178.15 19.4919 178.773 18.2168 179.078 16.5814C179.885 12.1673 176.478 11.1348 174.006 12.4098C170.67 14.1007 169.798 21.6054 171.222 24.0861C171.718 24.9939 172.271 25.777 172.951 26.3868C172.334 28.0221 171.406 30.6207 170.103 33.6489C169.919 34.134 169.983 34.5567 170.287 34.7369C170.599 34.8616 171.031 34.6121 171.335 34.0093C172.632 31.1682 173.56 28.8052 173.992 27.2322C174.608 27.5925 175.352 27.835 176.216 28.0152C176.896 28.133 177.456 28.7428 177.016 29.5882L175.841 32.069C174.353 34.7923 172.993 38.4788 173.864 41.5071C174.544 43.8631 177.264 44.7709 178.936 44.8332C182.088 44.951 183.887 43.3226 185.68 40.7171C187.351 38.361 190.255 31.8819 190.44 31.3968C190.624 30.8563 190.935 30.2465 190.999 29.5813C191.013 29.3526 190.829 29.1101 190.581 29.1101Z" fill="black"/>
<path d="M192.793 44.6965C197.249 43.9204 200.306 37.5599 202.139 32.9441C202.447 32.168 202.691 31.7421 202.929 31.0827C203.048 30.7255 203.048 30.2997 202.684 30.1829C202.502 30.1211 202.132 30.1211 201.887 30.7255C200.663 33.8439 198.102 38.5215 197.06 39.7785C195.535 41.6399 194.437 42.5329 193.275 42.5329C192.667 42.5329 191.38 42.1139 191.505 40.3143C191.568 39.4145 192.359 34.9154 192.975 31.6803C193.464 29.0427 194.255 25.0863 194.255 22.6273C194.255 21.0681 192.786 20.2919 191.324 20.9513C191.016 21.0681 190.652 21.8511 190.526 22.1533C190.036 24.3101 189.12 28.9328 188.267 32.5251C187.959 33.8439 187.476 36.4815 187.231 37.8003C186.259 43.0206 188.399 45.4796 192.793 44.6965ZM195.115 14.6527C195.542 14.4123 196.213 13.691 196.213 12.9149C196.213 11.8983 195.668 11.4724 195.178 11.1153C194.199 10.7581 193.345 10.9367 193.044 11.0534C192.492 11.232 191.764 11.7747 191.575 12.3104C191.331 12.7294 191.268 13.691 192.002 14.3504C192.737 15.0167 194.136 15.1953 195.115 14.6527Z" fill="black"/>
<path d="M208.76 43.5341C208.212 44.5104 207.249 45.2984 205.919 45.6052C204.651 45.9678 203.743 45.6679 202.953 44.9985C202.406 44.5104 202.35 43.6596 203.016 42.0139C203.799 40.0055 205.676 38.6038 207.492 37.0836C207.852 36.7768 208.517 36.1701 208.822 36.2956C209.127 36.4142 209.307 36.8465 209.425 37.6973C209.73 39.88 209.91 41.3444 208.76 43.5341ZM206.522 22.1047C206.037 21.9861 205.371 20.3404 205.676 18.9387C206.099 17.1117 207.852 13.5203 209.667 14.4966C210.45 14.922 210.215 15.6542 209.848 17.3C209.245 19.8522 207.187 22.286 206.522 22.1047ZM221.883 24.2385C221.703 23.8132 221.218 23.8759 221.038 24.1758C219.222 26.3027 216.139 29.0432 215.169 29.7755C214.261 30.4449 213.354 30.9958 212.384 31.6025C212.321 31.6653 212.141 31.7838 212.023 31.7211C211.843 31.6583 211.781 31.5397 211.718 31.477C210.506 30.2008 208.51 26.2399 207.547 24.4129C207.367 24.106 207.367 23.6807 207.61 23.318C209.425 20.8216 210.513 19.7895 211.178 17.1117C211.42 16.1982 211.843 14.6779 210.45 13.5203C209.363 12.6068 207.907 12.7324 206.217 13.7017C204.041 14.9778 202.344 17.6556 202.344 19.9708C202.344 22.1047 202.648 23.074 203.369 24.901L203.916 26.1214C203.792 26.6095 203.736 27.0349 203.556 27.6416L201.983 31.9024C201.983 32.2092 201.741 32.4533 202.101 32.6904C202.648 32.9972 202.946 32.4463 203.126 32.0837C203.549 31.0516 204.394 29.1618 204.88 27.8857C206.335 30.3194 207.72 31.9651 208.143 32.9414C208.323 33.304 208.448 33.6736 208.448 34.0362C208.448 34.3989 208.386 34.7684 208.088 35.1311C207.783 35.4379 207.36 35.8633 207 36.1073C205.85 36.9581 204.824 37.9344 203.792 38.9107C202.461 40.2496 200.888 42.5648 201.006 43.7781C201.069 44.7544 201.734 45.7237 202.939 46.3374C203.909 46.8255 205.6 47.0069 206.626 46.6442C208.864 45.912 209.834 45.2426 211.164 43.4155C212.799 41.2816 213.825 38.9107 213.34 35.3193C213.277 34.8312 213.097 34.3431 212.979 33.7991C212.979 33.5551 213.042 33.311 213.16 33.1297C213.464 32.523 214.13 32.1534 214.615 31.7908C215.765 30.9958 218.973 28.0182 221.149 25.8215C221.509 25.3961 221.814 25.0893 221.994 24.5454C222.008 24.4198 222.008 24.2943 221.883 24.2385Z" fill="black"/>
<path d="M255.865 28.4383C254.235 26.7416 252.004 26.8039 249.289 27.5311C245.732 28.4383 240.427 34.9064 236.082 37.8703C231.862 40.8343 225.769 44.6986 223.718 42.8911C220.941 41.2013 223.359 31.7069 223.96 27.5934C224.443 24.5671 224.864 21.43 225.168 18.8885C229.092 19.1932 233.43 18.286 234.093 17.7389C234.818 17.1364 234.514 16.3469 233.734 16.5893C232.946 16.8317 229.334 17.4342 225.41 16.894L225.769 14.4148C225.887 11.0907 227.275 3.83316 227.275 2.14342C227.275 1.54093 226.612 1.1739 226.37 1.05617C225.707 0.75146 224.74 0.993841 224.381 1.54093C223.172 3.17527 222.088 8.43147 221.666 11.7001L221.065 15.6336C218.834 14.4841 217.688 12.912 217.266 11.8871C216.907 10.9176 216.845 9.71262 217.087 9.10321C217.39 8.37607 216.548 8.31374 216.002 8.31374C214.738 8.31374 213.709 9.94808 214.075 12.1226C214.496 14.4771 217.031 16.7209 220.651 17.9259C220.347 19.6779 220.112 21.3123 219.926 22.0948C219.145 25.7859 218.537 28.0782 218.24 31.7693C218.123 32.9812 217.881 39.2069 218.544 40.8966C221.197 49.7262 230.121 44.3454 232.532 42.7734C242.237 36.5476 246.823 30.1973 249.655 29.2277C251.527 28.5006 252.729 28.9854 253.095 30.0172C253.579 31.3468 254.546 33.646 255.872 33.4036C257.495 33.3967 257.254 29.8302 255.865 28.4383Z" fill="black"/>
</svg>
