<svg width="26" height="26" viewBox="0 0 26 26" fill="none" xmlns="http://www.w3.org/2000/svg">
<g clip-path="url(#clip0)">
<path d="M13.4236 0.00504016C6.24855 -0.230788 0.240837 5.3996 0.00500964 12.5747C-0.230818 19.7497 5.39957 25.7574 12.5746 25.9932C19.7497 26.2291 25.7574 20.5987 25.9932 13.4236C26.229 6.24858 20.5987 0.240868 13.4236 0.00504016ZM15.9234 11.9851H19.3075C19.8676 11.9851 20.3216 12.4391 20.3216 12.9991C20.3216 13.5592 19.8676 14.0132 19.3075 14.0132H15.9234C15.3633 14.0132 14.9093 13.5592 14.9093 12.9991C14.9093 12.4391 15.3633 11.9851 15.9234 11.9851ZM12.9814 11.9851C13.5415 11.9851 13.9955 12.4391 13.9955 12.9991C13.9955 13.5592 13.5415 14.0132 12.9814 14.0132C12.4213 14.0132 11.9674 13.5592 11.9674 12.9991C11.9674 12.4391 12.4213 11.9851 12.9814 11.9851ZM6.65535 5.65901C7.21544 5.65901 7.66941 6.11298 7.66941 6.67307C7.66941 7.23316 7.21544 7.68713 6.65535 7.68713C6.09526 7.68713 5.64129 7.23316 5.64129 6.67307C5.64129 6.11298 6.09526 5.65901 6.65535 5.65901ZM6.65535 8.8191H8.38279C8.94288 8.8191 9.39685 9.27307 9.39685 9.83316C9.39685 10.3932 8.94288 10.8472 8.38279 10.8472H6.65535C6.09526 10.8472 5.64129 10.3932 5.64129 9.83316C5.64129 9.27307 6.09526 8.8191 6.65535 8.8191ZM6.65535 11.9851H10.0395C10.5996 11.9851 11.0535 12.4391 11.0535 12.9991C11.0535 13.5592 10.5996 14.0132 10.0395 14.0132H6.65535C6.09526 14.0132 5.64129 13.5592 5.64129 12.9991C5.64129 12.4391 6.09526 11.9851 6.65535 11.9851ZM6.65535 15.1511H9.02542C9.58551 15.1511 10.0395 15.605 10.0395 16.1651C10.0395 16.7252 9.58551 17.1792 9.02542 17.1792H6.65535C6.09526 17.1792 5.64129 16.7252 5.64129 16.1651C5.64129 15.605 6.09526 15.1511 6.65535 15.1511ZM15.0095 20.3452H6.65535C6.09526 20.3452 5.64129 19.8912 5.64129 19.3311C5.64129 18.771 6.09526 18.3171 6.65535 18.3171H15.0154C15.5755 18.3171 16.0295 18.771 16.0295 19.3311C16.0295 19.8912 15.5696 20.3452 15.0095 20.3452ZM19.3429 20.3452H17.9515C17.3914 20.3452 16.9374 19.8912 16.9374 19.3311C16.9374 18.771 17.3914 18.3171 17.9515 18.3171H19.3429C19.903 18.3171 20.3569 18.771 20.3569 19.3311C20.3569 19.8912 19.903 20.3452 19.3429 20.3452ZM19.3429 17.1792C19.3311 17.1792 19.3193 17.1792 19.3075 17.1792H17.1084H16.9374H11.9084C11.3483 17.1792 10.8944 16.7252 10.8944 16.1651C10.8944 15.605 11.3483 15.1511 11.9084 15.1511H16.9374H17.1084H19.3075C19.3193 15.1511 19.3311 15.1511 19.3429 15.1511C19.903 15.1511 20.3569 15.605 20.3569 16.1651C20.3569 16.7252 19.903 17.1792 19.3429 17.1792ZM19.3429 10.8472C19.3311 10.8472 19.3193 10.8472 19.3075 10.8472H17.5683C17.0082 10.8472 16.5542 10.3932 16.5542 9.83316C16.5542 9.27307 17.0082 8.8191 17.5683 8.8191H19.3134C19.3252 8.8191 19.337 8.8191 19.3488 8.8191C19.9089 8.8191 20.3628 9.27307 20.3628 9.83316C20.3628 10.3932 19.903 10.8472 19.3429 10.8472ZM19.3429 7.68713C18.7828 7.68713 18.3288 7.23316 18.3288 6.67307C18.3288 6.11298 18.7828 5.65901 19.3429 5.65901C19.903 5.65901 20.3569 6.11298 20.3569 6.67307C20.3569 7.23316 19.903 7.68713 19.3429 7.68713Z" fill="#E5E5E5"/>
</g>
<defs>
<clipPath id="clip0">
<rect width="26" height="26" fill="white"/>
</clipPath>
</defs>
</svg>
