<svg width="280" height="50" viewBox="0 0 280 50" fill="none" xmlns="http://www.w3.org/2000/svg">
<path d="M50.4245 30.552C50.4245 30.232 50.0405 29.912 49.7205 29.976C49.4005 29.912 49.0805 30.04 49.0165 30.296C48.6325 31.128 48.1845 31.832 47.8645 32.6C47.4805 33.176 47.2245 34.712 44.6005 39.64C43.8325 41.112 42.9365 42.52 41.8485 43.672C39.6725 46.424 37.2405 47.256 35.6405 46.104C34.1685 45.08 34.2325 43.544 35.2565 40.6C35.7045 39.384 36.1525 37.848 36.6005 36.248C36.9205 35.224 37.3685 34.328 37.6245 33.24C37.8165 32.6 37.7525 31.896 37.6245 31.32C37.4965 30.616 36.7285 30.04 36.0245 30.04C35.3845 30.04 34.7445 30.104 34.0405 29.976C33.2085 29.784 32.5685 29.272 32.1845 28.504C31.5445 27.288 33.0165 25.816 33.6565 24.856C34.9365 22.872 35.6405 21.592 36.0885 19.864C37.0485 16.344 35.3205 15.128 33.5925 14.68C33.0805 14.552 32.1845 14.552 31.2245 15.064C28.7925 16.344 27.2565 19.8 27.2565 21.4C27.0005 23.448 26.7445 26.328 27.6405 28.44L27.0005 28.888C25.7205 29.976 24.2485 30.68 22.7125 31.32C19.7685 32.472 16.3765 33.304 12.7285 32.6C10.8725 32.216 8.4405 31.576 7.2885 30.104C3.1285 24.792 5.1125 21.464 4.3445 18.072C4.0885 17.048 3.9605 16.088 2.7445 16.088C2.1685 16.088 1.7845 16.408 1.5285 16.792C1.0165 17.368 0.7605 18.2 0.5685 18.968C0.1845 20.568 0.3765 23.832 1.3365 26.136C2.8085 29.656 4.7285 32.344 11.1925 34.264C16.1205 35.672 21.6885 33.56 25.7205 31.768C26.1685 31.576 27.2565 30.744 28.4085 29.848C28.7925 30.296 29.1765 30.68 29.5605 30.872C30.2645 31.192 30.7765 31.32 32.1845 31.704C32.8885 31.896 33.4005 32.408 32.9525 33.304L31.7365 35.928C30.8405 37.592 29.6885 40.856 29.4965 42.328C29.2405 43.864 29.3685 44.76 29.6885 45.912C30.3925 48.408 33.2085 49.368 34.9365 49.432C36.6645 49.432 39.0965 48.92 40.7605 47.256C41.3365 46.68 41.8485 46.04 42.4245 45.528C43.0005 44.888 43.4485 44.376 43.8965 43.608L45.4965 40.792C49.0165 34.84 49.4005 32.92 50.2965 31.128C50.4245 30.936 50.4885 30.744 50.4245 30.552ZM31.9285 17.496C32.1205 17.048 32.9525 16.088 34.1045 16.408C34.5525 16.536 35.0645 17.176 35.1285 17.56C35.1925 18.392 35.1285 19.224 34.7445 19.928C34.1045 21.592 33.2085 22.68 32.0565 24.28C31.7365 23.832 31.4805 22.872 31.4165 21.272C31.3525 20.12 31.2885 19.096 31.9285 17.496ZM56.073 47.32C60.105 46.296 62.345 43.928 65.033 39.64C65.993 38.04 66.633 36.376 67.145 35.16C67.849 33.496 68.297 32.728 68.681 31.64C68.745 31.32 68.745 31 68.617 30.808C68.553 30.744 68.169 30.424 67.593 31C67.145 31.448 66.825 33.112 65.865 34.968C63.241 40.152 58.185 46.232 54.537 44.888C53.193 44.376 52.553 42.2 52.553 40.792C52.425 39.064 52.489 37.976 52.489 36.696C52.553 35.992 52.809 35.416 53.385 34.968C55.049 33.88 56.969 32.344 58.569 30.936C61.129 28.696 63.945 25.112 61.513 22.616C59.657 20.696 57.289 21.464 54.665 23.32C52.809 24.728 50.505 27.864 49.417 30.68C47.881 34.52 46.857 39.704 48.201 43.544C48.521 44.376 49.353 45.912 50.249 46.488C51.913 47.576 54.857 47.64 56.073 47.32ZM52.681 32.792C52.361 32.6 52.617 31.32 52.745 31C53.385 28.76 53.833 27.352 55.241 25.432C56.073 24.152 57.801 22.488 59.529 23.384C60.617 23.96 61.001 25.496 60.169 26.84C59.273 28.504 57.993 29.464 56.649 30.744C55.369 31.832 53.385 33.24 52.681 32.792ZM87.568 25.56C87.376 25.112 86.864 25.176 86.672 25.496C84.752 27.736 81.488 30.616 80.464 31.384C79.504 32.088 78.544 32.664 77.52 33.304C77.456 33.368 77.264 33.496 77.136 33.432C76.944 33.368 76.88 33.24 76.816 33.176C75.536 31.832 73.424 27.672 72.4 25.752C72.208 25.432 72.208 24.984 72.464 24.6C74.384 21.976 75.536 20.888 76.24 18.072C76.496 17.112 76.944 15.512 75.472 14.296C74.32 13.336 72.784 13.464 70.992 14.488C68.688 15.832 66.896 18.648 66.896 21.08C66.896 23.32 67.216 24.344 67.984 26.264L68.56 27.544C68.432 28.056 68.368 28.504 68.176 29.144L66.512 33.624C66.512 33.944 66.256 34.2 66.64 34.456C67.216 34.776 67.536 34.2 67.728 33.816C68.176 32.728 69.072 30.744 69.584 29.4C71.12 31.96 72.592 33.688 73.04 34.712C73.232 35.096 73.36 35.48 73.36 35.864C73.36 36.248 73.296 36.632 72.976 37.016C72.656 37.336 72.208 37.784 71.824 38.04C70.608 38.936 69.52 39.96 68.432 40.984C67.024 42.392 65.36 44.824 65.488 46.104C65.552 47.128 66.256 48.152 67.536 48.792C68.56 49.304 70.352 49.496 71.44 49.112C73.808 48.344 74.832 47.64 76.24 45.72C77.968 43.48 79.056 40.984 78.544 37.208C78.48 36.696 78.288 36.184 78.16 35.608C78.16 35.352 78.224 35.096 78.352 34.904C78.672 34.264 79.376 33.88 79.888 33.496C81.104 32.664 84.496 29.528 86.8 27.224C87.184 26.776 87.504 26.456 87.696 25.88C87.696 25.752 87.696 25.624 87.568 25.56ZM71.312 23.32C70.8 23.192 70.096 21.464 70.416 19.992C70.864 18.072 72.72 14.296 74.64 15.32C75.472 15.768 75.216 16.536 74.832 18.264C74.192 20.952 72.016 23.512 71.312 23.32ZM73.68 45.848C73.104 46.872 72.08 47.704 70.672 48.024C69.328 48.408 68.368 48.088 67.536 47.384C66.96 46.872 66.896 45.976 67.6 44.248C68.432 42.136 70.416 40.664 72.336 39.064C72.72 38.744 73.424 38.104 73.744 38.232C74.064 38.36 74.256 38.808 74.384 39.704C74.704 42.008 74.896 43.544 73.68 45.848ZM90.1355 47.32C94.1675 46.296 96.4075 43.928 99.0955 39.64C100.056 38.04 100.696 36.376 101.208 35.16C101.912 33.496 102.36 32.728 102.744 31.64C102.808 31.32 102.808 31 102.68 30.808C102.616 30.744 102.232 30.424 101.656 31C101.208 31.448 100.888 33.112 99.9275 34.968C97.3035 40.152 92.2475 46.232 88.5995 44.888C87.2555 44.376 86.6155 42.2 86.6155 40.792C86.4875 39.064 86.5515 37.976 86.5515 36.696C86.6155 35.992 86.8715 35.416 87.4475 34.968C89.1115 33.88 91.0315 32.344 92.6315 30.936C95.1915 28.696 98.0075 25.112 95.5755 22.616C93.7195 20.696 91.3515 21.464 88.7275 23.32C86.8715 24.728 84.5675 27.864 83.4795 30.68C81.9435 34.52 80.9195 39.704 82.2635 43.544C82.5835 44.376 83.4155 45.912 84.3115 46.488C85.9755 47.576 88.9195 47.64 90.1355 47.32ZM86.7435 32.792C86.4235 32.6 86.6795 31.32 86.8075 31C87.4475 28.76 87.8955 27.352 89.3035 25.432C90.1355 24.152 91.8635 22.488 93.5915 23.384C94.6795 23.96 95.0635 25.496 94.2315 26.84C93.3355 28.504 92.0555 29.464 90.7115 30.744C89.4315 31.832 87.4475 33.24 86.7435 32.792ZM120.991 30.232C120.799 30.168 120.735 30.168 120.607 30.232C120.223 30.616 120.095 31.064 119.839 31.64C116.255 40.024 113.311 45.272 109.663 44.184C107.679 43.608 108.255 40.984 109.279 38.04C110.111 36.312 112.095 30.936 111.647 28.76C111.519 28.056 110.751 27.48 110.047 27.48C108.51 27.48 106.911 27.608 105.887 25.88C105.119 24.728 106.463 23.128 107.039 22.104C108.127 20.056 108.767 18.712 109.087 16.984C109.919 12.312 106.399 11.224 103.839 12.568C100.383 14.36 99.4865 22.296 100.959 24.92C101.471 25.88 102.047 26.712 102.751 27.352C102.111 29.08 101.151 31.832 99.8065 35.032C99.6145 35.544 99.6785 35.992 99.9985 36.184C100.319 36.312 100.767 36.056 101.087 35.416C102.431 32.408 103.391 29.912 103.839 28.248C104.479 28.632 105.247 28.888 106.143 29.08C106.847 29.208 107.423 29.848 106.975 30.744L105.759 33.368C104.223 36.248 102.815 40.152 103.711 43.352C104.415 45.848 107.231 46.808 108.959 46.872C112.223 47 114.079 45.272 115.935 42.52C117.663 40.024 120.671 33.176 120.863 32.664C121.055 32.088 121.375 31.448 121.439 30.744C121.439 30.488 121.247 30.232 120.991 30.232ZM104.799 22.488C104.095 22.552 103.967 21.08 103.839 19.544C103.583 16.984 104.351 13.272 106.783 13.656C107.231 13.784 107.807 14.36 107.935 14.744C108.062 15.576 108.062 16.408 107.743 17.112C107.231 18.84 106.207 21.592 104.799 22.488ZM122.275 47.832C123.427 48.024 124.387 47.96 125.347 47.384C126.627 46.616 128.611 43.8 129.443 42.392C130.467 40.728 133.219 35.224 133.859 33.816C134.307 32.92 134.819 32.152 134.819 32.152C135.458 32.728 137.315 34.072 138.787 34.392C143.203 35.416 146.979 31.832 147.299 29.656C147.363 29.144 146.531 28.568 146.083 29.464C145.123 31.32 142.371 33.368 139.619 32.6C137.827 32.088 136.675 30.488 135.907 28.888C135.843 28.76 135.843 28.504 135.971 28.312C137.378 25.432 137.955 20.76 137.443 17.88C137.187 16.28 135.843 14.424 134.179 15.128C131.619 15.896 130.211 18.776 130.083 21.592C129.955 23.768 130.211 25.688 130.851 27.48C131.363 28.696 132.643 30.552 133.667 31.384C133.155 32.6 132.387 34.136 131.747 35.352C131.363 35.992 129.443 40.024 127.587 42.712C126.947 43.672 126.371 44.376 125.603 45.208C125.283 45.528 124.579 45.72 124.195 44.952C124.003 44.568 123.939 44.248 123.939 43.928C123.619 39.32 124.899 26.072 124.899 23.832C124.899 23.512 124.835 22.168 124.323 21.848C123.939 21.592 123.043 21.528 122.723 21.592C121.891 21.72 121.763 21.912 121.379 22.296C120.995 22.744 120.803 23.512 120.355 26.52C119.971 28.376 119.331 34.392 118.947 37.08C118.947 37.08 118.37 41.624 118.947 44.696C119.139 46.04 120.803 47.576 122.275 47.832ZM135.139 26.456C134.883 26.584 134.691 26.2 134.562 25.944C133.987 24.6 133.731 22.744 133.539 21.464C133.283 19.672 133.731 15.448 135.523 16.792C136.547 17.56 136.483 19.48 136.483 21.016C136.419 22.552 136.227 23.96 135.779 25.368C135.651 25.752 135.395 26.328 135.139 26.456ZM148.137 47.448C152.233 46.68 154.281 40.856 156.201 36.568C156.265 36.44 156.585 35.864 157.097 35.864C157.289 35.864 157.481 36.056 157.481 36.376C157.545 37.464 157.481 38.552 157.481 39.64C157.481 40.408 157.545 41.24 157.609 42.072C157.737 43.736 158.505 46.04 160.169 46.744C163.049 47.96 166.633 47 169.385 42.776C171.497 39.576 173.993 32.6 174.185 32.088C174.377 31.512 174.697 30.872 174.761 30.168C174.761 29.912 174.569 29.656 174.312 29.656C174.121 29.592 174.057 29.592 173.929 29.656C173.545 30.04 173.289 30.488 173.161 31.064C171.881 35.608 167.145 45.08 163.689 44.12C163.049 43.928 162.537 43.352 162.537 42.392C162.537 39.512 162.537 36.696 162.601 33.88C162.601 31.32 162.601 28.76 162.409 26.2C162.409 25.624 162.153 25.176 161.897 24.664C161.449 24.088 160.681 24.152 160.169 24.664C159.208 25.56 159.337 26.52 159.017 28.504C158.76 29.016 158.569 29.528 158.312 29.976C157.609 31.384 156.841 32.856 156.009 34.264C153.769 38.424 152.361 41.944 149.865 43.864C149.033 44.504 147.433 44.312 147.177 42.968C146.217 38.424 146.857 30.68 150.249 25.752C152.169 23 154.281 21.976 156.265 22.616C157.609 22.872 155.241 26.904 156.841 26.904C157.097 26.904 157.289 26.904 157.673 26.52C158.312 25.432 158.441 24.728 158.441 23.512C158.441 22.168 157.673 21.016 156.393 20.888C152.937 20.376 148.905 22.936 146.729 25.944C142.184 32.152 141.032 40.024 142.889 44.76C143.849 46.552 146.089 47.832 148.137 47.448ZM204.2 31.768C204.007 31.704 203.624 31.704 203.368 32.344C202.088 35.672 199.4 40.024 197.928 41.496C196.904 42.52 195.048 44.248 193.832 44.248C193.192 44.248 191.848 43.8 191.976 41.88C192.04 40.92 192.872 36.824 193.512 33.368C194.024 30.552 194.856 27.608 194.856 24.984C194.856 23.32 193.32 22.488 191.784 23.192C191.464 23.32 191.08 24.152 190.952 24.472C190.44 26.648 189.608 29.976 188.712 33.624C188.52 34.072 188.264 34.584 188.008 35.096C186.088 39.128 181.8 45.208 179.816 45.848C178.472 46.232 177.512 45.528 177.192 44.184C176.36 40.536 177.832 33.112 178.536 28.888C178.536 29.08 179.432 22.168 179.752 20.312C184.104 20.696 190.12 19.736 195.176 16.216C195.944 15.704 195.304 14.744 194.536 15.128C189.928 17.432 184.232 18.776 179.944 18.2C180.52 13.464 182.056 3.48 182.056 1.944C182.056 1.304 181.352 0.919998 181.095 0.791996C180.392 0.471996 179.368 0.727997 178.984 1.304C177.704 3.032 176.552 8.6 176.104 12.056L175.272 16.728C173.032 15.576 171.88 13.976 171.431 12.888C171.047 11.864 170.983 10.584 171.239 9.944C171.559 9.176 170.663 9.112 170.087 9.112C168.743 9.112 167.655 10.84 168.039 13.144C168.487 15.64 171.111 17.944 174.888 19.288C174.696 20.504 174.504 21.912 174.248 23.064C173.032 28.76 171.111 38.488 172.776 42.968C174.312 47.32 178.664 48.856 181.672 46.552C183.464 45.208 185.64 42.136 187.624 38.616C187.56 38.808 187.56 39 187.496 39.192C187.112 41.24 186.408 43.992 187.496 45.208C189.096 47 191.08 47.192 193.32 46.552C197.928 45.208 201.704 38.936 203.624 34.712C204.007 33.88 204.2 33.432 204.456 32.728C204.583 32.344 204.583 31.896 204.2 31.768ZM209.746 46.808C212.114 45.72 213.586 42.264 215.442 38.552C215.89 37.656 217.042 34.328 217.746 33.944C219.602 33.56 222.482 32.28 225.234 29.208C225.298 29.08 225.49 28.824 225.426 28.632C225.426 28.44 225.554 28.248 225.298 28.184C225.106 27.928 224.722 27.928 224.466 28.184C224.146 28.44 223.89 28.824 223.25 29.336C221.65 30.68 220.242 31.64 218.322 31.832C218.194 31.704 218.578 30.04 218.578 28.44C218.578 27.288 218.385 26.264 217.81 25.304C217.618 24.984 217.362 24.6 217.042 24.408C216.53 24.152 216.274 23.704 215.954 23.256C215.442 22.424 214.994 22.04 214.034 21.72C213.65 21.592 212.626 21.592 212.114 21.656C210.385 21.848 208.658 22.68 207.442 23.96C203.922 27.544 202.962 31.384 202.194 34.968C201.873 37.08 201.809 41.176 202.514 43.416C203.474 46.424 206.866 48.216 209.746 46.808ZM208.914 45.016C207.634 45.208 206.866 42.072 206.802 41.176C206.674 39.448 206.738 34.712 207.378 31.448C208.466 26.072 210.514 23.448 213.138 23.064C214.034 22.936 214.418 24.344 214.418 24.344C212.306 25.432 211.986 27.736 212.178 29.4C212.306 31 213.458 32.856 215.314 33.56C215.826 33.752 215.634 34.712 215.442 35.16C214.29 38.104 213.202 40.152 212.05 42.136C211.41 43.288 210.13 44.824 208.914 45.016ZM216.594 31.448C216.082 31.512 215.25 30.808 214.994 30.424C214.226 29.272 213.97 28.632 214.29 26.712C214.354 26.392 214.738 25.688 215.506 25.56C216.146 25.432 216.85 26.008 216.978 26.84C217.106 27.416 217.17 27.864 217.17 28.632C217.17 29.016 216.978 31.384 216.594 31.448ZM239.931 47.32C244.539 49.688 250.171 47.128 252.859 45.656C263.547 39.704 268.795 33.304 271.867 32.408C273.915 31.768 275.131 32.408 275.451 33.56C275.707 34.392 276.219 35.416 276.667 36.312C276.923 36.952 277.435 37.336 278.203 37.336C278.651 37.336 279.163 36.952 279.483 36.44C279.867 35.608 279.803 34.648 279.355 33.752C279.099 33.304 278.779 32.856 278.459 32.472C276.795 30.552 274.491 30.424 271.611 31C267.771 31.768 261.691 37.848 257.019 40.664C252.283 43.544 246.139 46.168 243.387 45.208C239.867 43.224 242.299 35.992 242.875 31.512C243.067 29.528 243.387 25.944 242.811 24.792C242.171 23.512 240.763 22.168 239.355 22.552C236.475 23.384 235.643 24.28 233.595 26.712C232.315 27.992 231.355 29.976 229.947 31.128C229.243 31.832 228.859 31.576 228.859 30.232C228.859 27.672 228.987 25.944 228.987 23.064C228.987 22.488 228.603 21.464 226.747 21.336C226.107 21.272 225.083 21.528 224.827 22.936C224.123 26.456 223.803 29.912 222.971 36.76C222.715 39.064 222.075 41.496 221.755 44.184C221.627 45.592 221.37 46.104 222.203 47.128C222.843 47.96 224.699 48.088 225.211 47.192C225.723 46.488 225.979 45.784 226.171 44.888C226.299 44.376 227.003 41.368 227.195 40.984C227.643 39.768 228.219 37.912 228.859 36.76C230.01 34.84 232.123 30.936 233.531 29.272C234.427 28.12 235.963 26.456 237.435 25.304C238.267 24.92 239.227 25.24 239.227 26.392C239.355 26.968 238.587 30.488 238.267 31.576C236.667 37.528 236.475 40.152 237.115 43.288C237.435 44.952 238.971 46.744 239.931 47.32Z" fill="black"/>
</svg>
