<svg width="299" height="50" viewBox="0 0 299 50" fill="none" xmlns="http://www.w3.org/2000/svg">
<path d="M50.112 30.552C50.112 30.232 49.728 29.912 49.408 29.976C49.088 29.912 48.768 30.04 48.704 30.296C48.32 31.128 47.872 31.832 47.552 32.6C47.168 33.176 46.912 34.712 44.288 39.64C43.52 41.112 42.624 42.52 41.536 43.672C39.36 46.424 36.928 47.256 35.328 46.104C33.856 45.08 33.92 43.544 34.944 40.6C35.392 39.384 35.84 37.848 36.288 36.248C36.608 35.224 37.056 34.328 37.312 33.24C37.504 32.6 37.44 31.896 37.312 31.32C37.184 30.616 36.416 30.04 35.712 30.04C35.072 30.04 34.432 30.104 33.728 29.976C32.896 29.784 32.256 29.272 31.872 28.504C31.232 27.288 32.704 25.816 33.344 24.856C34.624 22.872 35.328 21.592 35.776 19.864C36.736 16.344 35.008 15.128 33.28 14.68C32.768 14.552 31.872 14.552 30.912 15.064C28.48 16.344 26.944 19.8 26.944 21.4C26.688 23.448 26.432 26.328 27.328 28.44L26.688 28.888C25.408 29.976 23.936 30.68 22.4 31.32C19.456 32.472 16.064 33.304 12.416 32.6C10.56 32.216 8.128 31.576 6.976 30.104C2.816 24.792 4.8 21.464 4.032 18.072C3.776 17.048 3.648 16.088 2.432 16.088C1.856 16.088 1.472 16.408 1.216 16.792C0.704 17.368 0.448 18.2 0.256 18.968C-0.128 20.568 0.064 23.832 1.024 26.136C2.496 29.656 4.416 32.344 10.88 34.264C15.808 35.672 21.376 33.56 25.408 31.768C25.856 31.576 26.944 30.744 28.096 29.848C28.48 30.296 28.864 30.68 29.248 30.872C29.952 31.192 30.464 31.32 31.872 31.704C32.576 31.896 33.088 32.408 32.64 33.304L31.424 35.928C30.528 37.592 29.376 40.856 29.184 42.328C28.928 43.864 29.056 44.76 29.376 45.912C30.08 48.408 32.896 49.368 34.624 49.432C36.352 49.432 38.784 48.92 40.448 47.256C41.024 46.68 41.536 46.04 42.112 45.528C42.688 44.888 43.136 44.376 43.584 43.608L45.184 40.792C48.704 34.84 49.088 32.92 49.984 31.128C50.112 30.936 50.176 30.744 50.112 30.552ZM31.616 17.496C31.808 17.048 32.64 16.088 33.792 16.408C34.24 16.536 34.752 17.176 34.816 17.56C34.88 18.392 34.816 19.224 34.432 19.928C33.792 21.592 32.896 22.68 31.744 24.28C31.424 23.832 31.168 22.872 31.104 21.272C31.04 20.12 30.976 19.096 31.616 17.496ZM55.7605 47.32C59.7925 46.296 62.0325 43.928 64.7205 39.64C65.6805 38.04 66.3205 36.376 66.8325 35.16C67.5365 33.496 67.9845 32.728 68.3685 31.64C68.4325 31.32 68.4325 31 68.3045 30.808C68.2405 30.744 67.8565 30.424 67.2805 31C66.8325 31.448 66.5125 33.112 65.5525 34.968C62.9285 40.152 57.8725 46.232 54.2245 44.888C52.8805 44.376 52.2405 42.2 52.2405 40.792C52.1125 39.064 52.1765 37.976 52.1765 36.696C52.2405 35.992 52.4965 35.416 53.0725 34.968C54.7365 33.88 56.6565 32.344 58.2565 30.936C60.8165 28.696 63.6325 25.112 61.2005 22.616C59.3445 20.696 56.9765 21.464 54.3525 23.32C52.4965 24.728 50.1925 27.864 49.1045 30.68C47.5685 34.52 46.5445 39.704 47.8885 43.544C48.2085 44.376 49.0405 45.912 49.9365 46.488C51.6005 47.576 54.5445 47.64 55.7605 47.32ZM52.3685 32.792C52.0485 32.6 52.3045 31.32 52.4325 31C53.0725 28.76 53.5205 27.352 54.9285 25.432C55.7605 24.152 57.4885 22.488 59.2165 23.384C60.3045 23.96 60.6885 25.496 59.8565 26.84C58.9605 28.504 57.6805 29.464 56.3365 30.744C55.0565 31.832 53.0725 33.24 52.3685 32.792ZM87.2555 25.56C87.0635 25.112 86.5515 25.176 86.3595 25.496C84.4395 27.736 81.1755 30.616 80.1515 31.384C79.1915 32.088 78.2315 32.664 77.2075 33.304C77.1435 33.368 76.9515 33.496 76.8235 33.432C76.6315 33.368 76.5675 33.24 76.5035 33.176C75.2235 31.832 73.1115 27.672 72.0875 25.752C71.8955 25.432 71.8955 24.984 72.1515 24.6C74.0715 21.976 75.2235 20.888 75.9275 18.072C76.1835 17.112 76.6315 15.512 75.1595 14.296C74.0075 13.336 72.4715 13.464 70.6795 14.488C68.3755 15.832 66.5835 18.648 66.5835 21.08C66.5835 23.32 66.9035 24.344 67.6715 26.264L68.2475 27.544C68.1195 28.056 68.0555 28.504 67.8635 29.144L66.1995 33.624C66.1995 33.944 65.9435 34.2 66.3275 34.456C66.9035 34.776 67.2235 34.2 67.4155 33.816C67.8635 32.728 68.7595 30.744 69.2715 29.4C70.8075 31.96 72.2795 33.688 72.7275 34.712C72.9195 35.096 73.0475 35.48 73.0475 35.864C73.0475 36.248 72.9835 36.632 72.6635 37.016C72.3435 37.336 71.8955 37.784 71.5115 38.04C70.2955 38.936 69.2075 39.96 68.1195 40.984C66.7115 42.392 65.0475 44.824 65.1755 46.104C65.2395 47.128 65.9435 48.152 67.2235 48.792C68.2475 49.304 70.0395 49.496 71.1275 49.112C73.4955 48.344 74.5195 47.64 75.9275 45.72C77.6555 43.48 78.7435 40.984 78.2315 37.208C78.1675 36.696 77.9755 36.184 77.8475 35.608C77.8475 35.352 77.9115 35.096 78.0395 34.904C78.3595 34.264 79.0635 33.88 79.5755 33.496C80.7915 32.664 84.1835 29.528 86.4875 27.224C86.8715 26.776 87.1915 26.456 87.3835 25.88C87.3835 25.752 87.3835 25.624 87.2555 25.56ZM70.9995 23.32C70.4875 23.192 69.7835 21.464 70.1035 19.992C70.5515 18.072 72.4075 14.296 74.3275 15.32C75.1595 15.768 74.9035 16.536 74.5195 18.264C73.8795 20.952 71.7035 23.512 70.9995 23.32ZM73.3675 45.848C72.7915 46.872 71.7675 47.704 70.3595 48.024C69.0155 48.408 68.0555 48.088 67.2235 47.384C66.6475 46.872 66.5835 45.976 67.2875 44.248C68.1195 42.136 70.1035 40.664 72.0235 39.064C72.4075 38.744 73.1115 38.104 73.4315 38.232C73.7515 38.36 73.9435 38.808 74.0715 39.704C74.3915 42.008 74.5835 43.544 73.3675 45.848ZM89.823 47.32C93.855 46.296 96.095 43.928 98.783 39.64C99.743 38.04 100.383 36.376 100.895 35.16C101.599 33.496 102.047 32.728 102.431 31.64C102.495 31.32 102.495 31 102.367 30.808C102.303 30.744 101.919 30.424 101.343 31C100.895 31.448 100.575 33.112 99.615 34.968C96.991 40.152 91.935 46.232 88.287 44.888C86.943 44.376 86.303 42.2 86.303 40.792C86.175 39.064 86.239 37.976 86.239 36.696C86.303 35.992 86.559 35.416 87.135 34.968C88.799 33.88 90.719 32.344 92.319 30.936C94.879 28.696 97.695 25.112 95.263 22.616C93.407 20.696 91.039 21.464 88.415 23.32C86.559 24.728 84.255 27.864 83.167 30.68C81.631 34.52 80.607 39.704 81.951 43.544C82.271 44.376 83.103 45.912 83.999 46.488C85.663 47.576 88.607 47.64 89.823 47.32ZM86.431 32.792C86.111 32.6 86.367 31.32 86.495 31C87.135 28.76 87.583 27.352 88.991 25.432C89.823 24.152 91.551 22.488 93.279 23.384C94.367 23.96 94.751 25.496 93.919 26.84C93.023 28.504 91.743 29.464 90.399 30.744C89.119 31.832 87.135 33.24 86.431 32.792ZM120.678 30.232C120.486 30.168 120.422 30.168 120.294 30.232C119.91 30.616 119.782 31.064 119.526 31.64C115.942 40.024 112.998 45.272 109.35 44.184C107.366 43.608 107.942 40.984 108.966 38.04C109.798 36.312 111.782 30.936 111.334 28.76C111.206 28.056 110.438 27.48 109.734 27.48C108.198 27.48 106.598 27.608 105.574 25.88C104.806 24.728 106.15 23.128 106.726 22.104C107.814 20.056 108.454 18.712 108.774 16.984C109.606 12.312 106.086 11.224 103.526 12.568C100.07 14.36 99.174 22.296 100.646 24.92C101.158 25.88 101.734 26.712 102.438 27.352C101.798 29.08 100.838 31.832 99.494 35.032C99.302 35.544 99.366 35.992 99.686 36.184C100.006 36.312 100.454 36.056 100.774 35.416C102.118 32.408 103.078 29.912 103.526 28.248C104.166 28.632 104.934 28.888 105.83 29.08C106.534 29.208 107.11 29.848 106.662 30.744L105.446 33.368C103.91 36.248 102.502 40.152 103.398 43.352C104.102 45.848 106.918 46.808 108.646 46.872C111.91 47 113.766 45.272 115.622 42.52C117.35 40.024 120.358 33.176 120.55 32.664C120.742 32.088 121.062 31.448 121.126 30.744C121.126 30.488 120.934 30.232 120.678 30.232ZM104.486 22.488C103.782 22.552 103.654 21.08 103.526 19.544C103.27 16.984 104.038 13.272 106.47 13.656C106.918 13.784 107.494 14.36 107.622 14.744C107.75 15.576 107.75 16.408 107.43 17.112C106.918 18.84 105.894 21.592 104.486 22.488ZM121.962 47.832C123.114 48.024 124.074 47.96 125.034 47.384C126.314 46.616 128.298 43.8 129.13 42.392C130.154 40.728 132.906 35.224 133.546 33.816C133.994 32.92 134.506 32.152 134.506 32.152C135.146 32.728 137.002 34.072 138.474 34.392C142.89 35.416 146.666 31.832 146.986 29.656C147.05 29.144 146.218 28.568 145.77 29.464C144.81 31.32 142.058 33.368 139.306 32.6C137.514 32.088 136.362 30.488 135.594 28.888C135.53 28.76 135.53 28.504 135.658 28.312C137.066 25.432 137.642 20.76 137.13 17.88C136.874 16.28 135.53 14.424 133.866 15.128C131.306 15.896 129.898 18.776 129.77 21.592C129.642 23.768 129.898 25.688 130.538 27.48C131.05 28.696 132.33 30.552 133.354 31.384C132.842 32.6 132.074 34.136 131.434 35.352C131.05 35.992 129.13 40.024 127.274 42.712C126.634 43.672 126.058 44.376 125.29 45.208C124.97 45.528 124.266 45.72 123.882 44.952C123.69 44.568 123.626 44.248 123.626 43.928C123.306 39.32 124.586 26.072 124.586 23.832C124.586 23.512 124.522 22.168 124.01 21.848C123.626 21.592 122.73 21.528 122.41 21.592C121.578 21.72 121.45 21.912 121.066 22.296C120.682 22.744 120.49 23.512 120.042 26.52C119.658 28.376 119.018 34.392 118.634 37.08C118.634 37.08 118.058 41.624 118.634 44.696C118.826 46.04 120.49 47.576 121.962 47.832ZM134.826 26.456C134.57 26.584 134.378 26.2 134.25 25.944C133.674 24.6 133.418 22.744 133.226 21.464C132.97 19.672 133.418 15.448 135.21 16.792C136.234 17.56 136.17 19.48 136.17 21.016C136.106 22.552 135.914 23.96 135.466 25.368C135.338 25.752 135.082 26.328 134.826 26.456ZM147.824 47.448C151.92 46.68 153.968 40.856 155.888 36.568C155.952 36.44 156.272 35.864 156.784 35.864C156.976 35.864 157.168 36.056 157.168 36.376C157.232 37.464 157.168 38.552 157.168 39.64C157.168 40.408 157.232 41.24 157.296 42.072C157.424 43.736 158.192 46.04 159.856 46.744C162.736 47.96 166.32 47 169.072 42.776C171.184 39.576 173.68 32.6 173.872 32.088C174.064 31.512 174.384 30.872 174.448 30.168C174.448 29.912 174.256 29.656 174 29.656C173.808 29.592 173.744 29.592 173.616 29.656C173.232 30.04 172.976 30.488 172.848 31.064C171.568 35.608 166.832 45.08 163.376 44.12C162.736 43.928 162.224 43.352 162.224 42.392C162.224 39.512 162.224 36.696 162.288 33.88C162.288 31.32 162.288 28.76 162.096 26.2C162.096 25.624 161.84 25.176 161.584 24.664C161.136 24.088 160.368 24.152 159.856 24.664C158.896 25.56 159.024 26.52 158.704 28.504C158.448 29.016 158.256 29.528 158 29.976C157.296 31.384 156.528 32.856 155.696 34.264C153.456 38.424 152.048 41.944 149.552 43.864C148.72 44.504 147.12 44.312 146.864 42.968C145.904 38.424 146.544 30.68 149.936 25.752C151.856 23 153.968 21.976 155.952 22.616C157.296 22.872 154.928 26.904 156.528 26.904C156.784 26.904 156.976 26.904 157.36 26.52C158 25.432 158.128 24.728 158.128 23.512C158.128 22.168 157.36 21.016 156.08 20.888C152.624 20.376 148.592 22.936 146.416 25.944C141.872 32.152 140.72 40.024 142.576 44.76C143.536 46.552 145.776 47.832 147.824 47.448ZM203.887 31.768C203.695 31.704 203.311 31.704 203.055 32.344C201.775 35.672 199.087 40.024 197.615 41.496C196.591 42.52 194.735 44.248 193.519 44.248C192.879 44.248 191.535 43.8 191.663 41.88C191.727 40.92 192.559 36.824 193.199 33.368C193.711 30.552 194.543 27.608 194.543 24.984C194.543 23.32 193.007 22.488 191.471 23.192C191.151 23.32 190.767 24.152 190.639 24.472C190.127 26.648 189.295 29.976 188.399 33.624C188.207 34.072 187.951 34.584 187.695 35.096C185.775 39.128 181.487 45.208 179.503 45.848C178.159 46.232 177.199 45.528 176.879 44.184C176.047 40.536 177.519 33.112 178.223 28.888C178.223 29.08 179.119 22.168 179.439 20.312C183.791 20.696 189.807 19.736 194.863 16.216C195.631 15.704 194.991 14.744 194.223 15.128C189.615 17.432 183.919 18.776 179.631 18.2C180.207 13.464 181.743 3.48 181.743 1.944C181.743 1.304 181.039 0.919998 180.783 0.791996C180.079 0.471996 179.055 0.727997 178.671 1.304C177.391 3.032 176.239 8.6 175.791 12.056L174.959 16.728C172.719 15.576 171.567 13.976 171.119 12.888C170.735 11.864 170.671 10.584 170.927 9.944C171.247 9.176 170.351 9.112 169.775 9.112C168.431 9.112 167.343 10.84 167.727 13.144C168.175 15.64 170.799 17.944 174.575 19.288C174.383 20.504 174.191 21.912 173.935 23.064C172.719 28.76 170.799 38.488 172.463 42.968C173.999 47.32 178.351 48.856 181.359 46.552C183.151 45.208 185.327 42.136 187.311 38.616C187.247 38.808 187.247 39 187.183 39.192C186.799 41.24 186.095 43.992 187.183 45.208C188.783 47 190.767 47.192 193.007 46.552C197.615 45.208 201.391 38.936 203.311 34.712C203.695 33.88 203.887 33.432 204.143 32.728C204.271 32.344 204.271 31.896 203.887 31.768ZM209.433 46.808C211.801 45.72 213.273 42.264 215.129 38.552C215.577 37.656 216.729 34.328 217.433 33.944C219.289 33.56 222.169 32.28 224.921 29.208C224.985 29.08 225.177 28.824 225.113 28.632C225.113 28.44 225.241 28.248 224.985 28.184C224.793 27.928 224.409 27.928 224.153 28.184C223.833 28.44 223.577 28.824 222.937 29.336C221.337 30.68 219.929 31.64 218.009 31.832C217.881 31.704 218.265 30.04 218.265 28.44C218.265 27.288 218.073 26.264 217.497 25.304C217.305 24.984 217.049 24.6 216.729 24.408C216.217 24.152 215.961 23.704 215.641 23.256C215.129 22.424 214.681 22.04 213.721 21.72C213.337 21.592 212.313 21.592 211.801 21.656C210.073 21.848 208.345 22.68 207.129 23.96C203.609 27.544 202.649 31.384 201.881 34.968C201.561 37.08 201.497 41.176 202.201 43.416C203.161 46.424 206.553 48.216 209.433 46.808ZM208.601 45.016C207.321 45.208 206.553 42.072 206.489 41.176C206.361 39.448 206.425 34.712 207.065 31.448C208.153 26.072 210.201 23.448 212.825 23.064C213.721 22.936 214.105 24.344 214.105 24.344C211.993 25.432 211.673 27.736 211.865 29.4C211.993 31 213.145 32.856 215.001 33.56C215.513 33.752 215.321 34.712 215.129 35.16C213.977 38.104 212.889 40.152 211.737 42.136C211.097 43.288 209.817 44.824 208.601 45.016ZM216.281 31.448C215.769 31.512 214.937 30.808 214.681 30.424C213.913 29.272 213.657 28.632 213.977 26.712C214.041 26.392 214.425 25.688 215.193 25.56C215.833 25.432 216.537 26.008 216.665 26.84C216.793 27.416 216.857 27.864 216.857 28.632C216.857 29.016 216.665 31.384 216.281 31.448ZM241.026 47.32C242.626 47.64 245.058 45.784 246.082 44.568C247.234 43.224 248.834 39.64 249.474 38.104C250.05 36.76 250.946 33.432 251.522 31.448C251.586 31.32 251.458 31.192 251.458 31.064C251.458 30.936 251.458 30.808 251.33 30.68C251.074 30.424 250.69 30.552 250.562 30.808C249.794 32.664 248.322 37.336 247.426 38.936C246.594 40.408 244.226 45.144 242.178 44.824C241.218 44.696 240.898 43.032 241.154 39.832C241.41 37.272 242.242 33.944 242.562 31.512C242.754 29.528 243.074 25.944 242.498 24.792C241.858 23.512 240.45 22.168 239.042 22.552C236.162 23.384 235.33 24.28 233.282 26.712C232.002 27.992 231.042 29.976 229.634 31.128C228.93 31.832 228.546 31.576 228.546 30.232C228.546 27.672 228.674 25.944 228.674 23.064C228.674 22.488 228.29 21.464 226.434 21.336C225.794 21.272 224.77 21.528 224.514 22.936C223.81 26.456 223.49 29.912 222.658 36.76C222.402 39.064 221.762 41.496 221.442 44.184C221.314 45.592 221.058 46.104 221.89 47.128C222.53 47.96 224.386 48.088 224.898 47.192C225.41 46.488 225.666 45.784 225.858 44.888C225.986 44.376 226.69 41.368 226.882 40.984C227.33 39.768 227.906 37.912 228.546 36.76C229.698 34.84 231.81 30.936 233.218 29.272C234.114 28.12 235.65 26.456 237.122 25.304C237.954 24.92 238.914 25.24 238.914 26.392C239.042 26.968 238.274 30.488 237.954 31.576C236.354 37.528 236.162 40.152 236.802 43.288C237.378 46.168 239.298 47 241.026 47.32ZM296.939 23.128C295.339 21.208 291.819 21.08 288.875 21.208C283.371 21.4 274.859 24.792 269.547 27.608C264.619 30.232 260.267 33.944 259.883 33.432C258.603 32.152 256.555 28.888 255.531 26.968C255.339 26.648 255.339 26.2 255.595 25.816C257.515 23.192 258.219 22.168 259.179 18.648C259.435 17.752 259.819 15.512 258.347 14.296C257.195 13.336 255.659 13.464 253.867 14.488C251.563 15.832 249.771 18.648 249.771 21.08C249.771 23.32 249.451 23.448 251.307 26.904C251.435 27.16 251.627 27.416 251.755 27.672L251.051 29.528L249.963 32.024C250.027 32.344 249.643 32.6 250.155 32.92C250.667 33.24 250.795 32.728 251.115 32.344C251.435 31.896 252.203 30.168 252.587 29.08C253.995 31.512 255.467 33.624 255.915 34.712C256.107 35.096 256.235 35.48 256.235 35.864C256.235 36.248 256.171 36.632 255.851 37.016C255.531 37.336 255.083 37.784 254.699 38.04C253.483 38.936 252.395 39.96 251.307 40.984C249.899 42.392 248.235 44.824 248.363 46.104C248.427 47.128 249.131 48.152 250.411 48.792C251.435 49.304 253.227 49.496 254.315 49.112C256.683 48.344 257.707 47.64 259.115 45.72C260.843 43.544 261.931 40.984 261.419 37.208C261.355 36.696 260.523 35.416 261.227 34.84C262.315 34.136 266.091 31.192 270.059 29.144C280.427 23.832 285.867 22.744 289.899 22.744C292.075 22.744 294.379 23.576 294.571 24.728C294.827 26.328 294.251 28.504 296.171 28.696C296.619 28.76 297.387 28.44 297.707 27.992C298.411 26.84 298.027 24.472 296.939 23.128ZM254.699 24.152C254.187 24.024 253.547 22.296 253.675 19.864C253.803 17.176 255.211 14.552 257.515 15.32C257.963 15.448 258.155 15.896 258.155 16.792C258.155 19.928 255.403 24.344 254.699 24.152ZM256.555 45.848C255.979 46.872 254.955 47.704 253.547 48.024C252.203 48.408 251.243 48.088 250.411 47.384C249.835 46.872 249.771 45.976 250.475 44.248C251.307 42.136 253.291 40.664 255.211 39.064C255.595 38.744 256.299 38.104 256.619 38.232C256.939 38.36 257.131 38.808 257.259 39.704C257.579 42.008 257.771 43.544 256.555 45.848Z" fill="black"/>
</svg>
