<svg width="207" height="39" viewBox="0 0 207 39" fill="none" xmlns="http://www.w3.org/2000/svg">
<path d="M50.5288 12.704C50.3368 12.256 49.8248 12.32 49.6328 12.64C47.7128 14.88 42.9768 19.296 41.9528 20.064C40.9928 20.768 40.0328 21.664 39.0088 22.304C38.9448 22.368 38.7528 22.496 38.6248 22.432C38.4328 22.368 38.3688 22.24 38.3048 22.176C37.0248 20.832 35.1688 17.824 34.1448 15.904C33.9528 15.584 33.9528 15.136 34.2088 14.752C36.1287 12.128 37.2808 11.04 37.9848 8.224C38.2408 7.264 38.4328 4.512 36.9608 3.296C35.8088 2.336 34.2728 2.464 32.4808 3.488C30.1768 4.832 28.3848 7.648 28.3848 10.08C28.3848 12.32 28.7048 13.344 29.4728 15.264C29.6648 15.776 29.9208 16.288 30.1768 16.736C30.0488 16.864 29.9208 16.992 29.7928 17.12L26.6568 19.424C25.3768 20.512 23.9048 21.216 22.3688 21.856C19.4248 23.008 16.0328 23.84 12.3848 23.136C10.5288 22.752 8.09675 22.112 6.94475 20.64C2.78475 15.328 4.76875 12 4.00075 8.608C3.74475 7.584 3.61675 6.624 2.40075 6.624C1.82475 6.624 1.44075 6.944 1.18475 7.328C0.67275 7.904 0.41675 8.736 0.22475 9.504C-0.15925 11.104 0.03275 14.368 0.99275 16.672C2.46475 20.192 4.38475 22.88 10.8488 24.8C15.7768 26.208 21.3448 24.096 25.3768 22.304C26.2088 21.92 29.4088 19.232 30.9448 18.144C32.4808 20.832 34.0808 22.624 34.5288 23.712C34.7208 24.096 34.8488 24.48 34.8488 24.864C34.8488 25.248 34.7848 25.632 34.4648 26.016C34.1448 26.336 33.6968 26.784 33.3128 27.04C32.0968 27.936 31.0088 28.96 29.9208 29.984C28.5128 31.392 26.8488 33.824 26.9768 35.104C27.0408 36.128 27.7448 37.152 29.0248 37.792C30.0488 38.304 31.8408 38.496 32.9288 38.112C35.2968 37.344 36.3208 36.64 37.7288 34.72C39.4568 32.544 40.5448 29.984 40.0328 26.208C39.9688 25.696 39.7768 25.184 39.6488 24.608C39.6488 24.352 39.7128 24.096 39.8408 23.904C40.1608 23.264 40.8648 22.56 41.3768 22.176C42.5928 21.344 47.4568 16.672 49.7608 14.368C50.1448 13.92 50.4648 13.6 50.6568 13.024C50.6568 12.896 50.6568 12.768 50.5288 12.704ZM33.3128 13.088C32.8008 12.96 32.3528 11.872 32.4808 9.44C32.6088 6.752 33.8248 3.552 36.1287 4.32C36.5768 4.448 36.9608 5.472 36.9608 6.368C36.9608 9.504 34.0168 13.28 33.3128 13.088ZM35.1688 34.848C34.5928 35.872 33.5688 36.704 32.1608 37.024C30.8168 37.408 29.8568 37.088 29.0248 36.384C28.4488 35.872 28.3848 34.976 29.0888 33.248C29.9208 31.136 31.9048 29.664 33.8248 28.064C34.2088 27.744 34.9128 27.104 35.2327 27.232C35.5528 27.36 35.7448 27.808 35.8728 28.704C36.1928 31.008 36.3848 32.544 35.1688 34.848ZM51.6042 36.32C55.6363 35.296 57.8763 32.928 60.5643 28.64C61.5243 27.04 62.1643 25.376 62.6763 24.16C63.3803 22.496 63.8283 21.728 64.2123 20.64C64.2763 20.32 64.2763 20 64.1483 19.808C64.0843 19.744 63.7003 19.424 63.1243 20C62.6763 20.448 62.3563 22.112 61.3963 23.968C58.7723 29.152 53.7163 35.232 50.0683 33.888C48.7243 33.376 48.0843 31.2 48.0843 29.792C47.9563 28.064 48.0203 26.976 48.0203 25.696C48.0843 24.992 48.3403 24.416 48.9163 23.968C50.5803 22.88 52.5003 21.344 54.1003 19.936C56.6603 17.696 59.4763 14.112 57.0443 11.616C55.1883 9.696 52.8203 10.464 50.1963 12.32C48.3403 13.728 46.0363 16.864 44.9483 19.68C43.4123 23.52 42.3882 28.704 43.7323 32.544C44.0523 33.376 44.8843 34.912 45.7803 35.488C47.4443 36.576 50.3883 36.64 51.6042 36.32ZM48.2123 21.792C47.8923 21.6 48.1483 20.32 48.2763 20C48.9163 17.76 49.3643 16.352 50.7723 14.432C51.6042 13.152 53.3323 11.488 55.0603 12.384C56.1483 12.96 56.5323 14.496 55.7003 15.84C54.8043 17.504 53.5243 18.464 52.1803 19.744C50.9003 20.832 48.9163 22.24 48.2123 21.792ZM82.4593 19.232C82.2673 19.168 82.2033 19.168 82.0753 19.232C81.6913 19.616 81.5633 20.064 81.3073 20.64C77.7233 29.024 74.7793 34.272 71.1313 33.184C69.1473 32.608 69.7233 29.984 70.7473 27.04C71.5793 25.312 73.5633 19.936 73.1153 17.76C72.9873 17.056 72.2193 16.48 71.5153 16.48C69.9792 16.48 68.3793 16.608 67.3553 14.88C66.5873 13.728 67.9313 12.128 68.5073 11.104C69.5953 9.056 70.2353 7.712 70.5553 5.984C71.3873 1.312 67.8673 0.223999 65.3073 1.568C61.8513 3.36 60.9552 11.296 62.4273 13.92C62.9393 14.88 63.5153 15.712 64.2193 16.352C63.5793 18.08 62.6193 20.832 61.2752 24.032C61.0832 24.544 61.1472 24.992 61.4672 25.184C61.7873 25.312 62.2353 25.056 62.5553 24.416C63.8993 21.408 64.8593 18.912 65.3073 17.248C65.9473 17.632 66.7153 17.888 67.6113 18.08C68.3153 18.208 68.8913 18.848 68.4433 19.744L67.2273 22.368C65.6913 25.248 64.2833 29.152 65.1793 32.352C65.8833 34.848 68.6993 35.808 70.4273 35.872C73.6913 36 75.5473 34.272 77.4033 31.52C79.1313 29.024 82.1393 22.176 82.3313 21.664C82.5233 21.088 82.8433 20.448 82.9073 19.744C82.9073 19.488 82.7153 19.232 82.4593 19.232ZM66.2673 11.488C65.5633 11.552 65.4353 10.08 65.3073 8.544C65.0513 5.984 65.8193 2.272 68.2513 2.656C68.6993 2.784 69.2753 3.36 69.4033 3.744C69.5312 4.576 69.5312 5.408 69.2113 6.112C68.6993 7.84 67.6753 10.592 66.2673 11.488ZM83.7433 36.832C84.8953 37.024 85.8553 36.96 86.8153 36.384C88.0953 35.616 90.0793 32.8 90.9113 31.392C91.9353 29.728 94.6873 24.224 95.3273 22.816C95.7753 21.92 96.2873 21.152 96.2873 21.152C96.9272 21.728 98.7833 23.072 100.255 23.392C104.671 24.416 108.447 20.832 108.767 18.656C108.831 18.144 107.999 17.568 107.551 18.464C106.591 20.32 103.839 22.368 101.087 21.6C99.2953 21.088 98.1433 19.488 97.3753 17.888C97.3113 17.76 97.3113 17.504 97.4393 17.312C98.8472 14.432 99.4233 9.76 98.9113 6.88C98.6553 5.28 97.3113 3.424 95.6473 4.128C93.0873 4.896 91.6793 7.776 91.5513 10.592C91.4233 12.768 91.6793 14.688 92.3193 16.48C92.8313 17.696 94.1113 19.552 95.1353 20.384C94.6233 21.6 93.8553 23.136 93.2153 24.352C92.8313 24.992 90.9113 29.024 89.0553 31.712C88.4153 32.672 87.8393 33.376 87.0713 34.208C86.7513 34.528 86.0473 34.72 85.6633 33.952C85.4713 33.568 85.4073 33.248 85.4073 32.928C85.0873 28.32 86.3673 15.072 86.3673 12.832C86.3673 12.512 86.3033 11.168 85.7913 10.848C85.4073 10.592 84.5113 10.528 84.1913 10.592C83.3593 10.72 83.2313 10.912 82.8473 11.296C82.4633 11.744 82.2713 12.512 81.8233 15.52C81.4393 17.376 80.7993 23.392 80.4153 26.08C80.4153 26.08 79.8392 30.624 80.4153 33.696C80.6073 35.04 82.2713 36.576 83.7433 36.832ZM96.6073 15.456C96.3513 15.584 96.1593 15.2 96.0312 14.944C95.4553 13.6 95.1993 11.744 95.0073 10.464C94.7513 8.672 95.1993 4.448 96.9913 5.792C98.0153 6.56 97.9513 8.48 97.9513 10.016C97.8873 11.552 97.6953 12.96 97.2473 14.368C97.1193 14.752 96.8633 15.328 96.6073 15.456ZM112.613 4.192C113.061 3.936 113.765 3.168 113.765 2.336C113.765 1.248 113.189 0.799999 112.677 0.415997C111.653 0.0319977 110.757 0.223999 110.437 0.351997C109.861 0.543999 109.093 1.12 108.901 1.696C108.645 2.144 108.581 3.168 109.349 3.872C110.117 4.576 111.589 4.768 112.613 4.192ZM110.181 36.256C114.853 35.424 118.053 28.64 119.973 23.712C120.293 22.88 120.549 22.432 120.805 21.728C120.933 21.344 120.933 20.896 120.549 20.768C120.357 20.704 119.973 20.704 119.717 21.344C118.437 24.672 115.749 29.664 114.661 31.008C113.061 32.992 111.909 33.952 110.693 33.952C110.053 33.952 108.709 33.504 108.837 31.584C108.901 30.624 109.733 25.824 110.373 22.368C110.885 19.552 111.717 15.328 111.717 12.704C111.717 11.04 110.181 10.208 108.645 10.912C108.325 11.04 107.941 11.872 107.813 12.192C107.301 14.496 106.341 19.424 105.445 23.264C105.125 24.672 104.613 27.488 104.357 28.896C103.333 34.464 105.573 37.088 110.181 36.256ZM127.814 36.576C131.334 36.32 132.358 35.04 133.958 33.568C137.094 31.584 140.422 24.16 140.998 22.24C141.126 21.536 141.382 20.832 141.062 20.576C140.55 20.064 140.038 20.96 139.654 21.792C139.334 23.2 135.75 29.984 132.806 32.224C129.926 34.464 127.366 34.208 125.638 32.672C124.038 31.264 123.718 28.576 124.166 24.736C124.678 20.32 126.598 14.368 129.414 12.832C130.566 12.256 131.462 12.128 132.166 12.64C132.614 12.96 132.358 13.856 132.166 14.56C132.038 15.264 132.038 15.392 132.422 15.584C132.614 15.648 132.806 15.648 133.19 15.264C133.574 14.816 133.702 14.304 133.766 13.536C133.894 11.808 132.23 10.272 130.566 10.144C129.286 10.016 128.518 10.336 127.43 10.912C123.142 13.28 121.094 17.184 119.622 20.192C118.086 23.392 118.022 27.488 118.918 30.688C119.494 32.736 120.646 34.4 121.926 35.168C123.59 36.192 125.574 36.768 127.814 36.576ZM146.979 36.32C151.011 35.296 153.251 32.928 155.939 28.64C156.899 27.04 157.539 25.376 158.051 24.16C158.755 22.496 159.203 21.728 159.587 20.64C159.651 20.32 159.651 20 159.523 19.808C159.459 19.744 159.075 19.424 158.499 20C158.051 20.448 157.731 22.112 156.771 23.968C154.147 29.152 149.091 35.232 145.443 33.888C144.099 33.376 143.459 31.2 143.459 29.792C143.331 28.064 143.395 26.976 143.395 25.696C143.459 24.992 143.715 24.416 144.291 23.968C145.955 22.88 147.875 21.344 149.475 19.936C152.035 17.696 154.851 14.112 152.419 11.616C150.563 9.696 148.195 10.464 145.571 12.32C143.715 13.728 141.411 16.864 140.323 19.68C138.787 23.52 137.763 28.704 139.107 32.544C139.427 33.376 140.259 34.912 141.155 35.488C142.819 36.576 145.763 36.64 146.979 36.32ZM143.587 21.792C143.267 21.6 143.523 20.32 143.651 20C144.291 17.76 144.739 16.352 146.147 14.432C146.979 13.152 148.707 11.488 150.435 12.384C151.523 12.96 151.907 14.496 151.075 15.84C150.179 17.504 148.899 18.464 147.555 19.744C146.275 20.832 144.291 22.24 143.587 21.792ZM204.97 12.128C203.37 10.208 199.85 10.08 196.906 10.208C191.402 10.4 182.89 13.792 177.578 16.608C172.65 19.232 168.298 22.944 167.914 22.432C166.634 21.152 164.586 17.888 163.562 15.968C163.37 15.648 163.37 15.2 163.626 14.816C165.546 12.192 166.25 11.168 167.21 7.648C167.466 6.752 167.85 4.512 166.378 3.296C165.226 2.336 163.69 2.464 161.898 3.488C159.594 4.832 157.802 7.648 157.802 10.08C157.802 12.32 157.482 12.448 159.338 15.904C159.466 16.16 159.658 16.416 159.786 16.672L159.082 18.528L157.994 21.024C158.058 21.344 157.674 21.6 158.186 21.92C158.698 22.24 158.826 21.728 159.146 21.344C159.466 20.896 160.234 19.168 160.618 18.08C162.026 20.512 163.498 22.624 163.946 23.712C164.138 24.096 164.266 24.48 164.266 24.864C164.266 25.248 164.202 25.632 163.882 26.016C163.562 26.336 163.114 26.784 162.73 27.04C161.514 27.936 160.426 28.96 159.338 29.984C157.93 31.392 156.266 33.824 156.394 35.104C156.458 36.128 157.162 37.152 158.442 37.792C159.466 38.304 161.258 38.496 162.346 38.112C164.714 37.344 165.738 36.64 167.146 34.72C168.874 32.544 169.962 29.984 169.45 26.208C169.386 25.696 168.554 24.416 169.258 23.84C170.346 23.136 174.122 20.192 178.09 18.144C188.458 12.832 193.898 11.744 197.93 11.744C200.106 11.744 202.41 12.576 202.602 13.728C202.858 15.328 202.282 17.504 204.202 17.696C204.65 17.76 205.418 17.44 205.738 16.992C206.442 15.84 206.058 13.472 204.97 12.128ZM162.73 13.152C162.218 13.024 161.578 11.296 161.706 8.864C161.834 6.176 163.242 3.552 165.546 4.32C165.994 4.448 166.186 4.896 166.186 5.792C166.186 8.928 163.434 13.344 162.73 13.152ZM164.586 34.848C164.01 35.872 162.986 36.704 161.578 37.024C160.234 37.408 159.274 37.088 158.442 36.384C157.866 35.872 157.802 34.976 158.506 33.248C159.338 31.136 161.322 29.664 163.242 28.064C163.626 27.744 164.33 27.104 164.65 27.232C164.97 27.36 165.162 27.808 165.29 28.704C165.61 31.008 165.802 32.544 164.586 34.848Z" fill="black"/>
</svg>
