<?xml version="1.0" encoding="utf-8"?>
<!-- Generator: Adobe Illustrator 23.1.1, SVG Export Plug-In . SVG Version: 6.00 Build 0)  -->
<svg version="1.1" id="Layer_1" xmlns="http://www.w3.org/2000/svg" xmlns:xlink="http://www.w3.org/1999/xlink" x="0px" y="0px"
	 viewBox="0 0 437.7 43" style="enable-background:new 0 0 437.7 43;" xml:space="preserve">
<style type="text/css">
	.st0{fill:#010101;}
</style>
<path class="st0" d="M16.7,13.3c-0.3,0.3-2.3,1.2-4.3,1.4c-0.7,4.6-2.3,13.5-6.6,13.8C0.5,28.9,0.1,25.8,0,24
	c-0.1-1.8,1.2-4.3,2.1-4.9c0.9-0.5,1.2,0.4,0.6,0.8c-0.7,0.4-1.2,1-1.8,4c-0.6,3,3.1,4.5,4.9,3c1.5-1.2,2.5-7.9,3.3-12.5
	c-1.5-0.3-2.8-0.9-3.5-1.8c-0.8-1-0.7-2.1-0.1-2.4c0.2-0.1,0.6,0.2,0.8,0.6C6.4,11.2,6.6,11.5,7,12c0.5,0.5,1.1,1.1,2.2,1.5
	c0.1-0.4,0.2-0.9,0.2-1.2c0.8-4.6,1.8-7.5,3-9.8c-1.6-0.2-3-0.3-4.2-0.2C5.6,2.4,3.1,3.5,2.9,5.5c-0.2,2,0.4,2.3,0.7,2.7
	c0.3,0.4,0.3,1.1-0.4,0.5S1.8,7.3,2.1,5.5c0.3-1.8,2.1-4.3,6.1-4.2c4,0,8.7,1.1,10.6,0.7c2-0.4,3.4-1,3.8-1.6c0.4-0.7,0.7,0,0.5,0.3
	c-0.2,0.3-0.9,2-4.3,2.2c-1.3,0.1-2.9,0-4.4-0.2c-0.7,2.3-1.3,7.3-1.7,9.9l-0.2,1.2c1.9-0.2,3.5-0.9,3.9-1.1
	C16.8,12.4,17.1,12.8,16.7,13.3z M46.8,20.4c0,0.3-0.1,0.4-0.2,0.8c-1.2,2.9-3.2,6.1-4.6,7.2c-1.6,1.2-3.9,0.4-4.8-1.9
	C37,25.5,36.9,24.3,37,23c-0.5,1.1-1.2,2.5-1.7,3.2c-1,1.5-2,2.4-3.7,2.3c-0.9,0-2.4-0.5-2.8-1.9c-0.5-1.7,0.3-3.8,1.1-5.3l0.7-1.4
	c0.2-0.5-0.1-0.8-0.4-0.9c-0.5-0.1-0.9-0.2-1.2-0.4c-0.2,0.6-0.5,1.6-1,2.6c-0.1,0.2-0.1,0.3-0.1,0.4c0,0-0.1,0.3-0.3,0.6
	c0,0.1-0.1,0.2-0.1,0.2c0,0,0,0,0,0.1c-0.4,0.8-1,1.9-1.8,3c-0.9,1.2-2.1,1.4-3.1,1c-0.5,1-1.2,1.7-1.9,2.1
	c-1.5,0.8-3.4-0.2-3.9-1.8c-0.4-1.2-0.3-3.4-0.2-4.5c0.4-1.9,0.9-4,2.8-5.9c0.7-0.7,1.6-1.1,2.5-1.2c0.3,0,0.8,0,1,0
	c0.5,0.2,0.8,0.4,1,0.8c0.2,0.2,0.3,0.5,0.6,0.6c0.2,0.1,0.3,0.3,0.4,0.5c0.3,0.5,0.4,1.1,0.4,1.7c0,0.9-0.1,1.7-0.7,3.3
	c-0.3,0.7-0.7,1.6-1,2.3c-0.2,0.4-0.4,0.9-0.7,1.3c0.6,0.5,1.4,0.3,2.2-0.7c0.6-0.8,1.2-1.8,1.6-2.7c0,0,0,0,0,0
	c0.7-1.7,1.2-3.2,1.6-4.1c-0.4-0.3-0.7-0.8-1-1.3c-0.8-1.4-0.3-5.7,1.5-6.6c1.4-0.7,3.3-0.1,2.8,2.4c-0.2,0.9-0.5,1.6-1.1,2.7
	c-0.3,0.5-1,1.4-0.6,2c0.5,0.9,1.4,0.9,2.2,0.9c0.4,0,0.8,0.3,0.9,0.7c0.2,1.2-0.8,4-1.3,5c-0.5,1.6-0.9,3,0.2,3.3
	c1.9,0.6,3.4-2,5.2-6.2c0.2-1.6,0.5-3.3,0.7-4.7l0.4-2.8c-2-0.7-3.4-2-3.6-3.3c-0.2-1.2,0.4-2.2,1.1-2.2c0.3,0,0.8,0,0.6,0.4
	c-0.1,0.3-0.1,1,0.1,1.6c0.2,0.5,0.8,1.4,2,2c0.1-0.9,0.3-1.7,0.3-1.9l0.2-1.1c0.2-1.8,0.9-3.9,1.5-4.8c0.2-0.3,0.8-0.4,1.1-0.3
	c0.1,0.1,0.5,0.3,0.5,0.6c0,1-0.7,4.3-0.9,5.8l-0.1,1l-0.1,1.6c2.2,0.3,4.3,0,4.8-0.2c0.4-0.1,0.6,0.3,0.2,0.7
	c-0.4,0.3-2.8,0.8-5.1,0.7c-0.2,1.8-0.7,5-0.7,4.9c-0.4,2.3-1.2,6.2-0.7,8.2c0.2,0.7,0.7,1.1,1.4,0.9c1.1-0.3,3.4-3.6,4.4-5.8
	c0.4-0.8,0.7-1.4,1-1.9c0,0,0.1-0.1,0.2,0C46.7,20.2,46.8,20.3,46.8,20.4z M21.7,25.9c-0.7-0.6-1.1-1.7-1.1-3.1
	c0-3.4,1.3-5.8,2.4-6.4c0,0-0.2-0.8-0.7-0.7c-1.4,0.2-2.4,1.7-3.3,4.5c-0.6,1.9-0.6,3.3-0.3,5.2c0.1,0.5,0.7,2.2,1.4,2.1
	C20.5,27.4,21.1,26.9,21.7,25.9z M22.4,24.8c0.3-0.6,0.7-1.4,1-2.2c1.1-2.5,1-3.7,1-3.9c0-0.4,0-0.7-0.1-1c-0.1-0.4-0.4-0.8-0.8-0.7
	c-0.4,0.1-0.6,0.4-0.7,0.6c-0.4,1-0.9,1.7-0.9,4.5C22,23.4,22.2,24.2,22.4,24.8z M30.9,12.6c0.2-0.4,0.2-0.8,0.1-1.3
	c-0.1-0.2-0.4-0.5-0.6-0.6c-1.3-0.2-1.7,1.8-1.6,3.2c0.1,0.8,0.1,1.6,0.5,1.6C30.1,15,30.6,13.5,30.9,12.6z M81,10.1
	c-0.2,0-1.1-0.1-2.2-0.5c-0.1,1.7-0.4,3.6-0.9,5.5c-1.1,4.7-4.2,13.5-7.8,13.3c-2.1-0.2-3.3-2-3.8-4.4c-1.6,2.6-3.3,4.5-4.8,4.4
	c-4-0.3-4.1-4.7-3.8-9.6c0.2-3.2,0.9-8.7,1.6-12.8c0.2-1.6,0.5-4.4-0.7-4.3c-2.3,0.1-4.9,1.9-5.3,2.1c-0.3,0.2-1.4,0.3-0.5-0.3
	C53.4,3,56,1.6,57.4,1.1c1.4-0.5,4.9-0.7,4.9,2.2c-0.2,4.7-1.5,13.3-1.5,15.7c-0.1,3.9-0.7,8.5,0.8,8.5c1.2,0,2.9-1.9,4.6-4.6
	c-0.7-4.3,0.1-10.2,0.9-13.4c0.6-2.7,2.3-3.6,3.6-3.3c1.1,0.2,1.3,1.7,1.2,3.8c-0.1,2.2-1.6,6.6-3.6,10.7c0,3.8,0.4,7,2.2,7
	c2.1,0,5-5.5,7-12.8c0.5-2,0.8-3.8,1-5.5c-1.3-0.6-2.7-1.7-3.5-3.6c-1.4-3.9,0.3-4.8,1.2-5c1.7-0.2,2.4,0.8,2.6,1.7
	c0.3,1.7,0.5,3.7,0.4,5.7c0.8,0.8,1.6,1.1,2.3,1.1c1.3,0.1,1.7,0,2,0c0.2,0,0.5,0.5-0.3,0.7C82,10.1,81.5,10.1,81,10.1z M68.2,18.9
	c1.3-2.9,2.4-6.2,2.7-8.8c0.2-2.1,0-2.7-0.5-2.8c-0.5-0.1-1.2,1.2-1.4,2.7C68.8,11.6,68.3,15.3,68.2,18.9z M78.3,7.5
	c0-2.5-0.3-4.2-0.5-4.8c-0.5-1.4-2.4-0.8-1.1,2.1C77.2,6,77.8,6.9,78.3,7.5z M134,19.9c0.1,0.1,0.1,0.3,0,0.4
	c-0.2,0.6-0.4,1-0.8,1.9c-0.3,0.7-0.6,1.5-1.1,2.4c-1.4,2.3-2.6,3.6-4.8,4.1c-0.7,0.2-2.2,0.1-3.1-0.4c-0.5-0.3-0.9-1.1-1.1-1.6
	c-0.2-0.6-0.3-1.2-0.3-1.8c-0.4,0.9-0.9,1.9-1.3,2.3c-0.5,0.7-1.8,1.6-2.7,1.5c-0.9-0.2-2-0.6-2.3-2.2c-0.3-1.7-0.2-3.1,0.6-6.3
	c0.2-0.6,0.6-2.5,0.5-2.8c0-0.6-0.5-0.8-1-0.6c-0.8,0.6-1.6,1.5-2.1,2.1c-0.8,0.9-1.9,3-2.5,4c-0.3,0.6-0.7,1.6-0.9,2.3
	c-0.1,0.2-0.5,1.8-0.5,2.1c-0.1,0.5-0.2,0.9-0.5,1.2c-0.3,0.5-1.3,0.4-1.6,0c-0.4-0.6-0.3-0.8-0.2-1.6c0.2-1.4,0.5-2.7,0.7-4
	c0,0,0-0.1,0-0.1c-1,2-2.3,3.2-3.1,4.2c-0.1,0.2-0.3,1.3-0.5,2.6c-0.4,2.1-0.9,4.1-1.2,5.6c-0.7,3.2-1.7,5.4-3.4,6.9
	c-0.9,0.8-2,0.8-2.7,0.5c-2.5-1.2-0.3-7.3,1.8-10.5c1-1.4,2.3-3.1,2.8-4.1c0.6-2.9,1-5.8,1-8.7l-2.3,4.5c-0.9,1.9-1.4,2.5-2.9,3.7
	c-0.2,0.2-1,0.8-1.7,1c-1,0.2-1.7,0.1-2.2-0.8c-0.3-0.5-0.2-1.8-0.1-3.3c-0.3,0.7-0.6,1.3-1,1.8c-1.5,2.3-3.4,2.8-4.9,2.1
	c-0.9-0.4-1.3-1.6-1.4-2.5c0-0.4-0.1-0.9-0.1-1.3c0-0.6,0-1.2,0-1.7c0-0.2-0.1-0.3-0.2-0.3c-0.3,0-0.4,0.3-0.5,0.4
	c-1,2.3-2.1,5.4-4.3,5.8c-1.1,0.2-2.3-0.5-2.8-1.4c-1-2.5-0.4-6.7,2.1-10.1c1.2-1.6,3.3-3,5.2-2.7c0.7,0.1,1.1,0.7,1.1,1.4
	c0,0.7-0.1,1-0.4,1.6c-0.2,0.2-0.3,0.2-0.4,0.2c-0.9,0,0.4-2.2-0.3-2.3c-1.1-0.3-2.2,0.2-3.2,1.7c-1.8,2.6-2.2,6.8-1.6,9.2
	c0.1,0.7,1,0.8,1.4,0.5c1.3-1,2.1-2.9,3.3-5.1c0.4-0.8,0.9-1.5,1.2-2.3c0.1-0.2,0.2-0.5,0.4-0.8c0.2-1.1,0.1-1.6,0.6-2.1
	c0.3-0.3,0.7-0.3,0.9,0c0.1,0.3,0.3,0.5,0.3,0.8c0.1,1.4,0.1,2.7,0.1,4.1c0,1.5,0,3,0,4.6c0,0.5,0.3,0.8,0.6,0.9
	c1.5,0.4,3.3-2.6,4.4-5.1c0.2-1.3,0.4-2.4,0.5-2.8c0.2-1.6,0.4-3,1.2-3.9c0.2-0.2,0.4-0.3,0.8-0.4c0.3,0,0.5,0.2,0.7,0.4
	c0.4,0.6,0.3,1.2,0.3,1.9c-0.4,4.5-0.2,2.5-1,7.5c-0.1,0.8-0.3,2,0,2.1c0.2,0.2,1-0.2,1.3-0.6c1.3-1.6,1.7-2.7,2.4-3.8
	c0.3-0.6,2.1-5.4,3.4-6.8c0.4-0.4,1.2-0.2,1.4,0.3c0.3,0.9,0.4,1.7,0.3,3c0,1.1-0.3,3.6-0.5,6.5c0,0.4,0,0.5,0.3,0.3
	c1.5-0.8,2.7-3.7,3.3-4.9c0,0,0,0,0-0.1c0.3-2.2,0.4-3.6,0.7-5c0.1-0.8,0.7-0.9,1-0.9c1,0.1,1.2,0.6,1.2,0.9c0,1.5-0.1,2.5-0.1,3.8
	c0,0.7,0.2,0.9,0.6,0.5c0.8-0.6,1.3-1.7,2-2.4c1.1-1.3,1.5-1.8,3.1-2.2c0.8-0.2,1.5,0.5,1.8,1.2c0.3,0.6,0.1,2.5,0,3.6
	c-0.2,1.3-0.6,3.1-0.8,4.4c-0.1,1.7,0,2.6,0.5,2.7c1.1,0.2,2.4-2.4,2.8-3.1c0.3-0.4,0.6-1.3,0.9-2.2c0.2-0.8,0.4-1.5,0.7-2.2
	c0.6-1.5,1.8-3.2,2.8-3.9c1.4-1,2.7-1.4,3.7-0.4c1.3,1.3-0.2,3.3-1.6,4.4c-0.9,0.8-1.9,1.6-2.8,2.2c-0.3,0.2-0.4,0.6-0.5,0.9
	c0,0.7,0,1.3,0,2.2c0,0.8,0.3,1.9,1.1,2.2c2,0.7,4.7-2.5,6.1-5.3c0.5-1,0.7-1.9,0.9-2.1C133.8,19.7,134,19.9,134,19.9z M125.5,21
	c0.4,0.2,1.4-0.5,2.1-1.1c0.7-0.7,1.4-1.2,1.9-2.1c0.4-0.7,0.2-1.5-0.3-1.8c-0.9-0.5-1.8,0.4-2.3,1.1c-0.8,1-1,1.8-1.3,3
	C125.5,20.2,125.3,20.9,125.5,21z M102.7,29.8c-0.2-0.1-3,4.4-3.2,4.7c-1.4,2.5-2.5,6.7-1.3,7.4c0.9,0.5,1.6-0.3,2-1.5
	c0.8-2.2,1.6-5.3,2.3-8.4C102.9,30.3,102.9,29.8,102.7,29.8z M136.4,7c-0.4,0-0.9,0.9-1.2,1.6c-0.8,2.3-1.1,3.4-0.8,3.7
	c0.3,0.2,0.7,0.2,1.1-0.2c0.8-1.4,1.1-2,2.1-4C137.8,7.6,137,7,136.4,7z M150.9,17.1c0.1,0,0.1,0.1,0.1,0.2
	c-0.1,0.3-0.3,0.5-0.5,0.7c-1.2,1.2-3,2.9-3.7,3.4c-0.3,0.2-0.7,0.4-0.8,0.8c-0.1,0.1-0.1,0.2-0.1,0.4c0.1,0.3,0.2,0.6,0.2,0.9
	c0.3,2-0.3,3.4-1.2,4.6c-0.8,1-1.3,1.4-2.6,1.8c-0.6,0.2-1.5,0.1-2.1-0.2c-0.7-0.3-1.1-0.9-1.1-1.4c-0.1-0.7,0.8-2,1.6-2.7
	c0.6-0.6,1.2-1.1,1.8-1.6c0.2-0.1,0.4-0.4,0.6-0.6c0.2-0.2,0.2-0.4,0.2-0.6c0-0.2-0.1-0.4-0.2-0.6c-0.2-0.5-1-1.5-1.9-2.8
	c-0.3,0.7-0.8,1.8-1,2.4c-0.1,0.2-0.3,0.5-0.6,0.3c-0.2-0.1-0.1-0.3-0.1-0.4l0.9-2.4c0.1-0.3,0.1-0.6,0.2-0.9l-0.3-0.7
	c-0.4-1-0.6-1.6-0.6-2.8c0-1.3,1-2.8,2.2-3.5c1-0.5,1.8-0.6,2.4-0.1c0.8,0.7,0.5,1.5,0.4,2c-0.4,1.5-1,2.1-2,3.5
	c-0.1,0.2-0.1,0.4,0,0.6c0.5,1,1.7,3.3,2.4,4c0,0,0.1,0.1,0.2,0.1c0.1,0,0.2,0,0.2-0.1c0.5-0.3,1.1-0.7,1.6-1c0.5-0.4,2.3-2,3.3-3.1
	C150.5,16.9,150.8,16.8,150.9,17.1z M142.2,15.9c0.4,0.1,1.5-1.3,1.9-2.7c0.2-0.9,0.3-1.3-0.1-1.6c-1-0.5-2,1.5-2.3,2.5
	C141.5,14.9,141.9,15.8,142.2,15.9z M143.8,24.7c-0.1-0.5-0.2-0.7-0.3-0.8c-0.2-0.1-0.5,0.3-0.8,0.4c-1,0.9-2.1,1.6-2.5,2.8
	c-0.4,0.9-0.3,1.4,0,1.7c0.4,0.4,1,0.6,1.7,0.3c0.8-0.2,1.3-0.6,1.6-1.2C144.1,26.7,144,25.9,143.8,24.7z M188.3,11.5
	c0.2-0.1,0.6-0.5,0.6-1c0-0.6-0.3-0.8-0.6-1c-0.5-0.2-1-0.1-1.2,0c-0.3,0.1-0.7,0.4-0.8,0.7c-0.1,0.2-0.2,0.8,0.2,1.2
	C186.9,11.7,187.7,11.8,188.3,11.5z M220.6,20.4c0,0.3-0.1,0.4-0.2,0.8c-1.2,2.9-3.2,6.1-4.6,7.2c-1.6,1.2-3.9,0.4-4.8-1.9
	c-0.6-1.7-0.3-4.5,0.1-7.1c-0.9,0.9-1.9,1.7-2.3,2c-0.3,0.2-0.7,0.4-0.8,0.8c-0.1,0.1-0.1,0.2-0.1,0.4c0.1,0.3,0.2,0.6,0.2,0.9
	c0.3,2-0.3,3.4-1.2,4.6c-0.8,1-1.3,1.4-2.6,1.8c-0.6,0.2-1.5,0.1-2.1-0.2c-0.7-0.3-1.1-0.9-1.1-1.4c-0.1-0.7,0.8-2,1.6-2.7
	c0.6-0.6,1.2-1.1,1.8-1.6c0.2-0.1,0.4-0.4,0.6-0.6c0.2-0.2,0.2-0.4,0.2-0.6c0-0.2-0.1-0.4-0.2-0.6c-0.2-0.5-1-1.5-1.9-2.8
	c-0.1,0.4-0.4,0.9-0.5,1.3c-0.1,0.1-0.1,0.3-0.1,0.4c-0.1,0.3-1.7,3.9-2.6,5.3c-1,1.5-2,2.4-3.7,2.3c-0.9,0-2.4-0.5-2.8-1.9
	c-0.5-1.7,0.3-3.8,1.1-5.3l0.7-1.4c0.2-0.5-0.1-0.8-0.4-0.9c-0.5-0.1-0.9-0.2-1.2-0.4c-0.2,0.9-0.8,2.2-1.5,3.8c0,0,0,0,0,0
	c-1,2.6-2.7,5.9-5.1,6.3c-2.5,0.4-3.7-1-3.1-3.9c0.1-0.7,0.4-2.2,0.6-2.9c-0.5,0.5-1.1,0.9-1.6,1.2c-0.8,0.4-1.7,0.5-2,0.7
	c-0.2,0.1-0.3,0.2-0.3,0.4c0.1,2.6-0.8,6-1.5,7.8c-0.4,1.4-1.3,3.7-1.9,4.6c-0.3,0.6-0.6,1-1,1.2c-0.8,0.5-1.6,0.5-2,0.3
	c-0.4-0.3-1.1-1.6-1.4-2.3c-0.8-1.9-0.9-5.3-0.7-7.9c0.2-3.5,0.2-3.9,0.9-8c0.1-0.6,0.2-1.1,0.3-1.5c-0.7,0.5-1.4,1.1-1.7,1.2
	c-2.2,1-5.1,2.1-7.8,1.3c-2.6-0.8-4.1-1.9-5.3-4.3c-0.4-1-0.6-2.6-0.4-3.5c0.2-0.7,0.6-1.5,1.2-1.5c0.7,0,0.8,0.5,0.9,1
	c0,1-0.3,1.6-0.1,2.5c0.4,2.8,2.2,4.4,4.6,4.9c2,0.4,3.8-0.1,5.3-0.7c0.8-0.3,1.6-0.7,2.3-1.3l1.2-0.9c0.1-0.7,0.3-1.3,0.4-2.1
	c0.3-1.3,1.2-5,1.7-6.2c0.6-1.8,1.8-4.5,3.3-6.1c1-1.1,1.6-1.5,2.8-1.9c0.6-0.1,1.1,0,1.4,0.4c1,1.4,0.1,3.6-0.2,4.9
	c-0.9,3.5-3.4,7.9-4.9,9.6c-0.7,0.8-1.3,1.5-1.9,2.3c-0.2,0.8-0.3,1.5-0.4,2.1c-0.2,1.3-0.4,3.4-0.5,4.7c-0.1,2.6-0.3,2.8-0.2,5.5
	c0.1,0.5,0.1,2.6,0.3,3.8c0.1,0.7,0.2,1.1,0.4,1.5c0.3,0.7,1.1,0,1.2-0.4c1.1-2.2,2.2-6.4,2.4-6.9c0.2-1.5,0.4-2.6,0.3-4
	c0-0.6,0.2-0.4-0.5-0.3c-1.2,0-2.6-0.6-2.8-1.7c-0.2-1.1,0.1-1.8,1-2.4c0.4-0.3,2.5-0.7,2.9,2.4c0,0.3,0.2,0.5,0.5,0.5
	c1.5-0.1,1.8-0.4,2.7-1.1c0.5-0.4,0.9-0.7,1.3-1c0.4-1.8,0.8-3.8,1-4.9c0.1-0.2,0.3-0.6,0.4-0.7c0.8-0.4,1.6,0.1,1.6,1
	c0,1.4-0.4,3.7-0.7,5.2c-0.3,1.9-0.8,4.4-0.8,4.9c-0.1,1,0.7,1.3,1,1.3c0.7,0,1.3-0.5,2.1-1.6c0.4-0.5,1.3-2.1,2-3.6
	c0,0,0-0.1,0-0.1c0.7-1.7,1.2-3.2,1.6-4.1c-0.4-0.3-0.7-0.8-1-1.3c-0.8-1.4-0.3-5.7,1.5-6.6c1.4-0.7,3.3-0.1,2.8,2.4
	c-0.2,0.9-0.5,1.6-1.1,2.7c-0.3,0.5-1,1.4-0.6,2c0.5,0.9,1.4,0.9,2.2,0.9c0.4,0,0.8,0.3,0.9,0.7c0.2,1.2-0.8,4-1.3,5
	c-0.5,1.6-0.9,3,0.2,3.3c1.9,0.6,3.4-2.1,5.3-6.4l0.6-1.7c0.1-0.3,0.1-0.6,0.2-0.9l-0.3-0.7c-0.4-1-0.6-1.6-0.6-2.8
	c0-1.3,1-2.8,2.2-3.5c1-0.5,1.8-0.6,2.4-0.1c0.8,0.7,0.5,1.5,0.4,2c-0.4,1.5-1,2.1-2,3.5c-0.1,0.2-0.1,0.4,0,0.6
	c0.5,1,1.7,3.3,2.4,4c0,0,0.1,0.1,0.2,0.1c0.1,0,0.2,0,0.2-0.1c0.5-0.3,1.1-0.7,1.6-1c0.4-0.3,1.3-1.1,2.2-1.9
	c0.1-0.7,0.2-1.4,0.4-2.1l0.4-2.8c-2-0.7-3.4-2-3.6-3.3c-0.2-1.2,0.4-2.2,1.1-2.2c0.3,0,0.8,0,0.6,0.4c-0.1,0.3-0.1,1,0.1,1.6
	c0.2,0.5,0.8,1.4,2,2c0.1-0.9,0.3-1.7,0.3-1.9l0.2-1.1c0.2-1.8,0.9-3.9,1.5-4.8c0.2-0.3,0.8-0.4,1.1-0.3c0.1,0.1,0.5,0.3,0.5,0.6
	c0,1-0.7,4.3-0.9,5.8l-0.1,1l-0.1,1.6c2.2,0.3,4.3,0,4.8-0.2c0.4-0.1,0.6,0.3,0.2,0.7c-0.4,0.3-2.8,0.8-5.1,0.7
	c-0.2,1.8-0.7,5-0.7,4.9c-0.4,2.3-1.2,6.2-0.7,8.2c0.2,0.7,0.7,1.1,1.4,0.9c1.1-0.3,3.4-3.6,4.4-5.8c0.4-0.8,0.7-1.4,1-1.9
	c0,0,0.1-0.1,0.2,0C220.5,20.2,220.6,20.3,220.6,20.4z M178.4,20.7c-0.3-0.2-0.9-0.1-1,0.2c-0.1,0.4,0,0.8,0.3,1.2
	c0.5,0.6,1.1,0.9,1.6,0.7C179.4,22.4,179.5,21.4,178.4,20.7z M176.6,15.5c0.1,0.1,1.1-0.8,1.2-0.9c1.5-2,3.3-5.3,3.9-7.6
	c0.6-1.7,1.1-3.1,1.1-4.5c0-0.3-0.2-0.8-0.8-0.8c-0.9,0.1-1.5,0.4-2,1.1c-0.8,1.1-2,4.2-2.4,6.2c-0.3,1.8-0.8,4.4-0.8,4.5
	C176.6,14.8,176.6,15.5,176.6,15.5z M195.6,12.6c0.2-0.4,0.2-0.8,0.1-1.3c-0.1-0.2-0.4-0.5-0.6-0.6c-1.3-0.2-1.7,1.8-1.6,3.2
	c0.1,0.8,0.1,1.6,0.5,1.6C194.8,15,195.4,13.5,195.6,12.6z M204.3,15.9c0.4,0.1,1.5-1.3,1.9-2.7c0.2-0.9,0.3-1.3-0.1-1.6
	c-1-0.5-2,1.5-2.3,2.5C203.6,14.9,204,15.8,204.3,15.9z M205.9,24.7c-0.1-0.5-0.2-0.7-0.3-0.8c-0.2-0.1-0.5,0.3-0.8,0.4
	c-1,0.9-2.1,1.6-2.5,2.8c-0.4,0.9-0.3,1.4,0,1.7c0.4,0.4,1,0.6,1.7,0.3c0.8-0.2,1.3-0.6,1.6-1.2C206.2,26.7,206.1,25.9,205.9,24.7z
	 M246.7,11.5c0.2-0.1,0.6-0.5,0.6-1c0-0.6-0.3-0.8-0.6-1c-0.5-0.2-1-0.1-1.2,0c-0.3,0.1-0.7,0.4-0.8,0.7c-0.1,0.2-0.2,0.8,0.2,1.2
	C245.3,11.7,246.1,11.8,246.7,11.5z M312.4,19.9c0.1,0.1,0.1,0.3,0,0.4c-0.2,0.6-0.4,1-0.8,1.9c-0.3,0.7-0.6,1.5-1.1,2.4
	c-1.4,2.3-2.6,3.6-4.8,4.1c-0.7,0.2-2.2,0.1-3.1-0.4c-0.5-0.3-0.9-1.1-1.1-1.6c-0.3-0.9-0.3-1.9-0.3-2.9c-0.9,1.5-2,2.6-2.7,3.4
	c-0.2,0.5-1.1,5.9-1.5,8.2c-0.7,3.5-2.1,6-3.4,6.9c-1,0.7-2,0.8-2.7,0.5c-2.5-1.2-0.3-7.3,1.8-10.5c1-1.4,2.2-2.8,2.7-3.8
	c0.2-0.6,0.3-1.6,0.3-2c0-0.9,0.4-2,0.2-2.1c-0.5-0.4-1.6,4.1-4.3,4.6c-1.1,0.2-2.3-0.5-2.8-1.4c-0.4-1-0.5-2.3-0.3-3.6
	c-0.4,0.9-0.8,1.7-1.2,2.4c-1.5,2.3-3.4,2.8-4.9,2.1c-0.9-0.4-1.3-1.6-1.4-2.5c0-0.4-0.1-0.9-0.1-1.3c0-0.6,0-1.2,0-1.7
	c0-0.2-0.1-0.3-0.2-0.3c-0.3,0-0.4,0.3-0.5,0.4c-1,2.3-2.1,5.4-4.3,5.8c-1.1,0.2-2.3-0.5-2.8-1.4c-0.3-0.9-0.4-2-0.4-3.2
	c-1,1.8-2.2,3.4-3.1,4.1c-1.6,1.2-3.9,0.4-4.8-1.9c-0.2-0.7-0.3-1.5-0.3-2.4c-0.4,0.9-1.2,2.6-1.7,3.3c-0.5,0.7-1.8,1.6-2.7,1.5
	c-0.9-0.2-2-0.6-2.3-2.2c-0.3-1.7-0.2-3.1,0.6-6.3c0.2-0.6,0.6-2.5,0.5-2.8c0-0.6-0.5-0.8-1-0.6c-0.8,0.6-1.6,1.5-2.1,2.1
	c-0.8,0.9-1.9,3-2.5,4c-0.3,0.6-0.7,1.6-0.9,2.3c-0.1,0.2-0.5,1.8-0.5,2.1c-0.1,0.5-0.2,0.9-0.5,1.2c-0.3,0.5-1.3,0.4-1.6,0
	c-0.4-0.6-0.3-0.8-0.2-1.6c0.2-1.4,0.5-2.7,0.6-4c-1.1,2.4-2.6,5.2-4.8,5.6c-2.5,0.4-3.7-1-3.1-3.9c0.1-0.8,0.4-2.3,0.6-3
	c0-0.1,0.1-0.3,0.1-0.5c-0.8,0.5-1.8,0.8-2.9,0.5c-0.8-0.2-1.8-0.9-2.1-1.2c0,0-0.3,0.4-0.5,0.9c-0.3,0.8-1.8,3.7-2.4,4.6
	c-0.4,0.8-1.5,2.3-2.2,2.7c-0.5,0.3-1,0.3-1.6,0.2c-0.8-0.1-1.7-1-1.8-1.7c-0.3-1.6,0-4.1,0-4.1c0.2-1.4,0.5-4.7,0.8-5.7
	c0.2-1.6,0.3-2,0.5-2.3c0.2-0.2,0.3-0.3,0.7-0.4c0.2,0,0.7,0,0.9,0.1c0.3,0.2,0.3,0.9,0.3,1.1c0,1.2-0.7,8.3-0.5,10.8
	c0,0.2,0,0.3,0.1,0.6c0.2,0.4,0.6,0.3,0.8,0.1c0.4-0.4,0.7-0.8,1.1-1.3c1-1.4,2-3.6,2.2-3.9c0.3-0.7,0.8-1.5,1-2.1
	c-0.5-0.4-1.2-1.4-1.5-2.1c-0.3-1-0.5-2-0.4-3.2c0.1-1.5,0.8-3,2.2-3.5c0.9-0.4,1.6,0.6,1.7,1.5c0.3,1.5,0,4-0.8,5.6
	c-0.1,0.1-0.1,0.2,0,0.3c0.4,0.9,1,1.7,2,2c1,0.3,2-0.2,2.7-0.8c0.4-1.7,0.7-3.3,0.9-4.3c0.1-0.2,0.3-0.6,0.4-0.7
	c0.8-0.4,1.6,0.1,1.6,1c0,1.4-0.4,3.7-0.7,5.2c-0.3,1.9-0.8,4.4-0.8,4.9c-0.1,1,0.7,1.3,1,1.3c0.7,0,1.3-0.5,2.1-1.6
	c0.6-0.7,2-3.3,2.7-5.1c0.3-2.3,0.4-3.7,0.7-5.2c0.1-0.8,0.7-0.9,1-0.9c1,0.1,1.2,0.6,1.2,0.9c0,1.5-0.1,2.5-0.1,3.8
	c0,0.7,0.2,0.9,0.6,0.5c0.8-0.6,1.3-1.7,2-2.4c1.1-1.3,1.5-1.8,3.1-2.2c0.8-0.2,1.5,0.5,1.8,1.2c0.3,0.6,0.1,2.5,0,3.6
	c-0.2,1.3-0.6,3.1-0.8,4.4c-0.1,1.7,0,2.6,0.5,2.7c1.1,0.2,2.4-2.4,2.8-3.1c0.3-0.6,0.8-1.9,1.2-3c0.2-1.7,0.5-3.5,0.8-5.1l0.4-2.8
	c-2-0.7-3.4-2-3.6-3.3c-0.2-1.2,0.4-2.2,1.1-2.2c0.3,0,0.8,0,0.6,0.4c-0.1,0.3-0.1,1,0.1,1.6c0.2,0.5,0.8,1.4,2,2
	c0.1-0.9,0.3-1.7,0.3-1.9l0.2-1.1c0.2-1.8,0.9-3.9,1.5-4.8c0.2-0.3,0.8-0.4,1.1-0.3c0.1,0.1,0.5,0.3,0.5,0.6c0,1-0.7,4.3-0.9,5.8
	l-0.1,1l-0.1,1.6c2.2,0.3,4.3,0,4.8-0.2c0.4-0.1,0.6,0.3,0.2,0.7c-0.4,0.3-2.8,0.8-5.1,0.7c-0.2,1.8-0.7,5-0.7,4.9
	c-0.4,2.3-1.2,6.2-0.7,8.2c0.2,0.7,0.7,1.1,1.4,0.9c1-0.3,3.2-3.3,4.2-5.5c0.3-1.7,1.1-3.6,2.3-5.2c1.2-1.6,3.3-3,5.2-2.7
	c0.7,0.1,1.1,0.7,1.1,1.4c0,0.7-0.1,1-0.4,1.6c-0.2,0.2-0.3,0.2-0.4,0.2c-0.9,0,0.4-2.2-0.3-2.3c-1.1-0.3-2.2,0.2-3.2,1.7
	c-1.8,2.6-2.2,6.8-1.6,9.2c0.1,0.7,1,0.8,1.4,0.5c1.3-1,2.1-2.9,3.3-5.1c0.4-0.8,0.9-1.5,1.2-2.3c0.1-0.2,0.2-0.5,0.4-0.8
	c0.2-1.1,0.1-1.6,0.6-2.1c0.3-0.3,0.7-0.3,0.9,0c0.1,0.3,0.3,0.5,0.3,0.8c0.1,1.4,0.1,2.7,0.1,4.1c0,1.5,0,3,0,4.6
	c0,0.5,0.3,0.8,0.6,0.9c1.8,0.5,4.4-4.6,5.1-7c0.1-0.3,0.2-0.6,0.4-0.8c0.1,0,0.1,0,0.2,0c0.3-0.6,0.6-1.2,1-1.8
	c1.2-1.6,3.3-3,5.2-2.7c0.7,0.1,1.1,0.7,1.1,1.4c0,0.7-0.1,1-0.4,1.6c-0.2,0.2-0.3,0.2-0.4,0.2c-0.9,0,0.4-2.2-0.3-2.3
	c-1.1-0.3-2.2,0.2-3.2,1.7c-1.8,2.6-2.2,6.8-1.6,9.2c0.1,0.7,1,0.8,1.4,0.5c0.9-0.7,2.9-2.7,3.9-5.9c0.2-1.3,0.3-2.6,0.8-3
	c0.5-0.6,1.2-0.6,1.3-0.1c0.2,1.2,0.1,2.2,0.1,3c0,1.1,0,1.4-0.2,4.3c0,0.4,0,0.5,0.3,0.3c1.3-0.7,2.4-3,3-4.4
	c0.1-0.5,0.3-1,0.5-1.5c0.6-1.5,1.8-3.2,2.8-3.9c1.4-1,2.7-1.4,3.7-0.4c1.3,1.3-0.2,3.3-1.6,4.4c-0.9,0.8-1.9,1.6-2.8,2.2
	c-0.3,0.2-0.4,0.6-0.5,0.9c0,0.7,0,1.3,0,2.2c0,0.8,0.3,1.9,1.1,2.2c2,0.7,4.7-2.5,6.1-5.3c0.5-1,0.7-1.9,0.9-2.1
	C312.2,19.7,312.4,19.9,312.4,19.9z M303.9,21c0.4,0.2,1.4-0.5,2.1-1.1c0.7-0.7,1.4-1.2,1.9-2.1c0.4-0.7,0.2-1.5-0.3-1.8
	c-0.9-0.5-1.8,0.4-2.3,1.1c-0.8,1-1,1.8-1.3,3C303.8,20.2,303.7,20.9,303.9,21z M238.4,17c0.2-0.8,0.3-1.5,0.4-2.3
	c0-0.8,0-1.8-0.5-2.3c-1-0.7-1.2,1.5-1.1,2.5c0.1,0.7,0.2,1.7,0.5,2.4c0.1,0.1,0.2,0.3,0.3,0.3C238.2,17.5,238.4,17.2,238.4,17z
	 M295.5,29.8c-0.2-0.1-3,4.4-3.2,4.7c-1.4,2.5-2.5,6.7-1.3,7.4c0.9,0.5,1.6-0.3,2-1.5c0.8-2.2,1.6-5.3,2.3-8.4
	C295.7,30.3,295.7,29.8,295.5,29.8z M368.2,11.5c0.2-0.1,0.6-0.5,0.6-1c0-0.6-0.3-0.8-0.6-1c-0.5-0.2-1-0.1-1.2,0
	c-0.3,0.1-0.7,0.4-0.8,0.7c-0.1,0.2-0.2,0.8,0.2,1.2C366.8,11.7,367.6,11.8,368.2,11.5z M391.4,19.9c0.1,0.1,0.1,0.3,0,0.4
	c-0.2,0.6-0.4,1-0.8,1.9c-0.3,0.7-0.6,1.5-1.1,2.4c-1.4,2.3-2.6,3.6-4.8,4.1c-0.7,0.2-2.2,0.1-3.1-0.4c-0.5-0.3-0.9-1.1-1.1-1.6
	c-0.2-0.7-0.3-1.5-0.3-2.3c-0.5,1.3-1.2,2.5-2.1,3.6c-0.9,1.1-2.2,1.1-2.8,1.1c-2.4,0-3.4-2.3-3.6-4c-0.1-0.5-0.1-1-0.1-1.6
	c-1,2.4-2.6,4.9-4.6,5.3c-2.5,0.4-3.7-1-3.1-3.9c0.1-0.8,0.4-2.3,0.6-3c0.2-0.7,0.3-1.4,0.5-2.2c-0.9,1.1-1.9,2-3.1,2.2
	c-0.2,0.1-0.4,0.1-0.6,0.1c-0.3,0-0.4,0.2-0.4,0.2c-0.5,2.5-1.3,4.2-1.6,4.8c-0.8,1.5-1.1,2-2.4,2.5c-1,0.3-2.4-0.1-3.3-1.2
	c-0.3-0.3-1.5-2.5-1.3-5.3c0-0.3,0.1-1.1,0.2-2.1c-0.7,0.4-1.3,0.6-1.8,0.7c-0.4,0.2-1,2-1.2,2.5c-1,2-1.8,3.8-3,4.4
	c-1.5,0.8-3.4-0.2-3.9-1.8c-0.2-0.7-0.3-1.7-0.3-2.6l0,0c-1,2.3-2.1,4.3-3.4,4.4c-0.2,0-0.5,0.1-0.8,0.1c-1.2,0-2.3-0.9-2.5-1.7
	c-0.2-1,0-2.6,0.2-4.1c0.2-1.1,0.4-2.8,0.7-3.6c0.3-0.9,0.5-1.9,0.2-2.1c-0.9-0.4-3,2.7-3.8,3.8c-0.2,0.3-0.5,1-0.7,1.3
	c-0.5,1.3-0.7,3.3-0.9,4.9c0,0.4-0.3,0.8-0.5,1.1c-0.2,0.4-1.2,0.4-1.5,0.3c-0.5-0.1-0.7-0.7-0.7-1c-0.1-2.4,0.7-6.2,1.1-8.9
	c0.1-0.4,0.2-0.9,0.3-1.3c0.1-0.3-0.1-0.5-0.7-0.2c-1.2,0.6-3.3,3.9-3.6,4.4c-0.3,0.5-0.6,1-0.7,1.5l-1,4.6
	c-0.1,0.3-0.3,0.6-0.6,0.9c-0.2,0.1-0.4,0.2-0.6,0.3c-0.3,0-0.6-0.1-0.8-0.2c-0.2-0.2-0.4-0.4-0.4-0.7c-0.3-2.7,0.1-4,0.4-6.2
	c0-0.3,0.7-4.9,0.9-5.5c0.2-0.6,0.7-1.1,1.2-1.3c0.1-0.1,0.5,0,0.7,0.1c0.5,0.3,0.3,2.8,0.3,3.5c0,0.4,0.1,0.9,0.1,1.3
	c0.2,0.5,0.3,0.5,1.1-0.3c1-1.5,1.8-2.5,2.6-3.1c0.9-0.7,1.8-1,2.3-0.8c1.3,0.5,1.4,1.5,1.2,2.9c-0.1,0.3-0.3,1.2-0.1,1.5
	c0.2,0.3,0.7-0.2,0.9-0.4c0.3-0.4,0.6-0.9,0.9-1.3c0.5-0.8,1.7-1.9,2.5-2.3c0.9-0.4,2.1,0,2.5,1.4c0.2,1.1-0.3,4.8-0.3,5.7
	c-0.1,1-0.1,2-0.1,3c0,1.4,0.7,1.8,1.5,0.8c0.4-0.5,1.4-2.3,2.1-3.9c0.1-0.2,0.3-0.6,0.5-1.1c0.4-1.8,0.9-3.8,2.7-5.6
	c0.7-0.7,1.6-1.1,2.5-1.2c0.3,0,0.8,0,1,0c0.5,0.2,0.8,0.4,1,0.8c0.2,0.2,0.3,0.5,0.6,0.6c0.2,0.1,0.3,0.3,0.4,0.5
	c0.3,0.5,0.4,1.1,0.4,1.7c0,0.9-0.2,1.7-0.1,1.8c0.6-0.1,1.1-0.3,1.6-0.6c0.3-2.3,1-5.6,1.9-8.6c0.7-2.3,2.2-6.4,4.1-8.4
	c1-1.3,2.7-2.1,3.6-1.6c2.5,1.4-1.8,11.5-5.5,16.5c0,0-0.9,0.9-1.2,2.3c-0.1,0.8-0.3,1.5-0.3,2.3c-0.1,1.6-0.1,2.7,0.2,4.5
	c0,0.4,0.4,1.1,0.9,1.2c0.8,0.1,1.6-0.7,2-1.4c0.9-1.5,1.1-2.5,1.4-4.7c0-0.1-0.1-0.1-0.5-0.3s-0.8-0.4-1.1-0.6
	c-0.5-0.3-0.9-1-0.9-1.6c0-0.8,0.2-1.3,0.8-1.7c0.4-0.3,1.1-0.3,1.5-0.1c1,0.4,1,1.6,1.2,2.6l0.1,0.6c0,0,0.5,0,0.7,0
	c0.3,0,0.6-0.1,0.9-0.2c0.9-0.3,1.3-0.8,1.7-1.3c0.3-0.4,0.5-0.6,0.7-0.7c0.1-0.1,0.3-0.1,0.4,0c0.2-1.2,0.5-2.2,0.6-2.9
	c0.1-0.2,0.3-0.6,0.4-0.7c0.8-0.4,1.6,0.1,1.6,1c0,1.4-0.4,3.7-0.7,5.2c-0.3,1.9-0.8,4.4-0.8,4.9c-0.1,1,0.7,1.3,1,1.3
	c0.7,0,1.3-0.5,2.1-1.6c0.5-0.6,1.5-2.5,2.3-4.2c0.1-1.6,0.2-3.2,0.4-4.6c0.5-4.8,2.6-12.5,5.1-15c0.5-0.5,1.3-0.9,2.1-0.9
	c1.1,0,1.7,1.1,1.7,2.6c0.1,4.1-1.4,7.4-3.7,11c-1,1.6-1.5,2.5-2.3,3.5c-0.4,0.5-0.5,1.3-0.5,2c-0.1,2-0.2,4.8,0.4,6.1
	c0.4,1,1.5,1.2,1.8,1.1c1.2-0.3,1.8-1.6,2.5-2.7c0.4-0.6,1-1.9,1.5-3.2c0.2-0.6,0.3-1.1,0.5-1.6c0.6-1.5,1.8-3.2,2.8-3.9
	c1.4-1,2.7-1.4,3.7-0.4c1.3,1.3-0.2,3.3-1.6,4.4c-0.9,0.8-1.9,1.6-2.8,2.2c-0.3,0.2-0.4,0.6-0.5,0.9c0,0.7,0,1.3,0,2.2
	c0,0.8,0.3,1.9,1.1,2.2c2,0.7,4.7-2.5,6.1-5.3c0.5-1,0.7-1.9,0.9-2.1C391.1,19.7,391.4,19.9,391.4,19.9z M382.9,21
	c0.4,0.2,1.4-0.5,2.1-1.1c0.7-0.7,1.4-1.2,1.9-2.1c0.4-0.7,0.2-1.5-0.3-1.8c-0.9-0.5-1.8,0.4-2.3,1.1c-0.8,1-1,1.8-1.3,3
	C382.8,20.2,382.7,20.9,382.9,21z M374.8,16.6c0.2,0.1,0.7-0.7,0.9-1.1c0.6-1,2.4-4,2.5-4.1c1.4-2.4,2-6.7,1.7-8.2
	c-0.1-0.7-0.3-1-0.6-0.9c-0.7,0.1-1.5,1.2-1.8,2c-0.9,2.1-1.9,6.5-2.5,9.7C374.6,15.6,374.6,16.6,374.8,16.6z M356.1,16.6
	c0.3,0.2,0.9-0.7,1.2-1.3c1.3-2.4,2.1-3.4,3.1-5.9c0.5-1.2,2.2-6.3,1.7-7c-0.4-0.7-1.4-0.3-1.8,0c-0.8,0.7-1.6,2.4-2.1,3.7
	c-0.4,1.2-1.4,4.8-1.7,6.1C356.3,13.5,355.5,16.3,356.1,16.6z M349.3,21.4c-1-0.4-1.6-1.4-1.7-2.2c-0.1-0.9,0.1-2.1,1.2-2.7
	c0,0-0.2-0.8-0.7-0.7c-1.4,0.2-2.5,1.6-3.1,4.5c-0.3,1.7-0.4,4.3-0.3,5.2c0,0.5,0.4,2.2,1.1,2.1c0.7-0.1,1.3-0.9,1.7-1.5
	c0.6-1.1,1.2-2.2,1.8-3.7C349.4,22,349.5,21.5,349.3,21.4z M350.2,18.7c0-0.4,0-0.7-0.1-1c-0.1-0.4-0.4-0.8-0.8-0.7
	c-0.4,0.1-0.6,0.4-0.7,0.6c-0.2,1,0,1.4,0.4,2c0.1,0.2,0.6,0.6,0.9,0.6C350.1,20.2,350.2,18.9,350.2,18.7z M359.6,19.3
	c-0.1-0.3-0.5-0.7-0.8-0.4c-0.4,0.3-0.4,1,0,1.4c0.5,0.6,1.2,0.9,1.3,0.8C360.1,20.9,359.8,19.8,359.6,19.3z M437.7,19.9
	c0,0.4-0.2,0.7-0.3,1c-0.1,0.3-1.7,3.9-2.6,5.3c-1,1.5-2,2.4-3.7,2.3c-0.9,0-2.4-0.5-2.8-1.9c-0.5-1.7,0.3-3.8,1.1-5.3l0.7-1.4
	c0.2-0.5-0.1-0.8-0.4-0.9c-0.5-0.1-0.9-0.2-1.2-0.4c-0.1,0.4-0.3,0.9-0.5,1.4c-0.1,0.2-0.1,0.5-0.2,0.7c-0.1,0.3-1.4,4-2.6,5.7
	c-1.5,2.3-3.4,2.8-4.9,2.1c-0.9-0.4-1.3-1.6-1.4-2.5c0-0.4-0.1-0.9-0.1-1.3c0-0.6,0-1.2,0-1.7c0-0.2-0.1-0.3-0.2-0.3
	c-0.3,0-0.4,0.3-0.5,0.4c-1,2.3-2.1,5.4-4.3,5.8c-1.1,0.2-2.3-0.5-2.8-1.4c-0.7-1.7-0.5-4.1,0.3-6.5c-0.6,0.5-1.1,0.8-1.8,0.9
	c-0.2,0.1-0.4,0.1-0.6,0.1c-0.3,0-0.4,0.2-0.4,0.2c-0.5,2.5-1.3,4.2-1.6,4.8c-0.8,1.5-1.1,2-2.4,2.5c-1,0.3-2.4-0.1-3.3-1.2
	c-0.3-0.3-1.5-2.5-1.3-5.3c0-1.1,0.7-6.7,2.3-11.6c0.7-2.3,2.2-6.4,4.1-8.4c1-1.3,2.7-2.1,3.6-1.6c2.5,1.4-1.8,11.5-5.5,16.5
	c0,0-0.9,0.9-1.2,2.3c-0.1,0.8-0.3,1.5-0.3,2.3c-0.1,1.6-0.1,2.7,0.2,4.5c0,0.4,0.4,1.1,0.9,1.2c0.8,0.1,1.6-0.7,2-1.4
	c0.9-1.5,1.1-2.5,1.4-4.7c0-0.1-0.1-0.1-0.5-0.3c-0.4-0.2-0.8-0.4-1.1-0.6c-0.5-0.3-0.9-1-0.9-1.6c0-0.8,0.2-1.3,0.8-1.7
	c0.4-0.3,1.1-0.3,1.5-0.1c1,0.4,1,1.6,1.2,2.6l0.1,0.6c0,0,0.5,0,0.7,0c0.3,0,0.6-0.1,0.9-0.2c0.9-0.3,1.3-0.8,1.7-1.3
	c0.2-0.3,0.3-0.4,0.4-0.5c0.3-0.5,0.5-1.1,0.9-1.6c1.2-1.6,3.3-3,5.2-2.7c0.7,0.1,1.1,0.7,1.1,1.4c0,0.7-0.1,1-0.4,1.6
	c-0.2,0.2-0.3,0.2-0.4,0.2c-0.9,0,0.4-2.2-0.3-2.3c-1.1-0.3-2.2,0.2-3.2,1.7c-1.8,2.6-2.2,6.8-1.6,9.2c0.1,0.7,1,0.8,1.4,0.5
	c1.3-1,2.1-2.9,3.3-5.1c0.4-0.8,0.9-1.5,1.2-2.3c0.1-0.2,0.2-0.5,0.4-0.8c0.2-1.1,0.1-1.6,0.6-2.1c0.3-0.3,0.7-0.3,0.9,0
	c0.1,0.3,0.3,0.5,0.3,0.8c0.1,1.4,0.1,2.7,0.1,4.1c0,1.5,0,3,0,4.6c0,0.5,0.3,0.8,0.6,0.9c1.4,0.4,3.1-2.2,4.2-4.6
	c0-0.1-0.1-0.1,0-0.2c0.7-1.7,1.2-3.2,1.6-4.1c-0.4-0.3-0.7-0.8-1-1.3c-0.8-1.4-0.3-5.7,1.5-6.6c1.4-0.7,3.3-0.1,2.8,2.4
	c-0.2,0.9-0.5,1.6-1.1,2.7c-0.3,0.5-1,1.4-0.6,2c0.6,0.9,1.4,0.9,2.2,0.9c0.4,0,0.8,0.3,0.9,0.7c0.2,1.2-0.8,4-1.3,5
	c-0.6,1.6-0.9,3,0.2,3.3c2,0.6,3.5-2.2,5.4-6.7c0.1-0.3,0.2-0.5,0.4-0.8c0.1,0,0.1,0,0.2,0C437.6,19.6,437.7,19.7,437.7,19.9z
	 M403.7,16.6c0.3,0.2,0.9-0.7,1.2-1.3c1.3-2.4,2.1-3.4,3-5.9c0.5-1.2,2.2-6.3,1.7-7c-0.4-0.7-1.4-0.3-1.8,0
	c-0.8,0.7-1.6,2.4-2.1,3.7c-0.4,1.2-1.4,4.8-1.7,6.1C403.9,13.5,403.2,16.3,403.7,16.6z M407.2,19.3c-0.1-0.3-0.5-0.7-0.8-0.4
	c-0.4,0.3-0.4,1,0,1.4c0.5,0.6,1.2,0.9,1.3,0.8C407.7,20.9,407.4,19.8,407.2,19.3z M430.4,12.6c0.2-0.4,0.2-0.8,0.1-1.3
	c-0.1-0.2-0.4-0.5-0.6-0.6c-1.3-0.2-1.7,1.8-1.6,3.2c0.1,0.8,0.1,1.6,0.5,1.6C429.6,15,430.1,13.5,430.4,12.6z"/>
</svg>
