<?xml version="1.0" encoding="utf-8"?>
<!-- Generator: Adobe Illustrator 23.1.1, SVG Export Plug-In . SVG Version: 6.00 Build 0)  -->
<svg version="1.1" id="Layer_1" xmlns="http://www.w3.org/2000/svg" xmlns:xlink="http://www.w3.org/1999/xlink" x="0px" y="0px"
	 viewBox="0 0 930 244.9" style="enable-background:new 0 0 930 244.9;" xml:space="preserve">
<g>
	<path d="M90.6,56C57,46.3,0,64.4,0,117.3c0,34.4,32.7,43.3,48.6,43.7c15.9,0.4,20.7-2.2,26.5-3.7c5.8-1.5,0.9-5-3.7-5
		c-4.5,0-12.1,3.7-23.7,2.8c-11.6-0.9-33.6-7.3-33.1-38.3c0.4-31,19.6-69.1,75.1-57c22.6,4.9,21.5,38.5,16.6,51.4
		c-4.9,12.9-11,18.7-20.4,19.2s-4.1-26.3-4.1-32.5s-7.3-4.5-9.7,1.5c-2.4,6-8.2,15.7-14.4,19.8c-6.2,4.1-10.8,7.7-13.6,6.2
		c-2.8-1.5,1.9-29.1,17.4-34.6c8.8-3.2,14.6-2.6,14.6-2.6c4.5,0.6,3.4-3.9,0-3.4c-6.9,0.9-26.7-1.5-40.7,21.5
		c-10.5,17.2-3.9,23.7,0.9,25.2c4.1,1.3,19.6,1.3,31.4-15.5c11.8-16.8,1.1,20.4,17.6,19.6c16.6-0.9,22.2-13.8,25.4-21.7
		S123.3,65.5,90.6,56z"/>
	<path d="M652.5,48.9c1.5-0.9,3.9-3.4,3.9-6.2c0-3.7-1.9-5.2-3.7-6.5c-3.4-1.3-6.5-0.6-7.5-0.2c-1.9,0.6-4.5,2.6-5.2,4.5
		c-0.9,1.5-1.1,5,1.5,7.3C644.1,50.2,649.1,50.8,652.5,48.9z"/>
	<path d="M929.5,92.6c-0.6-0.9-1.9-0.9-2.8,0c-1.1,0.9-1.9,2.2-4.1,3.9c-5.4,4.5-10.1,7.7-16.6,8.4c-0.4-0.4,0.9-6,0.9-11.4
		c0-3.9-0.6-7.3-2.6-10.5c-0.6-1.1-1.5-2.4-2.6-3c-1.7-0.9-2.6-2.4-3.7-3.9c-1.7-2.8-3.2-4.1-6.5-5.2c-1.3-0.4-4.7-0.4-6.5-0.2
		c-5.8,0.6-11.6,3.4-15.7,7.7c-11.7,11.9-15,24.7-17.6,36.7c-4.4,8.8-12.8,22.6-20.1,28.1c-9.7,7.5-18.3,6.7-24.1,1.5
		c-5.4-4.7-6.5-13.8-4.9-26.7c1.7-14.8,8.2-34.9,17.6-40c3.9-1.9,6.9-2.4,9.3-0.6c1.5,1.1,0.6,4.1,0,6.5c-0.4,2.4-0.4,2.8,0.9,3.4
		c0.6,0.2,1.3,0.2,2.6-1.1c1.3-1.5,1.7-3.2,1.9-5.8c0.4-5.8-5.2-11-10.8-11.4c-4.3-0.4-6.9,0.6-10.5,2.6
		c-14.4,8-21.3,21.1-26.3,31.2c-2.4,5-3.7,10.6-4.1,16.3c-7,13.4-19.8,31-26,33c-4.5,1.3-7.7-1.1-8.8-5.6
		c-2.8-12.3,2.2-37.2,4.5-51.4c0,0.4,2.8-19.6,4.1-31c14.2,1.1,29.7-2.2,32.1-4.1c2.6-2.2,1.5-5-1.3-4.1c-2.8,0.9-15.9,3-29.9,1.1
		l0.9-10.1l0.6-6c1.1-9.3,5.4-30.3,5.4-36.4c0-2.2-2.4-3.4-3.2-3.9c-2.4-1.1-5.8-0.2-7.1,1.7c-4.3,5.8-8.2,18.7-9.7,30.3l-1.3,7.1
		c-0.2,1.5-1.1,6.2-1.9,12.1c-7.3-3.9-11-9.3-12.5-12.7c-1.3-3.4-1.5-7.7-0.6-9.9c1.1-2.6-1.9-2.8-3.9-2.8c-4.5,0-8.2,5.8-6.9,13.6
		c1.5,8.2,10.1,15.9,22.6,20.4l-2.8,17.6c-0.7,4.2-1.5,8.6-2.2,13.2c-5.5,5.4-11.3,10.5-13.7,12.2c-3.2,2.4-6.5,4.3-9.9,6.5
		c-0.2,0.2-0.9,0.6-1.3,0.4c-0.6-0.2-0.9-0.6-1.1-0.9c-4.3-4.5-11.4-18.5-14.8-25c-0.6-1.1-0.6-2.6,0.2-3.9
		c6.5-8.8,10.3-12.5,12.7-22c0.9-3.2,2.4-8.6-2.6-12.7c-3.9-3.2-9-2.8-15.1,0.6C682,51,676,60.5,676,68.7c0,7.5,1.1,11,3.7,17.4
		l1.9,4.3c-0.4,1.7-0.6,3.2-1.3,5.4l-5.3,14.3c-4.6,10.9-12.3,24.9-15.6,28.9c-5.4,6.7-9.3,9.9-13.3,9.9c-2.2,0-6.7-1.5-6.2-8
		c0.2-3.2,3-19.4,5.2-31c1.7-9.5,4.5-23.7,4.5-32.5c0-5.6-5.2-8.4-10.3-6c-1.1,0.4-2.4,3.2-2.8,4.3c-1.3,6-3.6,17.4-5.9,28.2
		c0,0.1-0.1,0.1-0.1,0.2c-12.1,28.2-22,45.8-34.2,42.2c-6.7-1.9-4.7-10.8-1.3-20.7c2.8-5.8,9.5-23.9,8-31.2c-0.4-2.4-3-4.3-5.4-4.3
		c-5.2,0-10.5,0.4-14-5.4c-2.6-3.9,1.9-9.3,3.9-12.7c3.7-6.9,5.8-11.4,6.9-17.2c2.8-15.7-9-19.4-17.6-14.8
		c-11.6,6-14.6,32.7-9.7,41.5c1.7,3.2,3.7,6,6,8.2c-2.2,5.8-5.4,15.1-9.9,25.8c-0.4,0.9-0.4,1.8-0.3,2.5
		c-7.1,15.5-18.1,32.4-25.8,28c-4.5-2.6-3.9-7.7-1.9-20.4c2.6-15.9,3.2-23,4.1-46.9c0-2.2-1.3-4.3-2.8-5.6c-1.3-1.3-6-0.9-7.1,1.1
		s-2.8,4.5-4.1,6.5c-5.2,7.3-9.7,18.9-11.6,22.4c-5.2,9.3-12.1,22-15.5,28.4c-4.3,7.7-6.7,11.6-10.8,13.8c-1.1,0.6-1.7,0.6-2.8-0.4
		c-1.5-2.6-0.2-14.6,1.1-21.5c1.9-9.3,5.6-26.9,6.5-39.6c0.2-2.4-0.4-8-1.5-10.8c-1.7-2.8-3.7-2.6-6.7-1.9s-4.1,2.8-4.5,4.1
		c-1.6,4.1-3.6,11.9-5.1,18.3c-0.8,0.8-1.6,1.8-3.1,3c-5.4,4.5-10.1,7.7-16.6,8.4c-0.4-0.4,0.9-6,0.9-11.4c0-3.9-0.6-7.3-2.6-10.5
		c-0.6-1.1-1.5-2.4-2.6-3c-1.7-0.9-2.6-2.4-3.7-3.9c-1.7-2.8-3.2-4.1-6.5-5.2c-1.3-0.4-4.7-0.4-6.5-0.2c-5.8,0.6-11.6,3.4-15.7,7.7
		c-11.8,12.1-15.1,25-17.6,37c-0.1,0.7-0.2,1.5-0.3,2.3c-6.8,13.5-20.2,32.2-26.6,34.2c-4.5,1.3-7.7-1.1-8.8-5.6
		c-2.8-12.3,2.2-37.2,4.5-51.4c0,0.4,2.8-19.6,4.1-31c14.2,1.1,29.7-2.2,32.1-4.1c2.6-2.2,1.5-5-1.3-4.1c-2.8,0.9-15.9,3-29.9,1.1
		l0.9-10.1l0.6-6c1.1-9.3,5.4-30.3,5.4-36.4c0-2.2-2.4-3.4-3.2-3.9c-2.4-1.1-5.8-0.2-7.1,1.7c-4.3,5.8-8.2,18.7-9.7,30.3l-1.3,7.1
		c-0.2,1.5-1.1,6.2-1.9,12.1c-7.3-3.9-11-9.3-12.5-12.7c-1.3-3.4-1.5-7.7-0.6-9.9c1.1-2.6-1.9-2.8-3.9-2.8c-4.5,0-8.2,5.8-6.9,13.6
		c1.5,8.2,10.1,15.9,22.6,20.4l-2.8,17.6c-1.3,7.8-2.9,16.4-4.1,25.1c-3.2,4.9-7.2,10.1-10.5,11.9c-2.6,1.5-4.9,2.6-5.4,2.2
		c0,0,0-2.4,0.2-4.5c0.9-12.5,1.9-27.3-6-37.4c-3.9-4.9-8-7.7-15.3-6.9c-6.5,0.4-11.4,5.6-14.2,9.9l-1.5,2.4c0,0-1.3-4.3-1.7-5.2
		c-1.3-2.8-4.5-4.5-7.5-2.8c-2.4,1.7-3.7,4.5-4.3,7.5c0.3-0.7-2.5,13.1-5.7,27.3c-5.8,16.3-19.8,41.7-30.2,38.8
		c-2.2-0.6-3.9-2.6-3.9-5.8c0-9.7,0-19.2,0.2-28.6c0-8.6,0-17.2-0.6-25.8c0-1.9-0.9-3.4-1.7-5.2c-1.5-1.9-4.1-1.7-5.8,0
		c-3.2,3-2.8,6.2-3.9,12.9c-0.9,1.7-1.5,3.4-2.4,4.9c-2.4,4.7-5,9.7-7.7,14.4c-7.5,14-12.3,25.8-20.7,32.3c-2.8,2.2-8.2,1.5-9-3
		c-3.2-15.3-1.1-41.3,10.3-57.9c6.5-9.3,13.6-12.7,20.2-10.5c4.5,0.9-3.4,14.4,1.9,14.4c0.9,0,1.5,0,2.8-1.3c2.2-3.7,2.6-6,2.6-10.1
		c0-4.5-2.6-8.4-6.9-8.8c-11.6-1.7-25.2,6.9-32.5,17c-7.5,10.3-12.3,21.9-14.4,33c-6.9,13.5-20.1,31.9-26.5,34
		c-4.5,1.3-7.7-1.1-8.8-5.6c-2.8-12.3,2.2-37.2,4.5-51.4c0,0.4,2.8-19.6,4.1-31c14.2,1.1,29.7-2.2,32.1-4.1c2.6-2.2,1.5-5-1.3-4.1
		c-2.8,0.9-15.9,3-29.9,1.1l0.9-10.1l0.6-6c1.1-9.3,5.4-30.3,5.4-36.4c0-2.2-2.4-3.4-3.2-3.9c-2.4-1.1-5.8-0.2-7.1,1.7
		c-4.3,5.8-8.2,18.7-9.7,30.3l-1.3,7.1c-0.2,1.5-1.1,6.2-1.9,12.1c-7.3-3.9-11-9.3-12.5-12.7c-1.3-3.4-1.5-7.7-0.6-9.9
		c1.1-2.6-1.9-2.8-3.9-2.8c-4.5,0-8.2,5.8-6.9,13.6c1.5,8.2,10.1,15.9,22.6,20.4l-2.8,17.6c-3.4,21.1-9.5,49.1-3.9,64.3
		c5.2,14.6,19.8,19.8,29.9,12.1c5.7-4.3,12.7-13.9,18.9-24.9c-0.2,7,0.7,13.5,2.8,18.8c3.2,6,10.8,10.3,17.6,9
		c13.8-2.6,20.7-22.2,27.1-36.6c0.2-0.4,1.3-2.4,3-2.4c0.6,0,1.3,0.6,1.3,1.7c0.2,3.7,0,7.3,0,11c0,2.6,0.2,5.4,0.4,8.2
		c0.4,5.6,3,13.3,8.6,15.7c9.7,4.1,21.7,0.9,31-13.3c1.4-2.2,2.9-4.9,4.4-7.8c-3.9,12.1-9.9,25.7-14.1,36.6
		c-6.7,17.9-11,30.6-12.7,47.3c-0.6,6.9-1.5,27.1,11.6,27.1c6.2,0,12.7-1.7,18.9-14.2c9.9-19.6,10.8-50.1,11.8-67.6
		c0.2-6.9,6-63.9,11.4-73.6c3-5.4,9.5-13.6,14.8-13.6c6.9,0,8.4,6,7.7,20c-0.4,10.3-1.5,14-3.7,23.7c-0.2,1.1-1.1,1.7-1.9,2.6
		c-8,4.7-22.8,13.8-20.9,25.4c1.7,11.6,17.6,12.3,28,1.1c4.3-5.6,6.7-13.1,9.3-19.2c0.2-1.1,1.1-3.7,2.6-4.5c1.5-1.1,5.2-3.2,9-7.3
		c2.1-2.2,3.9-4.2,5.5-6.1c-1.3,11.8-1.5,22.8,1.4,30.6c5.2,14.6,19.8,19.8,29.9,12.1c6-4.6,13.4-14.9,19.9-26.6
		c0,5.8,0.5,11.9,1.8,16c3.2,10.1,14.6,16.1,24.3,11.4c8-3.7,12.9-15.3,19.2-27.8c1.5-3,5.4-14.2,7.7-15.5c5.1-1.1,12.5-4.1,20-10.8
		c0,0,0,0,0,0c-2.6,13.1-7.1,30.8-6.9,46.9c0,4.3,5.4,9.5,14.6,7.5c1.9-0.4,7.3-1.9,11-5.6c4.1-3.7,7.3-8.6,11-15.9
		c2.2-4.5,3.4-6.9,6-11.8c2.8-4.7,6.5-12.5,10.1-17c0.6-0.9,1.5-1.1,1.9-0.9c0.6,0.2,0.6,1.1,0.6,1.7c0,18.1-5,29.1-3.2,37.4
		c0.6,3.7,2.4,9,7.3,11.4c9.7,4.1,21.7,0.9,31-13.3c7.1-10.8,15.5-34.2,16.1-35.9c0.5-1.5,1.2-3.1,1.7-4.8c1.1-3.1,2-5.8,2.6-8.1
		c2.2,1.3,4.7,2.2,7.7,2.8c2.4,0.4,4.3,2.6,2.8,5.6L583,110c-5.2,9.7-9.9,22.8-6.9,33.6c2.4,8.4,11.8,11.6,17.6,11.8
		c11,0.4,17.2-5.4,23.5-14.6c2.5-3.7,5.9-10.1,8.9-16.3c-0.5,2.9-1,5.6-1.4,7.5c-3.4,18.7,4.1,27.5,19.6,24.7
		c15.7-2.8,26.5-25.6,32.9-42.2c0.2-0.6,0.4-1.1,0.6-1.6c0.4-0.5,0.6-1,0.9-1.5c1.5-3.7,4.5-10.3,6.2-14.8
		c5.2,8.6,10.1,14.4,11.6,17.9c0.6,1.3,1.1,2.6,1.1,3.9s-0.2,2.6-1.3,3.9c-1.1,1.1-2.6,2.6-3.9,3.4c-4.1,3-7.7,6.5-11.4,9.9
		c-4.7,4.7-10.3,12.9-9.9,17.2c0.2,3.4,2.6,6.9,6.9,9c3.4,1.7,9.5,2.4,13.1,1.1c8-2.6,11.4-4.9,16.1-11.4c5.8-7.5,9.5-15.9,7.7-28.6
		c-0.2-1.7-0.9-3.4-1.3-5.4c0-0.9,0.2-1.7,0.6-2.4c1.1-2.2,3.4-3.4,5.2-4.7c2.7-1.8,8.6-7.1,14.5-12.7c-2.6,16.6-4.5,33.7-0.5,44.5
		c5.2,14.6,19.8,19.8,29.9,12.1c5.9-4.5,13.3-14.7,19.8-26.3c0.3,3.5,0.9,6.9,1.8,10c1.9,6.9,5.8,12.5,10.1,15.1
		c5.6,3.4,12.3,5.4,19.8,4.7c11.8-0.9,15.3-5.2,20.7-10.1c5.4-3.4,11-11.6,15.4-19.7c0,5.7,0.6,11.7,1.8,15.8
		c3.2,10.1,14.6,16.1,24.3,11.4c8-3.7,12.9-15.3,19.2-27.8c1.5-3,5.4-14.2,7.7-15.5c6.2-1.3,15.9-5.6,25.2-15.9
		c0.2-0.4,0.9-1.3,0.6-1.9C929.9,93.4,930.3,92.8,929.5,92.6z M266.4,209c-0.9,6.9-3,28.4-10.5,28.4c-9.9,0-6.9-26.3-3.4-39.4
		c3.9-14.8,9.3-26,16.6-38.3l0.9-0.4c0.4,0.9,0.6,1.7,0.6,2.6C270.5,174.4,268.8,190.3,266.4,209z M315.7,137.1
		c-2.4,6.7-7.7,14.2-14.4,10.1c-4.3-2.6,0-9.3,5.4-13.8c3.4-2.8,9.3-6.7,10.1-5.8C317.2,128.1,317,133.5,315.7,137.1z M444.8,116
		c-3.9,9.9-7.5,16.8-11.4,23.5c-2.2,3.9-6.5,9-10.5,9.7c-4.3,0.6-6.9-9.9-7.1-12.9c-0.4-5.8-0.2-21.7,1.9-32.7
		c3.7-18.1,10.5-26.9,19.4-28.2c3-0.4,4.3,4.3,4.3,4.3c-7.1,3.7-8.2,11.4-7.5,17c0.4,5.4,4.3,11.6,10.5,14
		C446.1,111.3,445.5,114.5,444.8,116z M448.7,103.6c-1.7,0.2-4.5-2.2-5.4-3.4c-2.6-3.9-3.4-6-2.4-12.5c0.2-1.1,1.5-3.4,4.1-3.9
		c2.2-0.4,4.5,1.5,4.9,4.3c0.4,1.9,0.6,3.4,0.6,6C450.6,95.4,450,103.3,448.7,103.6z M579.8,73.4c-2.4,0.2-2.8-4.7-3.2-9.9
		c-0.9-8.6,1.7-21.1,9.9-19.8c1.5,0.4,3.4,2.4,3.9,3.7c0.4,2.8,0.4,5.6-0.6,8C587.9,61.2,584.5,70.4,579.8,73.4z M690.8,76.2
		c-1.7-0.4-4.1-6.2-3-11.2c1.5-6.5,7.7-19.2,14.2-15.7c2.8,1.5,1.9,4.1,0.6,9.9C700.5,68.3,693.2,76.9,690.8,76.2z M698.8,152
		c-1.9,3.4-5.4,6.2-10.1,7.3c-4.5,1.3-7.7,0.2-10.5-2.2c-1.9-1.7-2.2-4.7,0.2-10.5c2.8-7.1,9.5-12.1,15.9-17.4
		c1.3-1.1,3.7-3.2,4.7-2.8c1.1,0.4,1.7,1.9,2.2,4.9C702.2,139.1,702.9,144.2,698.8,152z M896.3,116c-3.9,9.9-7.5,16.8-11.4,23.5
		c-2.2,3.9-6.5,9-10.5,9.7c-4.3,0.6-6.9-9.9-7.1-12.9c-0.4-5.8-0.2-21.7,1.9-32.7c3.7-18.1,10.5-26.9,19.4-28.2
		c3-0.4,4.3,4.3,4.3,4.3c-7.1,3.7-8.2,11.4-7.5,17c0.4,5.4,4.3,11.6,10.5,14C897.6,111.3,897,114.5,896.3,116z M900.2,103.6
		c-1.7,0.2-4.5-2.2-5.4-3.4c-2.6-3.9-3.4-6-2.4-12.5c0.2-1.1,1.5-3.4,4.1-3.9c2.2-0.4,4.5,1.5,5,4.3c0.4,1.9,0.6,3.4,0.6,6
		C902.1,95.4,901.5,103.3,900.2,103.6z"/>
</g>
</svg>
