<?xml version="1.0" encoding="utf-8"?>
<!-- Generator: Adobe Illustrator 23.1.1, SVG Export Plug-In . SVG Version: 6.00 Build 0)  -->
<svg version="1.1" id="Layer_1" xmlns="http://www.w3.org/2000/svg" xmlns:xlink="http://www.w3.org/1999/xlink" x="0px" y="0px"
	 viewBox="0 0 3200 860.56" style="enable-background:new 0 0 3200 860.56;" xml:space="preserve">
<style type="text/css">
	.st0{fill:#FFFFFF;}
</style>
<g>
	<path class="st0" d="M505.49,555.1c16.63,2.27,34.02-3.02,46.88-12.85c12.85-12.1,18.15-18.15,24.2-23.44
		c22.68-18.9,38.56-42.34,55.19-65.78c2.27-6.05,6.05-11.34,5.29-17.39c0-1.51-1.51-3.03-3.02-3.03c-1.51-0.76-4.54-0.76-4.54,0
		l-24.95,34.78c-10.59,15.88-31,34.02-49.15,52.17c-21.17,18.9-55.95,25.71-55.95-5.29c0-58.22,17.39-196.58,33.27-311.51
		c0-4.54,3.02-6.8,7.56-6.8c43.1,0,83.93-9.07,91.49-15.12c9.07-7.56,5.29-17.39-4.54-14.37c-8.32,2.27-42.34,8.32-82.41,6.05
		c-4.54,0-7.56-4.54-6.8-9.07l3.02-24.19c3.78-24.95,9.07-55.95,11.34-74.85c2.27-15.88,6.8-34.02,4.54-49.9
		c0-5.29-5.29-9.07-8.32-10.58c-5.29-2.27-12.1-6.05-17.39-2.27c-2.27,1.51-5.29,3.78-6.8,6.05c-6.81,9.07-12.1,18.9-14.37,29.49
		c-7.56,26.46-18.15,80.15-26.46,117.19c-0.76,3.78-3.78,6.05-7.56,6.05c-43.1-0.76-82.41,9.07-101.31,14.36
		c-65.02,17.39-143.66,57.46-214.73,78.63c-31,9.07-55.19,13.61-81.66,0c-26.46-13.61-37.05-49.9-43.85-70.32
		c-1.51-6.05-12.85-15.88-23.44-13.61c-9.83,2.27-12.1,20.41-10.58,30.24c1.51,14.37,15.88,52.17,56.71,76.36
		c24.19,14.37,58.97,8.32,108.12-6.8c47.63-15.12,103.58-43.85,186.75-72.58c27.97-9.07,85.44-18.9,119.46-11.34
		c4.54,0.76,6.05,4.54,6.05,8.32c-3.02,17.39-8.32,49.15-12.85,71.07c-9.83,46.12-17.39,74.85-21.17,120.97
		c-1.51,15.12-4.54,93,3.78,114.17C455.59,526.37,472.22,551.32,505.49,555.1L505.49,555.1z"/>
	<path class="st0" d="M691.49,552.83c48.39-9.07,72.58-77.88,95.27-128.53c0.76-1.51,4.54-8.32,10.59-8.32
		c2.27,0,4.54,2.27,4.54,6.05c0.76,12.85,0,25.71,0,38.56c0,9.07,0.76,18.9,1.51,28.73c1.51,19.66,10.59,46.88,30.24,55.19
		c34.02,14.37,76.36,3.02,108.88-46.88c24.95-37.8,54.44-120.22,56.71-126.26c2.27-6.81,6.05-14.37,6.8-22.68
		c0-3.02-2.27-6.05-5.29-6.05c-2.27-0.76-3.02-0.76-4.54,0c-4.54,4.54-7.56,9.83-9.07,16.63c-15.12,53.68-71.07,165.58-111.9,154.24
		c-7.56-2.27-13.61-9.07-13.61-20.41c0-34.02,0-67.29,0.76-100.56c0-30.24,0-60.49-2.27-90.73c0-6.81-3.02-12.1-6.05-18.15
		c-5.29-6.81-14.37-6.05-20.41,0c-11.34,10.58-9.83,21.93-13.61,45.36c-3.02,6.05-5.29,12.1-8.32,17.39
		c-8.32,16.63-17.39,34.02-27.22,50.66c-26.46,49.15-43.1,90.73-72.58,113.41c-9.83,7.56-28.73,5.29-31.76-10.58
		c-11.34-53.68-3.78-145.17,36.29-203.39c22.68-32.51,47.63-44.61,71.07-37.05c15.88,3.02-12.1,50.66,6.8,50.66
		c3.03,0,5.29,0,9.83-4.54c7.56-12.85,9.07-21.17,9.07-35.54c0-15.88-9.07-29.49-24.19-31c-40.83-6.05-88.46,24.19-114.17,59.73
		c-53.68,73.34-67.29,166.34-45.37,222.29C640.83,542.25,667.29,557.37,691.49,552.83L691.49,552.83z"/>
	<path class="st0" d="M1198.06,450c-9.07-5.29-16.63-9.07-24.19-12.1c12.85-65.78,10.59-140.63-15.88-173.9
		c-13.61-17.39-27.97-27.22-53.68-24.2c-22.68,1.51-40.07,19.66-49.9,34.78l-5.29,8.32c0,0-4.54-15.12-6.05-18.15
		c-4.54-9.83-15.88-15.88-26.46-9.83c-8.32,6.05-12.85,15.88-15.12,26.46c1.51-3.78-24.95,123.24-40.07,177.68
		c-13.61,45.36-37.05,98.29-52.92,139.88c-23.44,62.76-38.56,107.36-44.61,166.34c-2.27,24.19-5.29,95.27,40.83,95.27
		c21.93,0,44.61-6.05,66.54-49.9c34.78-68.8,37.8-176.17,41.58-237.41c0.76-24.19,21.17-224.56,40.07-258.58
		c10.59-18.9,33.27-47.63,52.17-47.63c24.2,0,29.49,21.17,27.22,70.32c-1.51,36.29-2.27,49.15-9.83,83.17
		c-0.76,3.78-3.02,8.32-6.81,9.07c-46.12,6.81-83.17,48.39-76.36,89.22c6.05,40.83,62,43.1,98.29,3.78
		c15.12-19.66,27.22-44.61,32.51-67.29c6.81,2.27,12.85,4.54,15.88,7.56C1193.53,469.66,1207.89,456.05,1198.06,450L1198.06,450z
		 M1115.65,481.76c-8.32,23.44-27.22,49.9-50.66,35.54c-15.12-9.07,0-40.07,18.9-55.95c12.1-9.83,32.51-15.88,35.54-12.85
		C1120.94,450,1120.19,468.91,1115.65,481.76L1115.65,481.76z M942.51,734.29c-3.02,24.19-10.59,99.8-37.05,99.8
		c-34.78,0-24.19-92.24-12.1-138.36c13.61-52.17,32.51-91.49,58.22-134.58l3.03-1.51c1.51,3.02,2.27,6.05,2.27,9.07
		C956.87,612.56,950.82,668.51,942.51,734.29L942.51,734.29z"/>
	<path class="st0" d="M1579.88,366.83c-0.76-1.51-2.27-3.02-3.78-3.02c-1.51-0.76-4.54,0-4.54,0.76
		c-7.56,11.34-14.37,24.95-22.68,42.34c-22.68,47.63-73.34,119.46-96.78,127.02c-15.88,4.54-27.22-3.78-31-19.66
		c-9.83-43.1,7.56-130.8,15.88-180.7c0,1.51,9.83-68.8,14.37-108.88c49.9,3.78,104.34-7.56,112.66-14.37
		c9.07-7.56,5.29-17.39-4.54-14.36c-9.83,3.02-55.95,10.58-105.09,3.78l3.02-35.54l2.27-21.17c3.78-32.51,18.9-106.61,18.9-127.78
		c0-7.56-8.32-12.1-11.34-13.61c-8.32-3.78-20.41-0.76-24.95,6.05c-15.12,20.41-28.73,65.78-34.02,106.61l-4.54,24.95
		c-0.76,5.29-3.78,21.93-6.8,42.34c-25.71-13.61-38.56-32.51-43.85-44.61c-4.54-12.1-5.29-27.22-2.27-34.78
		c3.78-9.07-6.81-9.83-13.61-9.83c-15.88,0-28.73,20.42-24.19,47.63c5.29,28.73,35.54,55.95,79.39,71.83l-9.83,62
		c-12.1,74.1-33.27,172.39-13.61,226.07c18.15,51.41,69.56,69.56,105.09,42.34c31.76-24.19,74.85-94.51,101.32-158.02
		C1578.37,376.66,1580.64,372.88,1579.88,366.83L1579.88,366.83z"/>
	<path class="st0" d="M1635.83,545.27c27.98-12.85,45.36-53.68,67.29-97.54c5.29-10.58,18.9-49.9,27.22-54.44
		c21.93-4.54,55.95-19.66,88.46-55.95c0.76-1.51,3.02-4.54,2.27-6.81c0-2.27,1.51-4.54-1.51-5.29c-2.27-3.02-6.81-3.02-9.83,0
		c-3.78,3.02-6.81,7.56-14.37,13.61c-18.9,15.88-35.54,27.22-58.22,29.49c-1.51-1.51,3.02-21.17,3.02-40.07
		c0-13.61-2.27-25.71-9.07-37.05c-2.27-3.78-5.29-8.32-9.07-10.59c-6.05-3.02-9.07-8.32-12.85-13.61
		c-6.05-9.83-11.34-14.36-22.68-18.15c-4.54-1.51-16.63-1.51-22.68-0.76c-20.42,2.27-40.83,12.1-55.19,27.22
		c-41.58,42.34-52.93,87.71-62,130.05c-3.78,24.95-4.54,73.34,3.78,99.8C1561.74,540.73,1601.81,561.9,1635.83,545.27
		L1635.83,545.27z M1626,524.1c-15.12,2.27-24.2-34.78-24.95-45.37c-1.51-20.41-0.76-76.36,6.81-114.92
		c12.85-63.51,37.05-94.51,68.05-99.05c10.58-1.51,15.12,15.12,15.12,15.12c-24.95,12.85-28.73,40.07-26.46,59.73
		c1.51,18.9,15.12,40.83,37.05,49.15c6.05,2.27,3.78,13.61,1.51,18.9c-13.61,34.78-26.46,58.97-40.07,82.41
		C1655.49,503.69,1640.37,521.83,1626,524.1L1626,524.1z M1716.73,363.81c-6.05,0.76-15.88-7.56-18.9-12.1
		c-9.07-13.61-12.1-21.17-8.32-43.85c0.76-3.78,5.29-12.1,14.37-13.61c7.56-1.51,15.88,5.29,17.39,15.12
		c1.51,6.8,2.27,12.1,2.27,21.17C1723.54,335.08,1721.27,363.05,1716.73,363.81L1716.73,363.81z"/>
	<path class="st0" d="M1985.14,544.51c34.02,14.37,76.36,3.02,108.88-46.88c24.95-37.8,54.44-120.22,56.71-126.26
		c2.27-6.81,6.05-14.37,6.8-22.68c0-3.02-2.27-6.05-5.29-6.05c-2.27-0.76-3.03-0.76-4.54,0c-4.54,4.54-7.56,9.83-9.07,16.63
		c-15.12,53.68-74.85,175.41-111.9,154.24c-15.88-9.07-13.61-27.22-6.8-71.83c9.07-55.95,11.34-80.9,14.37-164.83
		c0-7.56-4.54-15.12-9.83-19.66c-4.54-4.54-21.17-3.02-24.95,3.78c-3.78,6.8-9.83,15.88-14.37,22.68
		c-18.15,25.71-34.02,66.54-40.83,78.63c-18.15,32.51-42.34,77.12-54.44,99.8c-15.12,27.22-23.44,40.83-37.8,48.39
		c-3.78,2.27-6.05,2.27-9.83-1.51c-5.29-9.07-0.76-51.41,3.78-75.61c6.8-32.51,19.66-94.51,22.68-139.12
		c0.76-8.32-1.51-27.97-5.29-37.8c-6.05-9.83-12.85-9.07-23.44-6.81c-10.58,2.27-14.37,9.83-15.88,14.37
		c-8.32,21.17-19.66,71.07-23.44,91.49c-9.07,46.12-24.95,108.12-24.2,164.83c0,15.12,18.9,33.27,51.41,26.46
		c6.8-1.51,25.71-6.81,38.56-19.66c14.36-12.85,25.71-30.24,38.56-55.95c7.56-15.88,12.1-24.19,21.17-41.58
		c9.83-16.63,22.68-43.85,35.54-59.73c2.27-3.02,5.29-3.78,6.81-3.02c2.27,0.76,2.27,3.78,2.27,6.05
		c0,63.51-17.39,102.07-11.34,131.56C1961.7,517.29,1967.75,536.2,1985.14,544.51L1985.14,544.51z"/>
	<path class="st0" d="M2368.48,349.44c-2.27-0.76-3.02-0.76-4.54,0c-4.54,4.54-6.05,9.83-9.07,16.63
		c-42.34,99.05-77.12,161.05-120.22,148.19c-23.44-6.8-16.63-37.8-4.54-72.58c9.83-20.41,33.27-83.93,27.97-109.63
		c-1.51-8.32-10.58-15.12-18.9-15.12c-18.15,0-37.05,1.51-49.15-18.9c-9.07-13.61,6.8-32.51,13.61-44.61
		c12.85-24.19,20.41-40.07,24.2-60.49c9.83-55.19-31.76-68.05-62-52.17c-40.83,21.17-51.41,114.92-34.02,145.92
		c6.05,11.34,12.85,21.17,21.17,28.73c-7.56,20.41-18.9,52.93-34.78,90.73c-2.27,6.05-1.51,11.34,2.27,13.61
		c3.78,1.51,9.07-1.51,12.85-9.07c15.88-35.54,27.22-65.02,32.51-84.68c7.56,4.54,16.63,7.56,27.22,9.83
		c8.32,1.51,15.12,9.07,9.83,19.66l-14.36,31c-18.15,34.02-34.78,80.15-24.2,117.95c8.32,29.49,41.58,40.83,62,41.58
		c38.56,1.51,60.49-18.9,82.41-51.41c20.41-29.49,55.95-110.39,58.22-116.44c2.27-6.8,6.05-14.36,6.81-22.68
		C2373.77,352.47,2371.5,349.44,2368.48,349.44L2368.48,349.44z M2177.19,257.96c-8.32,0.76-9.83-16.63-11.34-34.78
		c-3.02-30.24,6.05-74.1,34.78-69.56c5.29,1.51,12.1,8.32,13.61,12.85c1.51,9.83,1.51,19.66-2.27,27.97
		C2205.92,214.86,2193.82,247.37,2177.19,257.96L2177.19,257.96z"/>
	<path class="st0" d="M2432.74,171.77c5.29-3.02,13.61-12.1,13.61-21.93c0-12.85-6.8-18.15-12.85-22.68
		c-12.1-4.54-22.68-2.27-26.46-0.76c-6.8,2.27-15.88,9.07-18.15,15.88c-3.02,5.29-3.78,17.39,5.29,25.71
		C2403.26,176.3,2420.65,178.57,2432.74,171.77L2432.74,171.77z M2404.01,550.56c55.19-9.83,93-89.97,115.68-148.19
		c3.78-9.83,6.8-15.12,9.83-23.44c1.51-4.54,1.51-9.83-3.02-11.34c-2.27-0.76-6.8-0.76-9.83,6.8
		c-15.12,39.32-46.88,98.29-59.73,114.17c-18.9,23.44-32.51,34.78-46.88,34.78c-7.56,0-23.44-5.29-21.93-27.98
		c0.76-11.34,10.58-68.05,18.15-108.88c6.05-33.27,15.88-83.17,15.88-114.17c0-19.66-18.15-29.49-36.29-21.17
		c-3.78,1.51-8.32,11.34-9.83,15.12c-6.05,27.22-17.39,85.44-27.98,130.8c-3.78,16.63-9.83,49.9-12.85,66.54
		C2323.11,529.39,2349.57,560.39,2404.01,550.56L2404.01,550.56z"/>
	<path class="st0" d="M2759.37,294.25c-2.27-5.29-8.32-4.54-10.59-0.76c-22.68,26.46-61.24,60.49-73.34,69.56
		c-11.34,8.32-22.68,15.12-34.78,22.68c-0.76,0.76-3.02,2.27-4.54,1.51c-2.27-0.76-3.02-2.27-3.78-3.02
		c-15.12-15.88-40.07-65.02-52.17-87.7c-2.27-3.78-2.27-9.07,0.76-13.61c22.68-31,36.29-43.85,44.61-77.12
		c3.02-11.34,8.32-30.24-9.07-44.61c-13.61-11.34-31.75-9.83-52.93,2.27c-27.22,15.88-48.39,49.15-48.39,77.88
		c0,26.46,3.78,38.56,12.85,61.24l6.8,15.12c-1.51,6.05-2.27,11.34-4.54,18.9l-19.66,52.93c0,3.78-3.03,6.8,1.51,9.83
		c6.8,3.78,10.58-3.03,12.85-7.56c5.29-12.85,15.88-36.29,21.93-52.17c18.14,30.24,35.53,50.66,40.83,62.76
		c2.27,4.54,3.78,9.07,3.78,13.61c0,4.54-0.76,9.07-4.54,13.61c-3.78,3.78-9.07,9.07-13.61,12.1
		c-14.36,10.58-27.22,22.68-40.07,34.78c-16.63,16.63-36.29,45.37-34.78,60.49c0.76,12.1,9.07,24.19,24.2,31.75
		c12.1,6.05,33.27,8.32,46.12,3.78c27.98-9.07,40.07-17.39,56.71-40.07c20.41-26.46,33.27-55.95,27.22-100.56
		c-0.76-6.05-3.02-12.1-4.54-18.9c0-3.02,0.76-6.05,2.27-8.32c3.78-7.56,12.1-12.1,18.15-16.63c14.36-9.83,54.44-46.88,81.66-74.1
		c4.54-5.29,8.32-9.07,10.58-15.88C2760.88,296.52,2760.88,295.01,2759.37,294.25L2759.37,294.25z M2567.33,267.79
		c-6.05-1.51-14.37-21.93-10.59-39.32c5.29-22.68,27.22-67.29,49.9-55.19c9.83,5.29,6.8,14.37,2.27,34.78
		C2601.35,239.81,2575.64,270.06,2567.33,267.79L2567.33,267.79z M2595.3,533.93c-6.8,12.1-18.9,21.93-35.54,25.71
		c-15.88,4.54-27.22,0.76-37.05-7.56c-6.8-6.05-7.56-16.63,0.76-37.05c9.83-24.95,33.27-42.34,55.95-61.24
		c4.54-3.78,12.85-11.34,16.63-9.83c3.78,1.51,6.05,6.8,7.56,17.39C2607.4,488.56,2609.67,506.71,2595.3,533.93L2595.3,533.93z"/>
	<path class="st0" d="M3185.8,344.15c-20.41-21.17-48.39-20.41-82.41-11.34c-44.61,11.34-111.14,92.24-165.58,129.29
		c-52.93,37.05-129.29,85.44-155,62.75c-34.78-21.17-4.54-139.88,3.02-191.29c6.05-37.8,11.34-77.12,15.12-108.88
		c49.15,3.78,103.58-7.56,111.9-14.37c9.07-7.56,5.29-17.39-4.54-14.36c-9.83,3.02-55.19,10.58-104.34,3.78l4.54-31
		c1.51-41.59,18.9-132.32,18.9-153.49c0-7.56-8.32-12.1-11.34-13.61c-8.32-3.78-20.41-0.76-24.95,6.05
		c-15.12,20.41-28.73,86.19-34.02,127.02l-7.56,49.15c-27.98-14.36-42.34-34.02-47.63-46.88c-4.54-12.1-5.29-27.22-2.27-34.78
		c3.78-9.07-6.8-9.83-13.61-9.83c-15.88,0-28.73,20.42-24.2,47.63c5.29,29.49,37.05,57.46,82.41,72.58
		c-3.78,21.93-6.8,42.34-9.07,52.17c-9.83,46.12-17.39,74.85-21.17,120.97c-1.51,15.12-4.54,93,3.78,114.17
		c33.27,110.39,145.17,43.1,175.41,23.44c121.73-77.88,179.19-157.27,214.73-169.36c23.44-9.07,38.56-3.03,43.1,9.83
		c6.05,16.63,18.15,45.36,34.78,42.34C3206.22,406.15,3203.19,361.54,3185.8,344.15L3185.8,344.15z"/>
</g>
</svg>
