<svg width="109" height="37" viewBox="0 0 109 37" fill="none" xmlns="http://www.w3.org/2000/svg">
<path d="M61.7228 19.344C61.4028 19.152 60.8908 19.408 60.7628 19.856C59.4828 23.824 56.5388 28.624 54.4268 30.544C53.6588 31.248 52.0588 31.504 51.4188 30.928C50.3308 29.904 50.5868 28.816 51.1628 25.04C51.9308 20.304 52.1228 18.192 52.3788 11.088C52.3788 10.448 51.9948 9.808 51.5468 9.424C51.1628 9.04 49.7548 9.168 49.4348 9.744C49.1148 10.32 48.6028 11.088 48.2188 11.664C46.6828 13.84 45.3388 17.296 44.7628 18.32C43.2268 21.072 41.1788 24.848 40.1548 26.768C38.8748 29.072 38.1708 30.224 36.9548 30.864C36.6348 31.056 36.4428 31.056 36.1228 30.736C35.6748 29.968 36.0588 26.384 36.4428 24.336C37.0188 21.584 38.1068 16.336 38.3628 12.56C38.4268 11.856 38.2348 10.192 37.9148 9.36C37.5948 8.848 37.2748 8.656 36.8268 8.656C35.4827 8.528 33.6268 8.72 31.9628 9.04C26.3948 10.128 19.8028 13.904 13.7868 15.696C11.1628 16.464 9.11475 16.848 6.87475 15.696C4.63475 14.544 3.73875 11.472 3.16275 9.744C3.03475 9.232 2.07475 8.4 1.17875 8.592C0.34675 8.784 0.15475 10.32 0.28275 11.152C0.41075 12.368 1.62675 15.568 5.08275 17.616C7.13075 18.832 10.0748 18.32 14.2348 17.04C18.2668 15.76 23.0028 13.328 30.0428 10.896C31.7708 10.32 32.9868 10.128 34.3948 10.448C33.7548 12.432 32.9228 16.144 32.6028 17.744C31.8348 21.648 30.4908 26.896 30.5548 31.696C30.5548 32.976 32.1548 34.512 34.9068 33.936C35.4827 33.808 37.0828 33.36 38.1708 32.272C39.3868 31.184 40.3468 29.712 41.4348 27.536C42.0748 26.192 42.4588 25.488 43.2268 24.016C44.0588 22.608 45.1468 20.304 46.2348 18.96C46.4268 18.704 46.6828 18.64 46.8108 18.704C47.0028 18.768 47.0028 19.024 47.0028 19.216C47.0028 24.592 45.5308 27.856 46.0428 30.352C46.2348 31.44 46.7468 33.424 48.2188 34.128C49.6268 34.704 51.4188 34.64 53.1468 33.616C54.5548 32.784 56.7948 30.736 59.5468 25.872C60.5068 24.144 60.5068 23.952 60.8908 22.992C61.4028 21.84 61.7868 20.944 61.8508 20.496C61.9788 20.304 61.9788 20.176 61.9788 20.048C61.9148 19.728 61.9148 19.536 61.7228 19.344ZM36.5708 12.944V12.88V12.944ZM107.72 10.128C106.12 8.208 102.6 8.08 99.6562 8.208C94.1523 8.4 85.6403 11.792 80.3283 14.608C75.4003 17.232 71.0483 20.944 70.6643 20.432C69.3843 19.152 67.3363 15.888 66.3123 13.968C66.1203 13.648 66.1203 13.2 66.3763 12.816C68.2963 10.192 69.0003 9.168 69.9603 5.648C70.2163 4.752 70.6003 2.512 69.1283 1.296C67.9763 0.335999 66.4403 0.463997 64.6483 1.488C62.3443 2.832 60.5523 5.648 60.5523 8.08C60.5523 10.32 60.2323 10.448 62.0883 13.904C62.2163 14.16 62.4083 14.416 62.5363 14.672L61.8323 16.528L60.7443 19.024C60.8083 19.344 60.4243 19.6 60.9363 19.92C61.4483 20.24 61.5763 19.728 61.8963 19.344C62.2163 18.896 62.9843 17.168 63.3683 16.08C64.7763 18.512 66.2483 20.624 66.6963 21.712C66.8883 22.096 67.0163 22.48 67.0163 22.864C67.0163 23.248 66.9523 23.632 66.6323 24.016C66.3123 24.336 65.8643 24.784 65.4803 25.04C64.2643 25.936 63.1763 26.96 62.0883 27.984C60.6803 29.392 59.0162 31.824 59.1442 33.104C59.2082 34.128 59.9123 35.152 61.1923 35.792C62.2163 36.304 64.0083 36.496 65.0963 36.112C67.4643 35.344 68.4883 34.64 69.8963 32.72C71.6243 30.544 72.7123 27.984 72.2003 24.208C72.1363 23.696 71.3043 22.416 72.0083 21.84C73.0963 21.136 76.8723 18.192 80.8403 16.144C91.2083 10.832 96.6483 9.744 100.68 9.744C102.856 9.744 105.16 10.576 105.352 11.728C105.608 13.328 105.032 15.504 106.952 15.696C107.4 15.76 108.168 15.44 108.488 14.992C109.192 13.84 108.808 11.472 107.72 10.128ZM65.4803 11.152C64.9683 11.024 64.3283 9.296 64.4563 6.864C64.5843 4.176 65.9923 1.552 68.2963 2.32C68.7443 2.448 68.9363 2.896 68.9363 3.792C68.9363 6.928 66.1843 11.344 65.4803 11.152ZM67.3363 32.848C66.7603 33.872 65.7363 34.704 64.3283 35.024C62.9843 35.408 62.0243 35.088 61.1923 34.384C60.6163 33.872 60.5523 32.976 61.2563 31.248C62.0883 29.136 64.0723 27.664 65.9923 26.064C66.3763 25.744 67.0803 25.104 67.4003 25.232C67.7203 25.36 67.9123 25.808 68.0403 26.704C68.3603 29.008 68.5523 30.544 67.3363 32.848Z" fill="black"/>
</svg>
